%TF.GenerationSoftware,KiCad,Pcbnew,7.0.4*%
%TF.CreationDate,2023-05-30T06:19:14+05:30*%
%TF.ProjectId,1,312e6b69-6361-4645-9f70-636258585858,rev?*%
%TF.SameCoordinates,Original*%
%TF.FileFunction,Copper,L1,Top*%
%TF.FilePolarity,Positive*%
%FSLAX46Y46*%
G04 Gerber Fmt 4.6, Leading zero omitted, Abs format (unit mm)*
G04 Created by KiCad (PCBNEW 7.0.4) date 2023-05-30 06:19:14*
%MOMM*%
%LPD*%
G01*
G04 APERTURE LIST*
%TA.AperFunction,SMDPad,CuDef*%
%ADD10R,0.300000X1.425000*%
%TD*%
%TA.AperFunction,ComponentPad*%
%ADD11C,3.000000*%
%TD*%
%TA.AperFunction,ComponentPad*%
%ADD12R,1.500000X1.500000*%
%TD*%
%TA.AperFunction,SMDPad,CuDef*%
%ADD13R,1.020000X1.470000*%
%TD*%
%TA.AperFunction,ComponentPad*%
%ADD14R,1.700000X1.700000*%
%TD*%
%TA.AperFunction,ComponentPad*%
%ADD15O,1.700000X1.700000*%
%TD*%
%TA.AperFunction,ComponentPad*%
%ADD16C,1.400000*%
%TD*%
%TA.AperFunction,SMDPad,CuDef*%
%ADD17R,1.117600X1.752600*%
%TD*%
%TA.AperFunction,ComponentPad*%
%ADD18R,2.600000X2.600000*%
%TD*%
%TA.AperFunction,ComponentPad*%
%ADD19C,2.600000*%
%TD*%
%TA.AperFunction,SMDPad,CuDef*%
%ADD20R,0.800000X1.000000*%
%TD*%
%TA.AperFunction,SMDPad,CuDef*%
%ADD21R,0.600000X0.350000*%
%TD*%
%TA.AperFunction,SMDPad,CuDef*%
%ADD22R,1.100000X1.700000*%
%TD*%
%TA.AperFunction,SMDPad,CuDef*%
%ADD23R,1.200000X0.600000*%
%TD*%
%TA.AperFunction,SMDPad,CuDef*%
%ADD24R,0.550000X1.050000*%
%TD*%
%TA.AperFunction,SMDPad,CuDef*%
%ADD25R,0.812800X0.762000*%
%TD*%
%TA.AperFunction,SMDPad,CuDef*%
%ADD26R,2.200000X1.550000*%
%TD*%
%TA.AperFunction,SMDPad,CuDef*%
%ADD27R,1.400000X1.000000*%
%TD*%
%TA.AperFunction,SMDPad,CuDef*%
%ADD28R,2.700000X1.150000*%
%TD*%
%TA.AperFunction,SMDPad,CuDef*%
%ADD29R,1.470000X1.020000*%
%TD*%
%TA.AperFunction,SMDPad,CuDef*%
%ADD30R,1.981200X2.794000*%
%TD*%
%TA.AperFunction,SMDPad,CuDef*%
%ADD31R,10.210800X3.505200*%
%TD*%
%TA.AperFunction,SMDPad,CuDef*%
%ADD32R,1.350000X1.100000*%
%TD*%
%TA.AperFunction,Conductor*%
%ADD33C,0.550000*%
%TD*%
%TA.AperFunction,Conductor*%
%ADD34C,0.250000*%
%TD*%
%TA.AperFunction,Conductor*%
%ADD35C,0.350000*%
%TD*%
%TA.AperFunction,Conductor*%
%ADD36C,1.200000*%
%TD*%
%TA.AperFunction,Conductor*%
%ADD37C,0.600000*%
%TD*%
%TA.AperFunction,Conductor*%
%ADD38C,0.700000*%
%TD*%
G04 APERTURE END LIST*
D10*
%TO.P,U1,1,V1*%
%TO.N,Net-(J4-Pin_1)*%
X126000000Y-77904000D03*
%TO.P,U1,2,V2*%
%TO.N,Net-(Buck_IC1-VI)*%
X126500000Y-77904000D03*
%TO.P,U1,3,V3*%
%TO.N,Net-(J8-Pin_1)*%
X127000000Y-77904000D03*
%TO.P,U1,4,V4*%
%TO.N,Net-(J8-Pin_2)*%
X127500000Y-77904000D03*
%TO.P,U1,5,GND*%
%TO.N,Earth*%
X128000000Y-77904000D03*
%TO.P,U1,6,SDA*%
%TO.N,Net-(J8-Pin_3)*%
X128000000Y-73480000D03*
%TO.P,U1,7,SCL*%
%TO.N,Net-(J8-Pin_4)*%
X127500000Y-73480000D03*
%TO.P,U1,8,ADR0*%
%TO.N,Earth*%
X127000000Y-73480000D03*
%TO.P,U1,9,ADR1*%
X126500000Y-73480000D03*
%TO.P,U1,10,VCC*%
%TO.N,Net-(J4-Pin_1)*%
X126000000Y-73480000D03*
%TD*%
D11*
%TO.P,J3,1,Pin_1*%
%TO.N,Earth*%
X112522000Y-106680000D03*
%TD*%
D12*
%TO.P,TP1,1,1*%
%TO.N,Net-(Boost_IC1-VIN)*%
X126492000Y-98298000D03*
%TD*%
D11*
%TO.P,J5,1,Pin_1*%
%TO.N,Earth*%
X175260000Y-106680000D03*
%TD*%
D12*
%TO.P,TP5,1,1*%
%TO.N,Net-(Boost_IC1-SW)*%
X138176000Y-102870000D03*
%TD*%
D13*
%TO.P,C4,1*%
%TO.N,Net-(Buck_IC1-FB)*%
X143558000Y-86868000D03*
%TO.P,C4,2*%
%TO.N,Earth*%
X141938000Y-86868000D03*
%TD*%
D14*
%TO.P,J11,1,Pin_1*%
%TO.N,Net-(F2-OVLO)*%
X156800000Y-91000000D03*
D15*
%TO.P,J11,2,Pin_2*%
%TO.N,Net-(F2-ILIM)*%
X154260000Y-91000000D03*
%TO.P,J11,3,Pin_3*%
%TO.N,Earth*%
X151720000Y-91000000D03*
%TO.P,J11,4,Pin_4*%
%TO.N,Net-(F2-EN{slash}UVLO)*%
X149180000Y-91000000D03*
%TD*%
D16*
%TO.P,TP8,1,1*%
%TO.N,Net-(Buck_IC1-FB)*%
X161000000Y-86000000D03*
%TO.P,TP8,2,2*%
%TO.N,Net-(F1-IN)*%
X161000000Y-88540000D03*
%TD*%
D14*
%TO.P,J9,1,Pin_1*%
%TO.N,Net-(J9-Pin_1)*%
X138430000Y-91694000D03*
%TD*%
D17*
%TO.P,R5,1*%
%TO.N,Net-(J4-Pin_1)*%
X124764800Y-82550000D03*
%TO.P,R5,2*%
%TO.N,Net-(Buck_IC1-VI)*%
X127711200Y-82550000D03*
%TD*%
D18*
%TO.P,J4,1,Pin_1*%
%TO.N,Net-(J4-Pin_1)*%
X116789000Y-82630000D03*
D19*
%TO.P,J4,2,Pin_2*%
%TO.N,Net-(Boost_IC1-VIN)*%
X116789000Y-87630000D03*
%TO.P,J4,3,Pin_3*%
%TO.N,Earth*%
X116789000Y-92630000D03*
%TD*%
D14*
%TO.P,J8,1,Pin_1*%
%TO.N,Net-(J8-Pin_1)*%
X132588000Y-78984000D03*
D15*
%TO.P,J8,2,Pin_2*%
%TO.N,Net-(J8-Pin_2)*%
X132588000Y-76444000D03*
%TO.P,J8,3,Pin_3*%
%TO.N,Net-(J8-Pin_3)*%
X132588000Y-73904000D03*
%TO.P,J8,4,Pin_4*%
%TO.N,Net-(J8-Pin_4)*%
X132588000Y-71364000D03*
%TD*%
D20*
%TO.P,R3,1*%
%TO.N,Net-(Boost_IC1-~{SHDN})*%
X137630000Y-94742000D03*
%TO.P,R3,2*%
%TO.N,Net-(J9-Pin_1)*%
X139230000Y-94742000D03*
%TD*%
D16*
%TO.P,TP9,1,1*%
%TO.N,Net-(F2-IN)*%
X153540000Y-98000000D03*
%TO.P,TP9,2,2*%
%TO.N,Net-(Boost_IC1-VOUT)*%
X151000000Y-98000000D03*
%TD*%
D14*
%TO.P,J7,1,Pin_1*%
%TO.N,Net-(Buck_IC1-EN)*%
X136652000Y-86360000D03*
%TD*%
D21*
%TO.P,F2,1,OUT*%
%TO.N,Net-(F2-OUT)*%
X160050000Y-96650000D03*
%TO.P,F2,2,OVLO*%
%TO.N,Net-(F2-OVLO)*%
X160050000Y-96000000D03*
%TO.P,F2,3,ILIM*%
%TO.N,Net-(F2-ILIM)*%
X160050000Y-95350000D03*
%TO.P,F2,4,GND_1*%
%TO.N,Earth*%
X157950000Y-95350000D03*
%TO.P,F2,5,EN/UVLO*%
%TO.N,Net-(F2-EN{slash}UVLO)*%
X157950000Y-96000000D03*
%TO.P,F2,6,IN*%
%TO.N,Net-(F2-IN)*%
X157950000Y-96650000D03*
D22*
%TO.P,F2,7,GND_2*%
%TO.N,Earth*%
X159000000Y-96000000D03*
%TD*%
D12*
%TO.P,TP3,1,1*%
%TO.N,Net-(Buck_IC1-VI)*%
X136398000Y-82550000D03*
%TD*%
D23*
%TO.P,Buck_IC1,1,VI*%
%TO.N,Net-(Buck_IC1-VI)*%
X139466000Y-82616000D03*
%TO.P,Buck_IC1,2,GND*%
%TO.N,Earth*%
X139466000Y-83566000D03*
%TO.P,Buck_IC1,3,EN*%
%TO.N,Net-(Buck_IC1-EN)*%
X139466000Y-84516000D03*
%TO.P,Buck_IC1,4,FB*%
%TO.N,Net-(Buck_IC1-FB)*%
X141966000Y-84516000D03*
%TO.P,Buck_IC1,5,SW*%
%TO.N,Net-(Buck_IC1-SW)*%
X141966000Y-82616000D03*
%TD*%
D21*
%TO.P,F1,1,OUT*%
%TO.N,Net-(F1-OUT)*%
X168000000Y-87650000D03*
%TO.P,F1,2,OVLO*%
%TO.N,Net-(F1-OVLO)*%
X168000000Y-87000000D03*
%TO.P,F1,3,ILIM*%
%TO.N,Net-(F1-ILIM)*%
X168000000Y-86350000D03*
%TO.P,F1,4,GND_1*%
%TO.N,Earth*%
X165900000Y-86350000D03*
%TO.P,F1,5,EN/UVLO*%
%TO.N,Net-(F1-EN{slash}UVLO)*%
X165900000Y-87000000D03*
%TO.P,F1,6,IN*%
%TO.N,Net-(F1-IN)*%
X165900000Y-87650000D03*
D22*
%TO.P,F1,7,GND_2*%
%TO.N,Earth*%
X166950000Y-87000000D03*
%TD*%
D24*
%TO.P,Boost_IC1,1,SW*%
%TO.N,Net-(Boost_IC1-SW)*%
X133670000Y-97312000D03*
%TO.P,Boost_IC1,2,GND*%
%TO.N,Earth*%
X134620000Y-97312000D03*
%TO.P,Boost_IC1,3,FB*%
%TO.N,Net-(Boost_IC1-FB)*%
X135570000Y-97312000D03*
%TO.P,Boost_IC1,4,~{SHDN}*%
%TO.N,Net-(Boost_IC1-~{SHDN})*%
X135570000Y-94712000D03*
%TO.P,Boost_IC1,5,VOUT*%
%TO.N,Net-(Boost_IC1-VOUT)*%
X134620000Y-94712000D03*
%TO.P,Boost_IC1,6,VIN*%
%TO.N,Net-(Boost_IC1-VIN)*%
X133670000Y-94712000D03*
%TD*%
D14*
%TO.P,JMP1,1,Pin_1*%
%TO.N,Net-(Buck_IC1-VI)*%
X127762000Y-88641000D03*
D15*
%TO.P,JMP1,2,Pin_2*%
%TO.N,Net-(Boost_IC1-VIN)*%
X127762000Y-91181000D03*
%TD*%
D14*
%TO.P,J10,1,Pin_1*%
%TO.N,Net-(F1-OVLO)*%
X170540000Y-81000000D03*
D15*
%TO.P,J10,2,Pin_2*%
%TO.N,Net-(F1-ILIM)*%
X168000000Y-81000000D03*
%TO.P,J10,3,Pin_3*%
%TO.N,Earth*%
X165460000Y-81000000D03*
%TO.P,J10,4,Pin_4*%
%TO.N,Net-(F1-EN{slash}UVLO)*%
X162920000Y-81000000D03*
%TD*%
D25*
%TO.P,R2,1*%
%TO.N,Earth*%
X141732000Y-99072700D03*
%TO.P,R2,2*%
%TO.N,Net-(Boost_IC1-FB)*%
X141732000Y-97523300D03*
%TD*%
D26*
%TO.P,D1,1,K*%
%TO.N,Net-(Boost_IC1-VOUT)*%
X146322000Y-102870000D03*
%TO.P,D1,2,A*%
%TO.N,Net-(Boost_IC1-SW)*%
X142222000Y-102870000D03*
%TD*%
D27*
%TO.P,R1,1*%
%TO.N,Net-(Boost_IC1-FB)*%
X141732000Y-95692000D03*
%TO.P,R1,2*%
%TO.N,Net-(Boost_IC1-VOUT)*%
X141732000Y-93792000D03*
%TD*%
D28*
%TO.P,C3,1*%
%TO.N,Earth*%
X132334000Y-85574000D03*
%TO.P,C3,2*%
%TO.N,Net-(Buck_IC1-VI)*%
X132334000Y-82574000D03*
%TD*%
D11*
%TO.P,J2,1,Pin_1*%
%TO.N,Earth*%
X113792000Y-71120000D03*
%TD*%
D29*
%TO.P,C1,1*%
%TO.N,Net-(Boost_IC1-VIN)*%
X131064000Y-95456000D03*
%TO.P,C1,2*%
%TO.N,Earth*%
X131064000Y-97076000D03*
%TD*%
D30*
%TO.P,L1,1,1*%
%TO.N,Net-(Boost_IC1-VIN)*%
X129032000Y-102870000D03*
%TO.P,L1,2,2*%
%TO.N,Net-(Boost_IC1-SW)*%
X133096000Y-102870000D03*
%TD*%
D31*
%TO.P,L2,1,1*%
%TO.N,Net-(Buck_IC1-SW)*%
X150876000Y-79502000D03*
%TO.P,L2,2,2*%
%TO.N,Net-(Buck_IC1-FB)*%
X150876000Y-86106000D03*
%TD*%
D11*
%TO.P,J6,1,Pin_1*%
%TO.N,Earth*%
X175260000Y-71120000D03*
%TD*%
D32*
%TO.P,C2,1*%
%TO.N,Earth*%
X151000000Y-105650000D03*
%TO.P,C2,2*%
%TO.N,Net-(Boost_IC1-VOUT)*%
X151000000Y-102350000D03*
%TD*%
D18*
%TO.P,J1,1,Pin_1*%
%TO.N,Net-(F1-OUT)*%
X168000000Y-103000000D03*
D19*
%TO.P,J1,2,Pin_2*%
%TO.N,Net-(F2-OUT)*%
X163000000Y-103000000D03*
%TO.P,J1,3,Pin_3*%
%TO.N,Earth*%
X158000000Y-103000000D03*
%TD*%
D33*
%TO.N,Net-(Boost_IC1-SW)*%
X133096000Y-102870000D02*
X138176000Y-102870000D01*
X133670000Y-102296000D02*
X133096000Y-102870000D01*
X133670000Y-97312000D02*
X133670000Y-102296000D01*
X138176000Y-102870000D02*
X142222000Y-102870000D01*
D34*
%TO.N,Earth*%
X127000000Y-71374000D02*
X126500000Y-70874000D01*
D33*
X158000000Y-103000000D02*
X155350000Y-105650000D01*
D34*
X121158000Y-72136000D02*
X121158000Y-78486000D01*
D33*
X137000000Y-107000000D02*
X124000000Y-107000000D01*
D34*
X120142000Y-79502000D02*
X114554000Y-79502000D01*
X128000000Y-77904000D02*
X128000000Y-76438000D01*
D35*
X165460000Y-82540000D02*
X165460000Y-81000000D01*
D34*
X113284000Y-89125000D02*
X116789000Y-92630000D01*
D35*
X164000000Y-84000000D02*
X165460000Y-82540000D01*
D33*
X151000000Y-105650000D02*
X138350000Y-105650000D01*
D34*
X127000000Y-73480000D02*
X127000000Y-71374000D01*
D33*
X138350000Y-105650000D02*
X137000000Y-107000000D01*
X155350000Y-105650000D02*
X151000000Y-105650000D01*
D34*
X126500000Y-73480000D02*
X126500000Y-70874000D01*
D33*
X120000000Y-95841000D02*
X116789000Y-92630000D01*
D34*
X125984000Y-70358000D02*
X122936000Y-70358000D01*
D35*
X157950000Y-95350000D02*
X153350000Y-95350000D01*
D34*
X122936000Y-70358000D02*
X121158000Y-72136000D01*
D35*
X164350000Y-86350000D02*
X164000000Y-86000000D01*
D34*
X113284000Y-80772000D02*
X113284000Y-89125000D01*
X126500000Y-70874000D02*
X125984000Y-70358000D01*
D33*
X124000000Y-107000000D02*
X120000000Y-103000000D01*
D34*
X114554000Y-79502000D02*
X113284000Y-80772000D01*
D35*
X164000000Y-86000000D02*
X164000000Y-84000000D01*
X153350000Y-95350000D02*
X151720000Y-93720000D01*
D34*
X128000000Y-76438000D02*
X127000000Y-75438000D01*
X127000000Y-75438000D02*
X127000000Y-73480000D01*
D35*
X165900000Y-86350000D02*
X164350000Y-86350000D01*
D34*
X121158000Y-78486000D02*
X120142000Y-79502000D01*
D33*
X120000000Y-103000000D02*
X120000000Y-95841000D01*
D35*
X151720000Y-93720000D02*
X151720000Y-91000000D01*
D33*
%TO.N,Net-(Boost_IC1-FB)*%
X135570000Y-98740000D02*
X136398000Y-99568000D01*
X138176000Y-99568000D02*
X140220700Y-97523300D01*
X135570000Y-97312000D02*
X135570000Y-98740000D01*
X141732000Y-97523300D02*
X141732000Y-95692000D01*
X136398000Y-99568000D02*
X138176000Y-99568000D01*
X140220700Y-97523300D02*
X141732000Y-97523300D01*
D34*
%TO.N,Net-(Boost_IC1-~{SHDN})*%
X135890000Y-93472000D02*
X136360000Y-93472000D01*
X136360000Y-93472000D02*
X137630000Y-94742000D01*
X135570000Y-94712000D02*
X135570000Y-93792000D01*
X135570000Y-93792000D02*
X135890000Y-93472000D01*
D33*
%TO.N,Net-(Boost_IC1-VOUT)*%
X141732000Y-90678000D02*
X141732000Y-93792000D01*
X146322000Y-102870000D02*
X150480000Y-102870000D01*
X134620000Y-90424000D02*
X135890000Y-89154000D01*
X141732000Y-93792000D02*
X145608000Y-93792000D01*
X140208000Y-89154000D02*
X141732000Y-90678000D01*
X150480000Y-102870000D02*
X151000000Y-102350000D01*
X135890000Y-89154000D02*
X140208000Y-89154000D01*
X134620000Y-94712000D02*
X134620000Y-90424000D01*
X151000000Y-102350000D02*
X151000000Y-98000000D01*
X146322000Y-94506000D02*
X146322000Y-102870000D01*
X145608000Y-93792000D02*
X146322000Y-94506000D01*
%TO.N,Net-(Boost_IC1-VIN)*%
X127762000Y-91181000D02*
X130551000Y-91181000D01*
D36*
X116789000Y-87630000D02*
X119634000Y-87630000D01*
D33*
X129032000Y-102870000D02*
X127762000Y-102870000D01*
X126492000Y-96520000D02*
X127556000Y-95456000D01*
X131064000Y-95456000D02*
X131064000Y-92456000D01*
D36*
X123185000Y-91181000D02*
X127762000Y-91181000D01*
D33*
X126492000Y-101600000D02*
X126492000Y-98298000D01*
X130556000Y-91186000D02*
X132334000Y-91186000D01*
X132334000Y-91186000D02*
X133670000Y-92522000D01*
X127762000Y-102870000D02*
X126492000Y-101600000D01*
D36*
X119634000Y-87630000D02*
X123185000Y-91181000D01*
D33*
X133670000Y-92522000D02*
X133670000Y-94712000D01*
X130551000Y-91181000D02*
X130556000Y-91186000D01*
X131064000Y-92456000D02*
X132334000Y-91186000D01*
X127556000Y-95456000D02*
X131064000Y-95456000D01*
X126492000Y-96520000D02*
X126492000Y-98298000D01*
D34*
%TO.N,Net-(Buck_IC1-FB)*%
X141966000Y-84516000D02*
X143190000Y-84516000D01*
X143190000Y-84516000D02*
X144780000Y-86106000D01*
D37*
X144320000Y-86106000D02*
X143558000Y-86868000D01*
D33*
X150982000Y-86000000D02*
X150876000Y-86106000D01*
D34*
X144780000Y-86106000D02*
X150876000Y-86106000D01*
D37*
X150876000Y-86106000D02*
X144320000Y-86106000D01*
D33*
X161000000Y-86000000D02*
X150982000Y-86000000D01*
D37*
%TO.N,Net-(Buck_IC1-SW)*%
X146558000Y-79502000D02*
X150876000Y-79502000D01*
X141966000Y-82616000D02*
X143444000Y-82616000D01*
X143444000Y-82616000D02*
X146558000Y-79502000D01*
D34*
%TO.N,Net-(J4-Pin_1)*%
X125476000Y-71882000D02*
X124460000Y-71882000D01*
X124460000Y-71882000D02*
X123952000Y-72390000D01*
X124764800Y-82550000D02*
X125135470Y-82179327D01*
D36*
X121920000Y-82630000D02*
X124684800Y-82630000D01*
D34*
X126000000Y-77904000D02*
X126000000Y-81314800D01*
D36*
X116789000Y-82630000D02*
X121920000Y-82630000D01*
X124684800Y-82630000D02*
X124764800Y-82550000D01*
D34*
X126000000Y-81314800D02*
X124764800Y-82550000D01*
X126000000Y-72406000D02*
X125476000Y-71882000D01*
X126000000Y-78470964D02*
X126000000Y-78372000D01*
X123952000Y-80598000D02*
X121920000Y-82630000D01*
X123952000Y-72390000D02*
X123952000Y-80598000D01*
X126000000Y-73480000D02*
X126000000Y-72406000D01*
%TO.N,Net-(Buck_IC1-EN)*%
X137988000Y-84516000D02*
X136652000Y-85852000D01*
X139466000Y-84516000D02*
X137988000Y-84516000D01*
X136652000Y-85852000D02*
X136652000Y-86360000D01*
D38*
%TO.N,Net-(Buck_IC1-VI)*%
X127762000Y-82600800D02*
X127711200Y-82550000D01*
D37*
X136398000Y-82550000D02*
X132358000Y-82550000D01*
X127711200Y-82550000D02*
X132310000Y-82550000D01*
X136464000Y-82616000D02*
X136398000Y-82550000D01*
D34*
X127348527Y-82187327D02*
X127348528Y-82187328D01*
D37*
X139466000Y-82616000D02*
X136464000Y-82616000D01*
D34*
X126500000Y-81338800D02*
X127711200Y-82550000D01*
D37*
X132376000Y-82616000D02*
X132334000Y-82574000D01*
D38*
X127762000Y-88641000D02*
X127762000Y-82600800D01*
D37*
X132358000Y-82550000D02*
X132334000Y-82574000D01*
D34*
X126500000Y-77904000D02*
X126500000Y-81338800D01*
D37*
X132310000Y-82550000D02*
X132334000Y-82574000D01*
X127735200Y-82574000D02*
X127711200Y-82550000D01*
D34*
%TO.N,Net-(J8-Pin_1)*%
X130048000Y-80518000D02*
X131582000Y-78984000D01*
X131582000Y-78984000D02*
X132588000Y-78984000D01*
X127000000Y-77904000D02*
X127000000Y-79756000D01*
X127000000Y-79756000D02*
X127762000Y-80518000D01*
X127762000Y-80518000D02*
X130048000Y-80518000D01*
%TO.N,Net-(J8-Pin_2)*%
X130302000Y-79502000D02*
X130302000Y-77470000D01*
X130302000Y-77470000D02*
X131328000Y-76444000D01*
X131328000Y-76444000D02*
X132588000Y-76444000D01*
X127500000Y-77904000D02*
X127500000Y-79494000D01*
X127500000Y-79494000D02*
X128016000Y-80010000D01*
X129794000Y-80010000D02*
X130302000Y-79502000D01*
X128016000Y-80010000D02*
X129794000Y-80010000D01*
%TO.N,Net-(J8-Pin_3)*%
X128000000Y-72406000D02*
X128270000Y-72136000D01*
X128270000Y-72136000D02*
X130302000Y-72136000D01*
X130810000Y-73152000D02*
X131562000Y-73904000D01*
X130810000Y-72644000D02*
X130810000Y-73152000D01*
X128000000Y-73480000D02*
X128000000Y-72406000D01*
X130302000Y-72136000D02*
X130810000Y-72644000D01*
X131562000Y-73904000D02*
X132588000Y-73904000D01*
%TO.N,Net-(J8-Pin_4)*%
X127500000Y-72144000D02*
X128280000Y-71364000D01*
X127500000Y-73480000D02*
X127500000Y-72144000D01*
X128280000Y-71364000D02*
X132588000Y-71364000D01*
%TO.N,Net-(J9-Pin_1)*%
X139230000Y-92494000D02*
X138430000Y-91694000D01*
X139230000Y-94742000D02*
X139230000Y-92494000D01*
D35*
%TO.N,Net-(F1-OUT)*%
X168000000Y-101000000D02*
X168000000Y-103000000D01*
X168650000Y-87650000D02*
X170000000Y-89000000D01*
X170000000Y-89000000D02*
X170000000Y-99000000D01*
X170000000Y-99000000D02*
X168000000Y-101000000D01*
X168000000Y-87650000D02*
X168650000Y-87650000D01*
%TO.N,Net-(F1-OVLO)*%
X168000000Y-87000000D02*
X169000000Y-87000000D01*
X170540000Y-85460000D02*
X170540000Y-81000000D01*
X169000000Y-87000000D02*
X170540000Y-85460000D01*
%TO.N,Net-(F1-ILIM)*%
X168000000Y-86350000D02*
X168650000Y-86350000D01*
X169000000Y-86000000D02*
X169000000Y-84000000D01*
X168650000Y-86350000D02*
X169000000Y-86000000D01*
X168000000Y-83000000D02*
X168000000Y-81000000D01*
X169000000Y-84000000D02*
X168000000Y-83000000D01*
%TO.N,Net-(F1-EN{slash}UVLO)*%
X162920000Y-85920000D02*
X162920000Y-81000000D01*
X165900000Y-87000000D02*
X164000000Y-87000000D01*
X164000000Y-87000000D02*
X162920000Y-85920000D01*
%TO.N,Net-(F1-IN)*%
X164460000Y-88540000D02*
X161000000Y-88540000D01*
X165900000Y-87650000D02*
X165350000Y-87650000D01*
X165350000Y-87650000D02*
X164460000Y-88540000D01*
%TO.N,Net-(F2-OUT)*%
X161650000Y-96650000D02*
X163000000Y-98000000D01*
X163000000Y-98000000D02*
X163000000Y-103000000D01*
X160050000Y-96650000D02*
X161650000Y-96650000D01*
%TO.N,Net-(F2-OVLO)*%
X160050000Y-96000000D02*
X163000000Y-96000000D01*
X161000000Y-92000000D02*
X160000000Y-91000000D01*
X162000000Y-92000000D02*
X161000000Y-92000000D01*
X164000000Y-94000000D02*
X162000000Y-92000000D01*
X160000000Y-91000000D02*
X156800000Y-91000000D01*
X163000000Y-96000000D02*
X164000000Y-95000000D01*
X164000000Y-95000000D02*
X164000000Y-94000000D01*
%TO.N,Net-(F2-ILIM)*%
X155000000Y-93000000D02*
X154260000Y-92260000D01*
X161000000Y-93000000D02*
X155000000Y-93000000D01*
X162000000Y-95000000D02*
X162000000Y-94000000D01*
X154260000Y-92260000D02*
X154260000Y-91000000D01*
X160050000Y-95350000D02*
X161650000Y-95350000D01*
X161650000Y-95350000D02*
X162000000Y-95000000D01*
X162000000Y-94000000D02*
X161000000Y-93000000D01*
%TO.N,Net-(F2-EN{slash}UVLO)*%
X157950000Y-96000000D02*
X152000000Y-96000000D01*
X152000000Y-96000000D02*
X149180000Y-93180000D01*
X149180000Y-93180000D02*
X149180000Y-91000000D01*
%TO.N,Net-(F2-IN)*%
X156350000Y-96650000D02*
X157950000Y-96650000D01*
X153540000Y-98000000D02*
X155000000Y-98000000D01*
X155000000Y-98000000D02*
X156350000Y-96650000D01*
%TD*%
%TA.AperFunction,Conductor*%
%TO.N,Earth*%
G36*
X125229272Y-72535185D02*
G01*
X125249914Y-72551819D01*
X125306874Y-72608779D01*
X125340359Y-72670102D01*
X125342483Y-72709711D01*
X125341500Y-72718851D01*
X125341500Y-74241154D01*
X125348011Y-74301702D01*
X125348011Y-74301704D01*
X125379546Y-74386250D01*
X125399111Y-74438704D01*
X125486739Y-74555761D01*
X125603796Y-74643389D01*
X125740799Y-74694489D01*
X125768050Y-74697418D01*
X125801345Y-74700999D01*
X125801362Y-74701000D01*
X126198638Y-74701000D01*
X126198654Y-74700999D01*
X126225692Y-74698091D01*
X126259201Y-74694489D01*
X126396204Y-74643389D01*
X126513261Y-74555761D01*
X126600889Y-74438704D01*
X126633818Y-74350417D01*
X126675690Y-74294484D01*
X126741155Y-74270068D01*
X126809428Y-74284920D01*
X126858833Y-74334326D01*
X126866181Y-74350417D01*
X126879546Y-74386250D01*
X126899111Y-74438704D01*
X126986739Y-74555761D01*
X127103796Y-74643389D01*
X127240799Y-74694489D01*
X127268050Y-74697418D01*
X127301345Y-74700999D01*
X127301362Y-74701000D01*
X127698628Y-74701000D01*
X127698638Y-74701000D01*
X127736745Y-74696903D01*
X127763250Y-74696903D01*
X127801345Y-74700999D01*
X127801362Y-74701000D01*
X128198638Y-74701000D01*
X128198654Y-74700999D01*
X128225692Y-74698091D01*
X128259201Y-74694489D01*
X128396204Y-74643389D01*
X128513261Y-74555761D01*
X128600889Y-74438704D01*
X128651989Y-74301701D01*
X128655591Y-74268192D01*
X128658499Y-74241154D01*
X128658499Y-74241147D01*
X128658500Y-74241138D01*
X128658500Y-72893499D01*
X128678185Y-72826461D01*
X128730989Y-72780706D01*
X128782500Y-72769500D01*
X129988234Y-72769500D01*
X130055273Y-72789185D01*
X130075915Y-72805819D01*
X130140181Y-72870085D01*
X130173666Y-72931408D01*
X130176500Y-72957766D01*
X130176500Y-73068366D01*
X130174761Y-73084113D01*
X130175032Y-73084139D01*
X130174297Y-73091906D01*
X130176469Y-73160990D01*
X130176500Y-73162938D01*
X130176500Y-73191859D01*
X130177384Y-73198856D01*
X130177842Y-73204679D01*
X130179326Y-73251889D01*
X130179327Y-73251891D01*
X130185022Y-73271495D01*
X130188967Y-73290542D01*
X130191526Y-73310797D01*
X130191527Y-73310800D01*
X130191528Y-73310803D01*
X130208914Y-73354716D01*
X130210806Y-73360244D01*
X130223981Y-73405592D01*
X130234372Y-73423162D01*
X130242932Y-73440635D01*
X130250447Y-73459617D01*
X130278209Y-73497827D01*
X130281416Y-73502710D01*
X130305458Y-73543362D01*
X130305462Y-73543366D01*
X130319889Y-73557793D01*
X130332526Y-73572588D01*
X130344528Y-73589107D01*
X130380931Y-73619222D01*
X130385231Y-73623135D01*
X130890455Y-74128359D01*
X131054910Y-74292814D01*
X131064816Y-74305178D01*
X131065026Y-74305005D01*
X131069997Y-74311013D01*
X131070000Y-74311018D01*
X131120435Y-74358379D01*
X131121744Y-74359648D01*
X131132001Y-74369905D01*
X131142225Y-74380130D01*
X131142229Y-74380133D01*
X131142231Y-74380135D01*
X131147805Y-74384458D01*
X131152247Y-74388252D01*
X131186679Y-74420586D01*
X131186683Y-74420589D01*
X131204563Y-74430418D01*
X131220827Y-74441101D01*
X131236960Y-74453614D01*
X131280301Y-74472369D01*
X131285550Y-74474941D01*
X131305797Y-74486071D01*
X131326940Y-74497695D01*
X131326941Y-74497695D01*
X131333775Y-74501452D01*
X131333060Y-74502751D01*
X131381294Y-74540380D01*
X131387325Y-74550014D01*
X131512276Y-74741265D01*
X131512284Y-74741276D01*
X131664756Y-74906902D01*
X131664760Y-74906906D01*
X131842424Y-75045189D01*
X131878930Y-75064945D01*
X131928519Y-75114162D01*
X131943629Y-75182378D01*
X131919459Y-75247934D01*
X131878932Y-75283052D01*
X131842432Y-75302805D01*
X131842422Y-75302812D01*
X131664761Y-75441092D01*
X131664756Y-75441097D01*
X131512284Y-75606723D01*
X131512283Y-75606726D01*
X131512281Y-75606727D01*
X131512278Y-75606732D01*
X131415851Y-75754324D01*
X131362707Y-75799678D01*
X131312045Y-75810500D01*
X131288137Y-75810500D01*
X131281143Y-75811384D01*
X131275320Y-75811842D01*
X131228111Y-75813326D01*
X131228108Y-75813327D01*
X131208505Y-75819022D01*
X131189459Y-75822966D01*
X131169203Y-75825526D01*
X131169201Y-75825526D01*
X131169199Y-75825527D01*
X131125282Y-75842914D01*
X131119756Y-75844806D01*
X131074406Y-75857982D01*
X131056831Y-75868375D01*
X131039373Y-75876928D01*
X131020383Y-75884448D01*
X130982172Y-75912208D01*
X130977290Y-75915415D01*
X130936637Y-75939457D01*
X130922201Y-75953894D01*
X130907415Y-75966523D01*
X130890893Y-75978528D01*
X130890891Y-75978529D01*
X130890891Y-75978530D01*
X130890888Y-75978532D01*
X130860780Y-76014925D01*
X130856849Y-76019246D01*
X129913182Y-76962912D01*
X129900820Y-76972816D01*
X129900994Y-76973026D01*
X129894983Y-76977998D01*
X129847672Y-77028378D01*
X129846319Y-77029774D01*
X129825873Y-77050221D01*
X129825857Y-77050239D01*
X129821531Y-77055814D01*
X129817747Y-77060244D01*
X129785419Y-77094671D01*
X129785412Y-77094681D01*
X129775579Y-77112567D01*
X129764903Y-77128820D01*
X129752386Y-77144957D01*
X129752385Y-77144959D01*
X129733625Y-77188310D01*
X129731055Y-77193556D01*
X129708303Y-77234941D01*
X129708303Y-77234942D01*
X129703225Y-77254720D01*
X129696925Y-77273122D01*
X129688818Y-77291857D01*
X129681431Y-77338495D01*
X129680246Y-77344216D01*
X129668500Y-77389965D01*
X129668500Y-77410384D01*
X129666973Y-77429783D01*
X129663780Y-77449941D01*
X129663780Y-77449942D01*
X129668225Y-77496966D01*
X129668500Y-77502804D01*
X129668500Y-79188231D01*
X129648815Y-79255270D01*
X129632182Y-79275912D01*
X129567914Y-79340181D01*
X129506591Y-79373666D01*
X129480232Y-79376500D01*
X128329768Y-79376500D01*
X128262729Y-79356815D01*
X128242086Y-79340181D01*
X128169818Y-79267912D01*
X128136334Y-79206588D01*
X128133500Y-79180231D01*
X128133500Y-78797643D01*
X128141318Y-78754310D01*
X128151989Y-78725701D01*
X128153485Y-78711777D01*
X128158499Y-78665154D01*
X128158500Y-78665137D01*
X128158500Y-77142862D01*
X128158499Y-77142845D01*
X128153320Y-77094681D01*
X128151989Y-77082299D01*
X128142970Y-77058119D01*
X128113086Y-76977998D01*
X128100889Y-76945296D01*
X128013261Y-76828239D01*
X127896204Y-76740611D01*
X127896203Y-76740610D01*
X127759203Y-76689511D01*
X127698654Y-76683000D01*
X127698638Y-76683000D01*
X127301362Y-76683000D01*
X127301355Y-76683000D01*
X127263252Y-76687096D01*
X127236748Y-76687096D01*
X127198644Y-76683000D01*
X127198638Y-76683000D01*
X126801362Y-76683000D01*
X126801355Y-76683000D01*
X126763252Y-76687096D01*
X126736748Y-76687096D01*
X126698644Y-76683000D01*
X126698638Y-76683000D01*
X126301362Y-76683000D01*
X126301355Y-76683000D01*
X126263252Y-76687096D01*
X126236748Y-76687096D01*
X126198644Y-76683000D01*
X126198638Y-76683000D01*
X125801362Y-76683000D01*
X125801345Y-76683000D01*
X125740797Y-76689511D01*
X125740795Y-76689511D01*
X125603795Y-76740611D01*
X125486739Y-76828239D01*
X125399111Y-76945295D01*
X125348011Y-77082295D01*
X125348011Y-77082297D01*
X125341500Y-77142845D01*
X125341500Y-78665154D01*
X125348010Y-78725697D01*
X125348012Y-78725704D01*
X125358681Y-78754309D01*
X125366499Y-78797642D01*
X125366499Y-81001032D01*
X125346814Y-81068071D01*
X125330182Y-81088711D01*
X125290016Y-81128879D01*
X125228694Y-81162366D01*
X125202333Y-81165200D01*
X124572541Y-81165200D01*
X124505502Y-81145515D01*
X124459747Y-81092711D01*
X124449803Y-81023553D01*
X124466946Y-80981326D01*
X124464826Y-80980161D01*
X124472204Y-80966739D01*
X124478419Y-80955432D01*
X124489102Y-80939169D01*
X124501614Y-80923041D01*
X124520371Y-80879691D01*
X124522941Y-80874447D01*
X124545693Y-80833064D01*
X124545693Y-80833063D01*
X124545695Y-80833060D01*
X124550774Y-80813273D01*
X124557070Y-80794885D01*
X124565181Y-80776145D01*
X124572569Y-80729497D01*
X124573751Y-80723786D01*
X124585500Y-80678030D01*
X124585500Y-80657614D01*
X124587027Y-80638214D01*
X124590220Y-80618057D01*
X124585772Y-80571011D01*
X124585499Y-80565217D01*
X124585499Y-72703766D01*
X124605184Y-72636728D01*
X124621818Y-72616085D01*
X124686086Y-72551818D01*
X124747410Y-72518334D01*
X124773767Y-72515500D01*
X125162233Y-72515500D01*
X125229272Y-72535185D01*
G37*
%TD.AperFunction*%
%TA.AperFunction,Conductor*%
G36*
X177116177Y-68600185D02*
G01*
X177136819Y-68616819D01*
X177763182Y-69243182D01*
X177796666Y-69304503D01*
X177799500Y-69330861D01*
X177799500Y-108469138D01*
X177779815Y-108536177D01*
X177763181Y-108556819D01*
X177136819Y-109183181D01*
X177075496Y-109216666D01*
X177049138Y-109219500D01*
X109970862Y-109219500D01*
X109903823Y-109199815D01*
X109883181Y-109183181D01*
X109256816Y-108556816D01*
X109223333Y-108495496D01*
X109220500Y-108469147D01*
X109220500Y-87630004D01*
X114975429Y-87630004D01*
X114995683Y-87900289D01*
X114995684Y-87900294D01*
X114995684Y-87900298D01*
X114995685Y-87900299D01*
X115003250Y-87933442D01*
X115055997Y-88164545D01*
X115055999Y-88164554D01*
X115056001Y-88164559D01*
X115155029Y-88416879D01*
X115290557Y-88651621D01*
X115459558Y-88863542D01*
X115658257Y-89047907D01*
X115882215Y-89200599D01*
X115882218Y-89200600D01*
X115882219Y-89200601D01*
X115912614Y-89215238D01*
X116126428Y-89318206D01*
X116385442Y-89398101D01*
X116385443Y-89398101D01*
X116385446Y-89398102D01*
X116653464Y-89438499D01*
X116653469Y-89438499D01*
X116653472Y-89438500D01*
X116653473Y-89438500D01*
X116924527Y-89438500D01*
X116924528Y-89438500D01*
X116924535Y-89438499D01*
X117192553Y-89398102D01*
X117192554Y-89398101D01*
X117192558Y-89398101D01*
X117451572Y-89318206D01*
X117664221Y-89215800D01*
X117695778Y-89200603D01*
X117695778Y-89200602D01*
X117695786Y-89200599D01*
X117919743Y-89047907D01*
X118118442Y-88863542D01*
X118180926Y-88785188D01*
X118238115Y-88745047D01*
X118277874Y-88738500D01*
X119123483Y-88738500D01*
X119190522Y-88758185D01*
X119211163Y-88774818D01*
X120771241Y-90334897D01*
X122328406Y-91892062D01*
X122341730Y-91907813D01*
X122343441Y-91910215D01*
X122383110Y-91948039D01*
X122409968Y-91973649D01*
X122410984Y-91974640D01*
X122438240Y-92001896D01*
X122438510Y-92002166D01*
X122446987Y-92009165D01*
X122450301Y-92012106D01*
X122496654Y-92056303D01*
X122527032Y-92075825D01*
X122532994Y-92080178D01*
X122560851Y-92103179D01*
X122608980Y-92129459D01*
X122617064Y-92133873D01*
X122620862Y-92136126D01*
X122646170Y-92152391D01*
X122674742Y-92170754D01*
X122674746Y-92170756D01*
X122708280Y-92184181D01*
X122714956Y-92187326D01*
X122746654Y-92204635D01*
X122807678Y-92224142D01*
X122811812Y-92225629D01*
X122871279Y-92249436D01*
X122906748Y-92256271D01*
X122913893Y-92258096D01*
X122931417Y-92263697D01*
X122948299Y-92269094D01*
X122993395Y-92274485D01*
X123011882Y-92276696D01*
X123016252Y-92277377D01*
X123079151Y-92289500D01*
X123115276Y-92289500D01*
X123122642Y-92289939D01*
X123130449Y-92290872D01*
X123158500Y-92294226D01*
X123222376Y-92289657D01*
X123226797Y-92289500D01*
X126931856Y-92289500D01*
X126998895Y-92309185D01*
X127008019Y-92315647D01*
X127016424Y-92322189D01*
X127016425Y-92322189D01*
X127016427Y-92322191D01*
X127113101Y-92374508D01*
X127214426Y-92429342D01*
X127427365Y-92502444D01*
X127649431Y-92539500D01*
X127874569Y-92539500D01*
X128096635Y-92502444D01*
X128309574Y-92429342D01*
X128507576Y-92322189D01*
X128685240Y-92183906D01*
X128837722Y-92018268D01*
X128837727Y-92018260D01*
X128840875Y-92014218D01*
X128842363Y-92015376D01*
X128889284Y-91975326D01*
X128939956Y-91964500D01*
X130231139Y-91964500D01*
X130298178Y-91984185D01*
X130343933Y-92036989D01*
X130353877Y-92106147D01*
X130348179Y-92129459D01*
X130340146Y-92152415D01*
X130337484Y-92158839D01*
X130319787Y-92195589D01*
X130310709Y-92235359D01*
X130308784Y-92242041D01*
X130295310Y-92280549D01*
X130290740Y-92321093D01*
X130289576Y-92327947D01*
X130280501Y-92367712D01*
X130280500Y-92367723D01*
X130280500Y-92411996D01*
X130280499Y-94335275D01*
X130260814Y-94402315D01*
X130208010Y-94448069D01*
X130199834Y-94451456D01*
X130082795Y-94495111D01*
X129965739Y-94582739D01*
X129935742Y-94622811D01*
X129879808Y-94664682D01*
X129836475Y-94672500D01*
X127644279Y-94672500D01*
X127467721Y-94672500D01*
X127467719Y-94672500D01*
X127467712Y-94672501D01*
X127427947Y-94681576D01*
X127421093Y-94682740D01*
X127380549Y-94687310D01*
X127342041Y-94700784D01*
X127335359Y-94702709D01*
X127295587Y-94711788D01*
X127258828Y-94729488D01*
X127252405Y-94732149D01*
X127213904Y-94745622D01*
X127213898Y-94745625D01*
X127179361Y-94767325D01*
X127173275Y-94770689D01*
X127136513Y-94788394D01*
X127136509Y-94788397D01*
X127104614Y-94813831D01*
X127098946Y-94817853D01*
X127092921Y-94821640D01*
X127064402Y-94839560D01*
X126996780Y-94907177D01*
X126996777Y-94907184D01*
X125941820Y-95962140D01*
X125941816Y-95962146D01*
X125875561Y-96028400D01*
X125875558Y-96028404D01*
X125853853Y-96062946D01*
X125849830Y-96068616D01*
X125824391Y-96100517D01*
X125806693Y-96137267D01*
X125803329Y-96143353D01*
X125781626Y-96177895D01*
X125781621Y-96177906D01*
X125768145Y-96216415D01*
X125765484Y-96222839D01*
X125747787Y-96259589D01*
X125738709Y-96299359D01*
X125736784Y-96306041D01*
X125723310Y-96344549D01*
X125718740Y-96385093D01*
X125717576Y-96391947D01*
X125708501Y-96431712D01*
X125708500Y-96431723D01*
X125708500Y-96931680D01*
X125688815Y-96998719D01*
X125636011Y-97044474D01*
X125627835Y-97047861D01*
X125495795Y-97097111D01*
X125378739Y-97184739D01*
X125291111Y-97301795D01*
X125240011Y-97438795D01*
X125240011Y-97438797D01*
X125233500Y-97499345D01*
X125233500Y-99096654D01*
X125240011Y-99157202D01*
X125240011Y-99157204D01*
X125291110Y-99294204D01*
X125291111Y-99294204D01*
X125378739Y-99411261D01*
X125495796Y-99498889D01*
X125495795Y-99498889D01*
X125627834Y-99548138D01*
X125683768Y-99590009D01*
X125708184Y-99655474D01*
X125708500Y-99664319D01*
X125708500Y-101688276D01*
X125708501Y-101688286D01*
X125717575Y-101728042D01*
X125718740Y-101734900D01*
X125723310Y-101775448D01*
X125723311Y-101775453D01*
X125736783Y-101813953D01*
X125738708Y-101820637D01*
X125747787Y-101860410D01*
X125754234Y-101873796D01*
X125765490Y-101897172D01*
X125768149Y-101903591D01*
X125781623Y-101942098D01*
X125803329Y-101976644D01*
X125806694Y-101982733D01*
X125824393Y-102019484D01*
X125824394Y-102019485D01*
X125849831Y-102051383D01*
X125853852Y-102057050D01*
X125865315Y-102075294D01*
X125875559Y-102091596D01*
X125906865Y-102122903D01*
X125906866Y-102122903D01*
X125924304Y-102140342D01*
X125924307Y-102140344D01*
X127270406Y-103486443D01*
X127304941Y-103508142D01*
X127310610Y-103512164D01*
X127342514Y-103537606D01*
X127379276Y-103555309D01*
X127385355Y-103558669D01*
X127419901Y-103580376D01*
X127449857Y-103590858D01*
X127506630Y-103631577D01*
X127532378Y-103696530D01*
X127532900Y-103707898D01*
X127532900Y-104315654D01*
X127539411Y-104376202D01*
X127539411Y-104376204D01*
X127590511Y-104513203D01*
X127590511Y-104513204D01*
X127678139Y-104630261D01*
X127795196Y-104717889D01*
X127883669Y-104750888D01*
X127929815Y-104768100D01*
X127932199Y-104768989D01*
X127959450Y-104771918D01*
X127992745Y-104775499D01*
X127992762Y-104775500D01*
X130071238Y-104775500D01*
X130071254Y-104775499D01*
X130098292Y-104772591D01*
X130131801Y-104768989D01*
X130134185Y-104768100D01*
X130180328Y-104750889D01*
X130268804Y-104717889D01*
X130385861Y-104630261D01*
X130473489Y-104513204D01*
X130524589Y-104376201D01*
X130528191Y-104342692D01*
X130531099Y-104315654D01*
X130531100Y-104315637D01*
X131596899Y-104315637D01*
X131596900Y-104315654D01*
X131603411Y-104376202D01*
X131603411Y-104376204D01*
X131654511Y-104513203D01*
X131654511Y-104513204D01*
X131742139Y-104630261D01*
X131859196Y-104717889D01*
X131947669Y-104750888D01*
X131993815Y-104768100D01*
X131996199Y-104768989D01*
X132023450Y-104771918D01*
X132056745Y-104775499D01*
X132056762Y-104775500D01*
X134135238Y-104775500D01*
X134135254Y-104775499D01*
X134162292Y-104772591D01*
X134195801Y-104768989D01*
X134198185Y-104768100D01*
X134244328Y-104750889D01*
X134332804Y-104717889D01*
X134449861Y-104630261D01*
X134537489Y-104513204D01*
X134588589Y-104376201D01*
X134592191Y-104342692D01*
X134595099Y-104315654D01*
X134595100Y-104315637D01*
X134595100Y-103777500D01*
X134614785Y-103710461D01*
X134667589Y-103664706D01*
X134719100Y-103653500D01*
X136809681Y-103653500D01*
X136876720Y-103673185D01*
X136922475Y-103725989D01*
X136925862Y-103734166D01*
X136975110Y-103866203D01*
X136975111Y-103866204D01*
X137062739Y-103983261D01*
X137179796Y-104070889D01*
X137316799Y-104121989D01*
X137344050Y-104124918D01*
X137377345Y-104128499D01*
X137377362Y-104128500D01*
X138974638Y-104128500D01*
X138974654Y-104128499D01*
X139001692Y-104125591D01*
X139035201Y-104121989D01*
X139172204Y-104070889D01*
X139289261Y-103983261D01*
X139376889Y-103866204D01*
X139406476Y-103786879D01*
X139426138Y-103734166D01*
X139468009Y-103678232D01*
X139533474Y-103653816D01*
X139542319Y-103653500D01*
X140498102Y-103653500D01*
X140565141Y-103673185D01*
X140610896Y-103725989D01*
X140618780Y-103748992D01*
X140620011Y-103754201D01*
X140671111Y-103891204D01*
X140758739Y-104008261D01*
X140875796Y-104095889D01*
X141012799Y-104146989D01*
X141040050Y-104149918D01*
X141073345Y-104153499D01*
X141073362Y-104153500D01*
X143370638Y-104153500D01*
X143370654Y-104153499D01*
X143397692Y-104150591D01*
X143431201Y-104146989D01*
X143568204Y-104095889D01*
X143685261Y-104008261D01*
X143772889Y-103891204D01*
X143823989Y-103754201D01*
X143827591Y-103720692D01*
X143830499Y-103693654D01*
X143830500Y-103693637D01*
X143830500Y-102046362D01*
X143830499Y-102046345D01*
X143826143Y-102005834D01*
X143823989Y-101985799D01*
X143822845Y-101982733D01*
X143790929Y-101897163D01*
X143772889Y-101848796D01*
X143685261Y-101731739D01*
X143568204Y-101644111D01*
X143568203Y-101644110D01*
X143431203Y-101593011D01*
X143370654Y-101586500D01*
X143370638Y-101586500D01*
X141073362Y-101586500D01*
X141073345Y-101586500D01*
X141012797Y-101593011D01*
X141012795Y-101593011D01*
X140875795Y-101644111D01*
X140758739Y-101731739D01*
X140671111Y-101848795D01*
X140620011Y-101985797D01*
X140618780Y-101991008D01*
X140584210Y-102051726D01*
X140522302Y-102084116D01*
X140498102Y-102086500D01*
X139542319Y-102086500D01*
X139475280Y-102066815D01*
X139429525Y-102014011D01*
X139426138Y-102005834D01*
X139376889Y-101873796D01*
X139358173Y-101848795D01*
X139289261Y-101756739D01*
X139172204Y-101669111D01*
X139124618Y-101651362D01*
X139035203Y-101618011D01*
X138974654Y-101611500D01*
X138974638Y-101611500D01*
X137377362Y-101611500D01*
X137377345Y-101611500D01*
X137316797Y-101618011D01*
X137316795Y-101618011D01*
X137179795Y-101669111D01*
X137062739Y-101756739D01*
X136975110Y-101873796D01*
X136925862Y-102005834D01*
X136883991Y-102061768D01*
X136818526Y-102086184D01*
X136809681Y-102086500D01*
X134719100Y-102086500D01*
X134652061Y-102066815D01*
X134606306Y-102014011D01*
X134595100Y-101962500D01*
X134595100Y-101424362D01*
X134595099Y-101424345D01*
X134589943Y-101376394D01*
X134588589Y-101363799D01*
X134537489Y-101226796D01*
X134511067Y-101191500D01*
X134478233Y-101147638D01*
X134453816Y-101082174D01*
X134453500Y-101073328D01*
X134453500Y-96738362D01*
X134453499Y-96738345D01*
X134449718Y-96703185D01*
X134446989Y-96677799D01*
X134446454Y-96676365D01*
X134421572Y-96609653D01*
X134395889Y-96540796D01*
X134308261Y-96423739D01*
X134191204Y-96336111D01*
X134161412Y-96324999D01*
X134054203Y-96285011D01*
X133993654Y-96278500D01*
X133993638Y-96278500D01*
X133346362Y-96278500D01*
X133346345Y-96278500D01*
X133285797Y-96285011D01*
X133285795Y-96285011D01*
X133148795Y-96336111D01*
X133031739Y-96423739D01*
X132944111Y-96540795D01*
X132893011Y-96677795D01*
X132893011Y-96677797D01*
X132886500Y-96738345D01*
X132886500Y-100840500D01*
X132866815Y-100907539D01*
X132814011Y-100953294D01*
X132762500Y-100964500D01*
X132056745Y-100964500D01*
X131996197Y-100971011D01*
X131996195Y-100971011D01*
X131859195Y-101022111D01*
X131742139Y-101109739D01*
X131654511Y-101226795D01*
X131603411Y-101363795D01*
X131603411Y-101363797D01*
X131596900Y-101424345D01*
X131596899Y-101424362D01*
X131596899Y-104315637D01*
X130531100Y-104315637D01*
X130531100Y-101424362D01*
X130531099Y-101424345D01*
X130525943Y-101376394D01*
X130524589Y-101363799D01*
X130511175Y-101327836D01*
X130491641Y-101275463D01*
X130473489Y-101226796D01*
X130385861Y-101109739D01*
X130268804Y-101022111D01*
X130259887Y-101018785D01*
X130131803Y-100971011D01*
X130071254Y-100964500D01*
X130071238Y-100964500D01*
X127992762Y-100964500D01*
X127992745Y-100964500D01*
X127932197Y-100971011D01*
X127932195Y-100971011D01*
X127795195Y-101022111D01*
X127678139Y-101109739D01*
X127590511Y-101226795D01*
X127559142Y-101310897D01*
X127517270Y-101366830D01*
X127451806Y-101391246D01*
X127383533Y-101376394D01*
X127355280Y-101355243D01*
X127311819Y-101311782D01*
X127278334Y-101250459D01*
X127275500Y-101224101D01*
X127275500Y-99664319D01*
X127295185Y-99597280D01*
X127347989Y-99551525D01*
X127356166Y-99548138D01*
X127448525Y-99513688D01*
X127488204Y-99498889D01*
X127605261Y-99411261D01*
X127692889Y-99294204D01*
X127743137Y-99159485D01*
X127743988Y-99157204D01*
X127743988Y-99157203D01*
X127743989Y-99157201D01*
X127749628Y-99104753D01*
X127750499Y-99096654D01*
X127750499Y-99096647D01*
X127750500Y-99096638D01*
X127750500Y-97499362D01*
X127750499Y-97499352D01*
X127750499Y-97499345D01*
X127747157Y-97468270D01*
X127743989Y-97438799D01*
X127692889Y-97301796D01*
X127605261Y-97184739D01*
X127488204Y-97097111D01*
X127478957Y-97093662D01*
X127356165Y-97047861D01*
X127300232Y-97005989D01*
X127275816Y-96940524D01*
X127275500Y-96931680D01*
X127275500Y-96895898D01*
X127295185Y-96828859D01*
X127311814Y-96808222D01*
X127844218Y-96275818D01*
X127905541Y-96242334D01*
X127931899Y-96239500D01*
X129836475Y-96239500D01*
X129903514Y-96259185D01*
X129935740Y-96289187D01*
X129965739Y-96329261D01*
X130082796Y-96416889D01*
X130219799Y-96467989D01*
X130247050Y-96470918D01*
X130280345Y-96474499D01*
X130280362Y-96474500D01*
X131847638Y-96474500D01*
X131847654Y-96474499D01*
X131874692Y-96471591D01*
X131908201Y-96467989D01*
X132045204Y-96416889D01*
X132162261Y-96329261D01*
X132249889Y-96212204D01*
X132300989Y-96075201D01*
X132306020Y-96028404D01*
X132307499Y-96014654D01*
X132307500Y-96014637D01*
X132307500Y-94897362D01*
X132307499Y-94897345D01*
X132303004Y-94855540D01*
X132300989Y-94836799D01*
X132295129Y-94821089D01*
X132276331Y-94770689D01*
X132249889Y-94699796D01*
X132162261Y-94582739D01*
X132045204Y-94495111D01*
X131928165Y-94451456D01*
X131872232Y-94409584D01*
X131847816Y-94344119D01*
X131847500Y-94335275D01*
X131847500Y-93583797D01*
X131847499Y-92831894D01*
X131867184Y-92764859D01*
X131883810Y-92744226D01*
X132246319Y-92381716D01*
X132307642Y-92348232D01*
X132377334Y-92353216D01*
X132421681Y-92381717D01*
X132850181Y-92810217D01*
X132883666Y-92871540D01*
X132886500Y-92897898D01*
X132886500Y-95285654D01*
X132893011Y-95346202D01*
X132893011Y-95346204D01*
X132934178Y-95456573D01*
X132944111Y-95483204D01*
X133031739Y-95600261D01*
X133148796Y-95687889D01*
X133285799Y-95738989D01*
X133313050Y-95741918D01*
X133346345Y-95745499D01*
X133346362Y-95745500D01*
X133993638Y-95745500D01*
X133993654Y-95745499D01*
X134040277Y-95740485D01*
X134054201Y-95738989D01*
X134101666Y-95721284D01*
X134171357Y-95716300D01*
X134188329Y-95721283D01*
X134235799Y-95738989D01*
X134242760Y-95739737D01*
X134296345Y-95745499D01*
X134296362Y-95745500D01*
X134943638Y-95745500D01*
X134943654Y-95745499D01*
X134990277Y-95740485D01*
X135004201Y-95738989D01*
X135051666Y-95721284D01*
X135121357Y-95716300D01*
X135138329Y-95721283D01*
X135185799Y-95738989D01*
X135192760Y-95739737D01*
X135246345Y-95745499D01*
X135246362Y-95745500D01*
X135893638Y-95745500D01*
X135893654Y-95745499D01*
X135920692Y-95742591D01*
X135954201Y-95738989D01*
X136091204Y-95687889D01*
X136208261Y-95600261D01*
X136295889Y-95483204D01*
X136346989Y-95346201D01*
X136350591Y-95312692D01*
X136353499Y-95285654D01*
X136353500Y-95285637D01*
X136353500Y-94660766D01*
X136373185Y-94593727D01*
X136425989Y-94547972D01*
X136495147Y-94538028D01*
X136558703Y-94567053D01*
X136565166Y-94573070D01*
X136685183Y-94693087D01*
X136718666Y-94754406D01*
X136721500Y-94780765D01*
X136721500Y-95290654D01*
X136728011Y-95351202D01*
X136728011Y-95351204D01*
X136767313Y-95456573D01*
X136779111Y-95488204D01*
X136866739Y-95605261D01*
X136983796Y-95692889D01*
X137046563Y-95716300D01*
X137107393Y-95738989D01*
X137120799Y-95743989D01*
X137148050Y-95746918D01*
X137181345Y-95750499D01*
X137181362Y-95750500D01*
X138078638Y-95750500D01*
X138078654Y-95750499D01*
X138105692Y-95747591D01*
X138139201Y-95743989D01*
X138152607Y-95738989D01*
X138213437Y-95716300D01*
X138276204Y-95692889D01*
X138276204Y-95692888D01*
X138276206Y-95692888D01*
X138276207Y-95692887D01*
X138355689Y-95633387D01*
X138421153Y-95608969D01*
X138489426Y-95623820D01*
X138504311Y-95633387D01*
X138583792Y-95692887D01*
X138583793Y-95692888D01*
X138707394Y-95738989D01*
X138720799Y-95743989D01*
X138748050Y-95746918D01*
X138781345Y-95750499D01*
X138781362Y-95750500D01*
X139678638Y-95750500D01*
X139678654Y-95750499D01*
X139705692Y-95747591D01*
X139739201Y-95743989D01*
X139876204Y-95692889D01*
X139993261Y-95605261D01*
X140080889Y-95488204D01*
X140131989Y-95351201D01*
X140137836Y-95296815D01*
X140138499Y-95290654D01*
X140138500Y-95290637D01*
X140138500Y-94193362D01*
X140138499Y-94193345D01*
X140135157Y-94162270D01*
X140131989Y-94132799D01*
X140114725Y-94086514D01*
X140090160Y-94020653D01*
X140080889Y-93995796D01*
X139993261Y-93878739D01*
X139913188Y-93818797D01*
X139871318Y-93762864D01*
X139863500Y-93719531D01*
X139863500Y-92577631D01*
X139865239Y-92561879D01*
X139864968Y-92561854D01*
X139865702Y-92554092D01*
X139863531Y-92484995D01*
X139863500Y-92483047D01*
X139863500Y-92454147D01*
X139863500Y-92454144D01*
X139862614Y-92447141D01*
X139862157Y-92441322D01*
X139860674Y-92394111D01*
X139854976Y-92374499D01*
X139851033Y-92355466D01*
X139848474Y-92335203D01*
X139831085Y-92291286D01*
X139829196Y-92285766D01*
X139816018Y-92240407D01*
X139816016Y-92240403D01*
X139805768Y-92223074D01*
X139788500Y-92159953D01*
X139788500Y-90795362D01*
X139788499Y-90795345D01*
X139783466Y-90748537D01*
X139781989Y-90734799D01*
X139781265Y-90732859D01*
X139759522Y-90674564D01*
X139730889Y-90597796D01*
X139643261Y-90480739D01*
X139526204Y-90393111D01*
X139491042Y-90379996D01*
X139389203Y-90342011D01*
X139328654Y-90335500D01*
X139328638Y-90335500D01*
X137531362Y-90335500D01*
X137531345Y-90335500D01*
X137470797Y-90342011D01*
X137470795Y-90342011D01*
X137333795Y-90393111D01*
X137216739Y-90480739D01*
X137129111Y-90597795D01*
X137078011Y-90734795D01*
X137078011Y-90734797D01*
X137071500Y-90795345D01*
X137071500Y-92592654D01*
X137078011Y-92653202D01*
X137078011Y-92653204D01*
X137125505Y-92780537D01*
X137129111Y-92790204D01*
X137216739Y-92907261D01*
X137333796Y-92994889D01*
X137409995Y-93023310D01*
X137470281Y-93045796D01*
X137470799Y-93045989D01*
X137498050Y-93048918D01*
X137531345Y-93052499D01*
X137531362Y-93052500D01*
X138472500Y-93052500D01*
X138539539Y-93072185D01*
X138585294Y-93124989D01*
X138596500Y-93176500D01*
X138596500Y-93719531D01*
X138576815Y-93786570D01*
X138546810Y-93818798D01*
X138504310Y-93850613D01*
X138438846Y-93875030D01*
X138370573Y-93860178D01*
X138355689Y-93850613D01*
X138335138Y-93835229D01*
X138276204Y-93791111D01*
X138264029Y-93786570D01*
X138139203Y-93740011D01*
X138078654Y-93733500D01*
X138078638Y-93733500D01*
X137568767Y-93733500D01*
X137501728Y-93713815D01*
X137481086Y-93697181D01*
X136867088Y-93083183D01*
X136857187Y-93070823D01*
X136856977Y-93070998D01*
X136852001Y-93064984D01*
X136852000Y-93064982D01*
X136801614Y-93017667D01*
X136800239Y-93016334D01*
X136779768Y-92995863D01*
X136777792Y-92994331D01*
X136774183Y-92991531D01*
X136769750Y-92987744D01*
X136735321Y-92955414D01*
X136735319Y-92955412D01*
X136717431Y-92945578D01*
X136701170Y-92934897D01*
X136685039Y-92922384D01*
X136641693Y-92903627D01*
X136636445Y-92901056D01*
X136609024Y-92885982D01*
X136595060Y-92878305D01*
X136591660Y-92877432D01*
X136575287Y-92873228D01*
X136556881Y-92866926D01*
X136538144Y-92858818D01*
X136538146Y-92858818D01*
X136491496Y-92851430D01*
X136485781Y-92850246D01*
X136464486Y-92844779D01*
X136440032Y-92838500D01*
X136440030Y-92838500D01*
X136419616Y-92838500D01*
X136400217Y-92836973D01*
X136380058Y-92833780D01*
X136380057Y-92833780D01*
X136333034Y-92838225D01*
X136327196Y-92838500D01*
X135973629Y-92838500D01*
X135957886Y-92836761D01*
X135957861Y-92837033D01*
X135950093Y-92836298D01*
X135881028Y-92838469D01*
X135879080Y-92838500D01*
X135850142Y-92838500D01*
X135843136Y-92839384D01*
X135837318Y-92839842D01*
X135790111Y-92841326D01*
X135790108Y-92841327D01*
X135770505Y-92847022D01*
X135751459Y-92850966D01*
X135731203Y-92853526D01*
X135731201Y-92853526D01*
X135731199Y-92853527D01*
X135687282Y-92870914D01*
X135681756Y-92872806D01*
X135636406Y-92885982D01*
X135618833Y-92896374D01*
X135601370Y-92904929D01*
X135575134Y-92915318D01*
X135574089Y-92912679D01*
X135519004Y-92924826D01*
X135453471Y-92900594D01*
X135411441Y-92844779D01*
X135403500Y-92801117D01*
X135403500Y-90799898D01*
X135423185Y-90732859D01*
X135439814Y-90712222D01*
X136178218Y-89973819D01*
X136239541Y-89940334D01*
X136265899Y-89937500D01*
X139832101Y-89937500D01*
X139899140Y-89957185D01*
X139919782Y-89973819D01*
X140912181Y-90966217D01*
X140945666Y-91027540D01*
X140948500Y-91053898D01*
X140948500Y-92694330D01*
X140928815Y-92761369D01*
X140876011Y-92807124D01*
X140867835Y-92810511D01*
X140785795Y-92841111D01*
X140668739Y-92928739D01*
X140581111Y-93045795D01*
X140530011Y-93182795D01*
X140530011Y-93182797D01*
X140523500Y-93243345D01*
X140523500Y-94340654D01*
X140530011Y-94401202D01*
X140530011Y-94401204D01*
X140565038Y-94495111D01*
X140581111Y-94538204D01*
X140668739Y-94655261D01*
X140668740Y-94655262D01*
X140674054Y-94662360D01*
X140672729Y-94663351D01*
X140701282Y-94715642D01*
X140696298Y-94785334D01*
X140673318Y-94821089D01*
X140674054Y-94821640D01*
X140668740Y-94828737D01*
X140668739Y-94828739D01*
X140648676Y-94855540D01*
X140581111Y-94945795D01*
X140530011Y-95082795D01*
X140530011Y-95082797D01*
X140523500Y-95143345D01*
X140523500Y-96240654D01*
X140530011Y-96301202D01*
X140530011Y-96301204D01*
X140573160Y-96416888D01*
X140581111Y-96438204D01*
X140658430Y-96541490D01*
X140682847Y-96606953D01*
X140667995Y-96675226D01*
X140618590Y-96724632D01*
X140559163Y-96739800D01*
X140308978Y-96739800D01*
X140132421Y-96739800D01*
X140132419Y-96739800D01*
X140132412Y-96739801D01*
X140092647Y-96748876D01*
X140085793Y-96750040D01*
X140045249Y-96754610D01*
X140006741Y-96768084D01*
X140000059Y-96770009D01*
X139960287Y-96779088D01*
X139923528Y-96796788D01*
X139917105Y-96799449D01*
X139878604Y-96812922D01*
X139878598Y-96812925D01*
X139844061Y-96834625D01*
X139837975Y-96837989D01*
X139801212Y-96855694D01*
X139769323Y-96881125D01*
X139763651Y-96885149D01*
X139729106Y-96906856D01*
X139729105Y-96906857D01*
X139604259Y-97031704D01*
X137887782Y-98748181D01*
X137826459Y-98781666D01*
X137800101Y-98784500D01*
X136773899Y-98784500D01*
X136706860Y-98764815D01*
X136686218Y-98748181D01*
X136389819Y-98451781D01*
X136356334Y-98390458D01*
X136353500Y-98364100D01*
X136353500Y-96738362D01*
X136353499Y-96738345D01*
X136349718Y-96703185D01*
X136346989Y-96677799D01*
X136346454Y-96676365D01*
X136321572Y-96609653D01*
X136295889Y-96540796D01*
X136208261Y-96423739D01*
X136091204Y-96336111D01*
X136061412Y-96324999D01*
X135954203Y-96285011D01*
X135893654Y-96278500D01*
X135893638Y-96278500D01*
X135246362Y-96278500D01*
X135246345Y-96278500D01*
X135185797Y-96285011D01*
X135185795Y-96285011D01*
X135048795Y-96336111D01*
X134931739Y-96423739D01*
X134844111Y-96540795D01*
X134793011Y-96677795D01*
X134793011Y-96677797D01*
X134786500Y-96738345D01*
X134786500Y-98828276D01*
X134786501Y-98828286D01*
X134795575Y-98868042D01*
X134796740Y-98874900D01*
X134801310Y-98915448D01*
X134801311Y-98915453D01*
X134814783Y-98953953D01*
X134816708Y-98960637D01*
X134825787Y-99000410D01*
X134833819Y-99017089D01*
X134843490Y-99037172D01*
X134846149Y-99043591D01*
X134859623Y-99082098D01*
X134881329Y-99116644D01*
X134884694Y-99122733D01*
X134902393Y-99159484D01*
X134902394Y-99159485D01*
X134927831Y-99191383D01*
X134931849Y-99197047D01*
X134936747Y-99204841D01*
X134953558Y-99231594D01*
X134953561Y-99231598D01*
X135906403Y-100184440D01*
X135906406Y-100184442D01*
X135940938Y-100206140D01*
X135946613Y-100210166D01*
X135978515Y-100235607D01*
X136015278Y-100253311D01*
X136021350Y-100256667D01*
X136055900Y-100278376D01*
X136055901Y-100278376D01*
X136094406Y-100291849D01*
X136100835Y-100294512D01*
X136137589Y-100312212D01*
X136177351Y-100321287D01*
X136177355Y-100321288D01*
X136184043Y-100323215D01*
X136199418Y-100328594D01*
X136222552Y-100336690D01*
X136263098Y-100341258D01*
X136269934Y-100342419D01*
X136309721Y-100351501D01*
X136309725Y-100351501D01*
X136490019Y-100351501D01*
X136490035Y-100351500D01*
X138264279Y-100351500D01*
X138304048Y-100342422D01*
X138310902Y-100341258D01*
X138351448Y-100336690D01*
X138389973Y-100323208D01*
X138396615Y-100321295D01*
X138436411Y-100312212D01*
X138473173Y-100294507D01*
X138479585Y-100291851D01*
X138518099Y-100278376D01*
X138552656Y-100256661D01*
X138558732Y-100253304D01*
X138595485Y-100235606D01*
X138627385Y-100210165D01*
X138633045Y-100206149D01*
X138667596Y-100184441D01*
X138792441Y-100059596D01*
X138792441Y-100059595D01*
X140508917Y-98343118D01*
X140570240Y-98309634D01*
X140596598Y-98306800D01*
X140973484Y-98306800D01*
X141040523Y-98326485D01*
X141047794Y-98331533D01*
X141079392Y-98355187D01*
X141079393Y-98355188D01*
X141079396Y-98355189D01*
X141216399Y-98406289D01*
X141243650Y-98409218D01*
X141276945Y-98412799D01*
X141276962Y-98412800D01*
X142187038Y-98412800D01*
X142187054Y-98412799D01*
X142214092Y-98409891D01*
X142247601Y-98406289D01*
X142384604Y-98355189D01*
X142501661Y-98267561D01*
X142589289Y-98150504D01*
X142640389Y-98013501D01*
X142646310Y-97958427D01*
X142646899Y-97952954D01*
X142646900Y-97952937D01*
X142646900Y-97093662D01*
X142646899Y-97093645D01*
X142641777Y-97046011D01*
X142640389Y-97033099D01*
X142639869Y-97031706D01*
X142622078Y-96984007D01*
X142589289Y-96896096D01*
X142583755Y-96888703D01*
X142559787Y-96856685D01*
X142535370Y-96791221D01*
X142550222Y-96722948D01*
X142599627Y-96673543D01*
X142615706Y-96666199D01*
X142678204Y-96642889D01*
X142795261Y-96555261D01*
X142882889Y-96438204D01*
X142933989Y-96301201D01*
X142940318Y-96242334D01*
X142940499Y-96240654D01*
X142940500Y-96240637D01*
X142940500Y-95143362D01*
X142940499Y-95143345D01*
X142936349Y-95104753D01*
X142933989Y-95082799D01*
X142927648Y-95065799D01*
X142896099Y-94981213D01*
X142882889Y-94945796D01*
X142795261Y-94828739D01*
X142795259Y-94828737D01*
X142789946Y-94821640D01*
X142791270Y-94820648D01*
X142762718Y-94768358D01*
X142767702Y-94698666D01*
X142790681Y-94662910D01*
X142789946Y-94662360D01*
X142795259Y-94655262D01*
X142795261Y-94655261D01*
X142817773Y-94625188D01*
X142873706Y-94583318D01*
X142917039Y-94575500D01*
X145232101Y-94575500D01*
X145299140Y-94595185D01*
X145319782Y-94611819D01*
X145502181Y-94794217D01*
X145535666Y-94855540D01*
X145538500Y-94881898D01*
X145538500Y-101462500D01*
X145518815Y-101529539D01*
X145466011Y-101575294D01*
X145414500Y-101586500D01*
X145173345Y-101586500D01*
X145112797Y-101593011D01*
X145112795Y-101593011D01*
X144975795Y-101644111D01*
X144858739Y-101731739D01*
X144771111Y-101848795D01*
X144720011Y-101985795D01*
X144720011Y-101985797D01*
X144713500Y-102046345D01*
X144713500Y-103693654D01*
X144720011Y-103754202D01*
X144720011Y-103754204D01*
X144732199Y-103786879D01*
X144771111Y-103891204D01*
X144858739Y-104008261D01*
X144975796Y-104095889D01*
X145112799Y-104146989D01*
X145140050Y-104149918D01*
X145173345Y-104153499D01*
X145173362Y-104153500D01*
X147470638Y-104153500D01*
X147470654Y-104153499D01*
X147497692Y-104150591D01*
X147531201Y-104146989D01*
X147668204Y-104095889D01*
X147785261Y-104008261D01*
X147872889Y-103891204D01*
X147923989Y-103754201D01*
X147923989Y-103754195D01*
X147925220Y-103748992D01*
X147959790Y-103688274D01*
X148021698Y-103655884D01*
X148045898Y-103653500D01*
X150568279Y-103653500D01*
X150608048Y-103644422D01*
X150614902Y-103643258D01*
X150655448Y-103638690D01*
X150693973Y-103625208D01*
X150700615Y-103623295D01*
X150740411Y-103614212D01*
X150777173Y-103596507D01*
X150783585Y-103593851D01*
X150822099Y-103580376D01*
X150856656Y-103558661D01*
X150862732Y-103555304D01*
X150899485Y-103537606D01*
X150931385Y-103512165D01*
X150937045Y-103508149D01*
X150971596Y-103486441D01*
X151013217Y-103444819D01*
X151074541Y-103411334D01*
X151100899Y-103408500D01*
X151723638Y-103408500D01*
X151723654Y-103408499D01*
X151750692Y-103405591D01*
X151784201Y-103401989D01*
X151921204Y-103350889D01*
X152038261Y-103263261D01*
X152125889Y-103146204D01*
X152176989Y-103009201D01*
X152180591Y-102975692D01*
X152183499Y-102948654D01*
X152183500Y-102948637D01*
X152183500Y-101751362D01*
X152183499Y-101751345D01*
X152180157Y-101720270D01*
X152176989Y-101690799D01*
X152176049Y-101688279D01*
X152147412Y-101611500D01*
X152125889Y-101553796D01*
X152038261Y-101436739D01*
X151921204Y-101349111D01*
X151888034Y-101336739D01*
X151864165Y-101327836D01*
X151808232Y-101285964D01*
X151783816Y-101220500D01*
X151783500Y-101211655D01*
X151783500Y-98976939D01*
X151803185Y-98909900D01*
X151819814Y-98889262D01*
X151929301Y-98779776D01*
X152050589Y-98606558D01*
X152139956Y-98414910D01*
X152150224Y-98376586D01*
X152186590Y-98316925D01*
X152249436Y-98286396D01*
X152318812Y-98294690D01*
X152372690Y-98339175D01*
X152389775Y-98376586D01*
X152400041Y-98414902D01*
X152400043Y-98414906D01*
X152400044Y-98414910D01*
X152463940Y-98551935D01*
X152489410Y-98606556D01*
X152489411Y-98606558D01*
X152610700Y-98779778D01*
X152760221Y-98929299D01*
X152760224Y-98929301D01*
X152933442Y-99050589D01*
X153125090Y-99139956D01*
X153329345Y-99194686D01*
X153479812Y-99207850D01*
X153539998Y-99213116D01*
X153540000Y-99213116D01*
X153540002Y-99213116D01*
X153592663Y-99208508D01*
X153750655Y-99194686D01*
X153954910Y-99139956D01*
X154146558Y-99050589D01*
X154319776Y-98929301D01*
X154469301Y-98779776D01*
X154499689Y-98736377D01*
X154554265Y-98692752D01*
X154601264Y-98683500D01*
X154977469Y-98683500D01*
X154981214Y-98683613D01*
X155041570Y-98687264D01*
X155041570Y-98687263D01*
X155041572Y-98687264D01*
X155101048Y-98676363D01*
X155104738Y-98675802D01*
X155164774Y-98668513D01*
X155173759Y-98665104D01*
X155195382Y-98659076D01*
X155204837Y-98657344D01*
X155260001Y-98632515D01*
X155263429Y-98631096D01*
X155319971Y-98609654D01*
X155327882Y-98604192D01*
X155347425Y-98593170D01*
X155356197Y-98589223D01*
X155403816Y-98551914D01*
X155406792Y-98549724D01*
X155456573Y-98515365D01*
X155496685Y-98470086D01*
X155499219Y-98467394D01*
X156596795Y-97369819D01*
X156658119Y-97336334D01*
X156684477Y-97333500D01*
X158298638Y-97333500D01*
X158298654Y-97333499D01*
X158325692Y-97330591D01*
X158359201Y-97326989D01*
X158496204Y-97275889D01*
X158613261Y-97188261D01*
X158700889Y-97071204D01*
X158751989Y-96934201D01*
X158756184Y-96895181D01*
X158758499Y-96873654D01*
X158758500Y-96873637D01*
X158758500Y-96426362D01*
X158758499Y-96426345D01*
X158751989Y-96365800D01*
X158750205Y-96358250D01*
X158752181Y-96357782D01*
X158747945Y-96298657D01*
X158751154Y-96287730D01*
X158751986Y-96284207D01*
X158751989Y-96284201D01*
X158756671Y-96240654D01*
X158758499Y-96223654D01*
X158758500Y-96223637D01*
X158758500Y-95776362D01*
X158758499Y-95776345D01*
X158754482Y-95738988D01*
X158751989Y-95715799D01*
X158750684Y-95712301D01*
X158724373Y-95641758D01*
X158700889Y-95578796D01*
X158613261Y-95461739D01*
X158496204Y-95374111D01*
X158496203Y-95374110D01*
X158359203Y-95323011D01*
X158298654Y-95316500D01*
X158298638Y-95316500D01*
X157991344Y-95316500D01*
X152334477Y-95316500D01*
X152267438Y-95296815D01*
X152246796Y-95280181D01*
X149899819Y-92933204D01*
X149866334Y-92871881D01*
X149863500Y-92845523D01*
X149863500Y-92248670D01*
X149883185Y-92181631D01*
X149922219Y-92145433D01*
X149921280Y-92143995D01*
X149925558Y-92141198D01*
X149925576Y-92141189D01*
X150103240Y-92002906D01*
X150255722Y-91837268D01*
X150378860Y-91648791D01*
X150469296Y-91442616D01*
X150524564Y-91224368D01*
X150543156Y-91000005D01*
X152896844Y-91000005D01*
X152915434Y-91224359D01*
X152915436Y-91224371D01*
X152970703Y-91442614D01*
X153061140Y-91648792D01*
X153184276Y-91837265D01*
X153184284Y-91837276D01*
X153336756Y-92002902D01*
X153336760Y-92002906D01*
X153514424Y-92141189D01*
X153514435Y-92141195D01*
X153518720Y-92143995D01*
X153517485Y-92145883D01*
X153560344Y-92188424D01*
X153575508Y-92255743D01*
X153572736Y-92301569D01*
X153572736Y-92301572D01*
X153583633Y-92361041D01*
X153584196Y-92364742D01*
X153591486Y-92424771D01*
X153591486Y-92424773D01*
X153591487Y-92424774D01*
X153594898Y-92433770D01*
X153600923Y-92455381D01*
X153602655Y-92464835D01*
X153602656Y-92464839D01*
X153611293Y-92484028D01*
X153627474Y-92519981D01*
X153628901Y-92523425D01*
X153650345Y-92579969D01*
X153655809Y-92587886D01*
X153666829Y-92607426D01*
X153670777Y-92616197D01*
X153687293Y-92637279D01*
X153708068Y-92663797D01*
X153710288Y-92666813D01*
X153744633Y-92716571D01*
X153744634Y-92716572D01*
X153744635Y-92716573D01*
X153789911Y-92756684D01*
X153792603Y-92759218D01*
X154500778Y-93467393D01*
X154503330Y-93470105D01*
X154543427Y-93515365D01*
X154543428Y-93515366D01*
X154593185Y-93549710D01*
X154596201Y-93551929D01*
X154643803Y-93589223D01*
X154652571Y-93593169D01*
X154672118Y-93604193D01*
X154680029Y-93609654D01*
X154736561Y-93631093D01*
X154740016Y-93632523D01*
X154795163Y-93657344D01*
X154804615Y-93659076D01*
X154826231Y-93665101D01*
X154835226Y-93668513D01*
X154864909Y-93672117D01*
X154895248Y-93675801D01*
X154898952Y-93676365D01*
X154928282Y-93681739D01*
X154958428Y-93687264D01*
X155014887Y-93683848D01*
X155018786Y-93683613D01*
X155022531Y-93683500D01*
X160665523Y-93683500D01*
X160732562Y-93703185D01*
X160753204Y-93719819D01*
X161280181Y-94246796D01*
X161313666Y-94308119D01*
X161316500Y-94334477D01*
X161316500Y-94542500D01*
X161296815Y-94609539D01*
X161244011Y-94655294D01*
X161192500Y-94666500D01*
X159701345Y-94666500D01*
X159640797Y-94673011D01*
X159640795Y-94673011D01*
X159503795Y-94724111D01*
X159386739Y-94811739D01*
X159299111Y-94928795D01*
X159248011Y-95065795D01*
X159248011Y-95065797D01*
X159241500Y-95126345D01*
X159241500Y-95573654D01*
X159248011Y-95634202D01*
X159249796Y-95641758D01*
X159247821Y-95642224D01*
X159252048Y-95701365D01*
X159248837Y-95712301D01*
X159248010Y-95715799D01*
X159241500Y-95776345D01*
X159241500Y-96223654D01*
X159248010Y-96284197D01*
X159249796Y-96291755D01*
X159247820Y-96292221D01*
X159252048Y-96351364D01*
X159248840Y-96362290D01*
X159248010Y-96365802D01*
X159241500Y-96426345D01*
X159241500Y-96873654D01*
X159248011Y-96934202D01*
X159248011Y-96934204D01*
X159284898Y-97033099D01*
X159299111Y-97071204D01*
X159386739Y-97188261D01*
X159503796Y-97275889D01*
X159640799Y-97326989D01*
X159668050Y-97329918D01*
X159701345Y-97333499D01*
X159701362Y-97333500D01*
X160008656Y-97333500D01*
X161315523Y-97333500D01*
X161382562Y-97353185D01*
X161403204Y-97369819D01*
X162280181Y-98246796D01*
X162313666Y-98308119D01*
X162316500Y-98334477D01*
X162316500Y-101243957D01*
X162296815Y-101310996D01*
X162246302Y-101355677D01*
X162093219Y-101429398D01*
X161869256Y-101582093D01*
X161670560Y-101766456D01*
X161670558Y-101766458D01*
X161501557Y-101978379D01*
X161366029Y-102213120D01*
X161267003Y-102465435D01*
X161266997Y-102465454D01*
X161206684Y-102729705D01*
X161206683Y-102729710D01*
X161186429Y-102999995D01*
X161186429Y-103000004D01*
X161206683Y-103270289D01*
X161206684Y-103270294D01*
X161266997Y-103534545D01*
X161266999Y-103534554D01*
X161267001Y-103534559D01*
X161366029Y-103786879D01*
X161501557Y-104021621D01*
X161670558Y-104233542D01*
X161869257Y-104417907D01*
X162093215Y-104570599D01*
X162337428Y-104688206D01*
X162596442Y-104768101D01*
X162596443Y-104768101D01*
X162596446Y-104768102D01*
X162864464Y-104808499D01*
X162864469Y-104808499D01*
X162864472Y-104808500D01*
X162864473Y-104808500D01*
X163135527Y-104808500D01*
X163135528Y-104808500D01*
X163178726Y-104801989D01*
X163403553Y-104768102D01*
X163403554Y-104768101D01*
X163403558Y-104768101D01*
X163662572Y-104688206D01*
X163906786Y-104570599D01*
X164130743Y-104417907D01*
X164205380Y-104348654D01*
X166191500Y-104348654D01*
X166198011Y-104409202D01*
X166198011Y-104409204D01*
X166249110Y-104546204D01*
X166249111Y-104546204D01*
X166336739Y-104663261D01*
X166453796Y-104750889D01*
X166590799Y-104801989D01*
X166618050Y-104804918D01*
X166651345Y-104808499D01*
X166651362Y-104808500D01*
X169348638Y-104808500D01*
X169348654Y-104808499D01*
X169375692Y-104805591D01*
X169409201Y-104801989D01*
X169546204Y-104750889D01*
X169663261Y-104663261D01*
X169750889Y-104546204D01*
X169801989Y-104409201D01*
X169805591Y-104375692D01*
X169808499Y-104348654D01*
X169808500Y-104348637D01*
X169808500Y-101651362D01*
X169808499Y-101651345D01*
X169805157Y-101620270D01*
X169801989Y-101590799D01*
X169793043Y-101566815D01*
X169754135Y-101462500D01*
X169750889Y-101453796D01*
X169663261Y-101336739D01*
X169546204Y-101249111D01*
X169532386Y-101243957D01*
X169409203Y-101198011D01*
X169348654Y-101191500D01*
X169348638Y-101191500D01*
X169074477Y-101191500D01*
X169007438Y-101171815D01*
X168961683Y-101119011D01*
X168951739Y-101049853D01*
X168980764Y-100986297D01*
X168986796Y-100979819D01*
X169322812Y-100643803D01*
X170467394Y-99499219D01*
X170470086Y-99496685D01*
X170515365Y-99456573D01*
X170549724Y-99406792D01*
X170551914Y-99403816D01*
X170589223Y-99356197D01*
X170593170Y-99347425D01*
X170604192Y-99327882D01*
X170609654Y-99319971D01*
X170631096Y-99263429D01*
X170632515Y-99260001D01*
X170657344Y-99204837D01*
X170659076Y-99195382D01*
X170665105Y-99173759D01*
X170668513Y-99164774D01*
X170675802Y-99104738D01*
X170676364Y-99101048D01*
X170687263Y-99041577D01*
X170687264Y-99041570D01*
X170683613Y-98981213D01*
X170683500Y-98977468D01*
X170683500Y-89022530D01*
X170683613Y-89018785D01*
X170687264Y-88958428D01*
X170681739Y-88928282D01*
X170676365Y-88898952D01*
X170675801Y-88895248D01*
X170668513Y-88835229D01*
X170668513Y-88835226D01*
X170665101Y-88826231D01*
X170659076Y-88804615D01*
X170657344Y-88795163D01*
X170632523Y-88740016D01*
X170631093Y-88736561D01*
X170609654Y-88680029D01*
X170604193Y-88672117D01*
X170593169Y-88652571D01*
X170589223Y-88643803D01*
X170551929Y-88596201D01*
X170549710Y-88593185D01*
X170544958Y-88586301D01*
X170515365Y-88543427D01*
X170470105Y-88503330D01*
X170467393Y-88500778D01*
X169554295Y-87587680D01*
X169520810Y-87526357D01*
X169525794Y-87456665D01*
X169554293Y-87412320D01*
X171007394Y-85959219D01*
X171010086Y-85956685D01*
X171055365Y-85916573D01*
X171089724Y-85866792D01*
X171091914Y-85863816D01*
X171129223Y-85816197D01*
X171133170Y-85807425D01*
X171144192Y-85787882D01*
X171149654Y-85779971D01*
X171171096Y-85723429D01*
X171172515Y-85720001D01*
X171197344Y-85664837D01*
X171199076Y-85655382D01*
X171205105Y-85633759D01*
X171206147Y-85631011D01*
X171208513Y-85624774D01*
X171215802Y-85564738D01*
X171216364Y-85561048D01*
X171227263Y-85501577D01*
X171227264Y-85501570D01*
X171223613Y-85441213D01*
X171223500Y-85437468D01*
X171223500Y-82482500D01*
X171243185Y-82415461D01*
X171295989Y-82369706D01*
X171347500Y-82358500D01*
X171438638Y-82358500D01*
X171438654Y-82358499D01*
X171465692Y-82355591D01*
X171499201Y-82351989D01*
X171636204Y-82300889D01*
X171753261Y-82213261D01*
X171840889Y-82096204D01*
X171891989Y-81959201D01*
X171895591Y-81925692D01*
X171898499Y-81898654D01*
X171898500Y-81898637D01*
X171898500Y-80101362D01*
X171898499Y-80101345D01*
X171894672Y-80065759D01*
X171891989Y-80040799D01*
X171840889Y-79903796D01*
X171753261Y-79786739D01*
X171636204Y-79699111D01*
X171636203Y-79699111D01*
X171499203Y-79648011D01*
X171438654Y-79641500D01*
X171438638Y-79641500D01*
X169641362Y-79641500D01*
X169641345Y-79641500D01*
X169580797Y-79648011D01*
X169580795Y-79648011D01*
X169443795Y-79699111D01*
X169326739Y-79786739D01*
X169239111Y-79903795D01*
X169193861Y-80025111D01*
X169151989Y-80081044D01*
X169086524Y-80105460D01*
X169018252Y-80090607D01*
X168986454Y-80065762D01*
X168923240Y-79997094D01*
X168745576Y-79858811D01*
X168745575Y-79858810D01*
X168745572Y-79858808D01*
X168547580Y-79751661D01*
X168547577Y-79751659D01*
X168547574Y-79751658D01*
X168547571Y-79751657D01*
X168547569Y-79751656D01*
X168334637Y-79678556D01*
X168112569Y-79641500D01*
X167887431Y-79641500D01*
X167665362Y-79678556D01*
X167452430Y-79751656D01*
X167452419Y-79751661D01*
X167254427Y-79858808D01*
X167254422Y-79858812D01*
X167076761Y-79997092D01*
X167076756Y-79997097D01*
X166924284Y-80162723D01*
X166924276Y-80162734D01*
X166801140Y-80351207D01*
X166710703Y-80557385D01*
X166655436Y-80775628D01*
X166655434Y-80775640D01*
X166636844Y-80999994D01*
X166636844Y-81000005D01*
X166655434Y-81224359D01*
X166655436Y-81224371D01*
X166710703Y-81442614D01*
X166801140Y-81648792D01*
X166924276Y-81837265D01*
X166924284Y-81837276D01*
X167050967Y-81974888D01*
X167076760Y-82002906D01*
X167254424Y-82141189D01*
X167254435Y-82141195D01*
X167258720Y-82143995D01*
X167257619Y-82145680D01*
X167301094Y-82188808D01*
X167316500Y-82248670D01*
X167316500Y-82977468D01*
X167316387Y-82981213D01*
X167312736Y-83041569D01*
X167312736Y-83041572D01*
X167323633Y-83101041D01*
X167324196Y-83104742D01*
X167331486Y-83164771D01*
X167331486Y-83164773D01*
X167331487Y-83164774D01*
X167334898Y-83173770D01*
X167340923Y-83195381D01*
X167342655Y-83204835D01*
X167342656Y-83204839D01*
X167356939Y-83236574D01*
X167367474Y-83259981D01*
X167368901Y-83263425D01*
X167390345Y-83319969D01*
X167395809Y-83327886D01*
X167406829Y-83347426D01*
X167407557Y-83349043D01*
X167410777Y-83356197D01*
X167419153Y-83366888D01*
X167448068Y-83403797D01*
X167450288Y-83406813D01*
X167484633Y-83456571D01*
X167484634Y-83456572D01*
X167484635Y-83456573D01*
X167529911Y-83496684D01*
X167532603Y-83499218D01*
X167908555Y-83875170D01*
X168280181Y-84246796D01*
X168313666Y-84308119D01*
X168316500Y-84334477D01*
X168316500Y-85542500D01*
X168296815Y-85609539D01*
X168244011Y-85655294D01*
X168192500Y-85666500D01*
X167651345Y-85666500D01*
X167590797Y-85673011D01*
X167590795Y-85673011D01*
X167453795Y-85724111D01*
X167336739Y-85811739D01*
X167249111Y-85928795D01*
X167198011Y-86065795D01*
X167198011Y-86065797D01*
X167191500Y-86126345D01*
X167191500Y-86573654D01*
X167198011Y-86634202D01*
X167199796Y-86641758D01*
X167197821Y-86642224D01*
X167202048Y-86701365D01*
X167198837Y-86712301D01*
X167198010Y-86715799D01*
X167191500Y-86776345D01*
X167191500Y-87223654D01*
X167198010Y-87284197D01*
X167199796Y-87291755D01*
X167197822Y-87292221D01*
X167202046Y-87351374D01*
X167198839Y-87362291D01*
X167198010Y-87365802D01*
X167191500Y-87426345D01*
X167191500Y-87873654D01*
X167198011Y-87934202D01*
X167198011Y-87934204D01*
X167210544Y-87967804D01*
X167249111Y-88071204D01*
X167336739Y-88188261D01*
X167453796Y-88275889D01*
X167590799Y-88326989D01*
X167618050Y-88329918D01*
X167651345Y-88333499D01*
X167651362Y-88333500D01*
X167958656Y-88333500D01*
X168315523Y-88333500D01*
X168382562Y-88353185D01*
X168403204Y-88369819D01*
X169280181Y-89246795D01*
X169313666Y-89308118D01*
X169316500Y-89334476D01*
X169316500Y-98665522D01*
X169296815Y-98732561D01*
X169280181Y-98753203D01*
X167532619Y-100500764D01*
X167529892Y-100503331D01*
X167484636Y-100543425D01*
X167484634Y-100543427D01*
X167450292Y-100593180D01*
X167448073Y-100596195D01*
X167410776Y-100643803D01*
X167410773Y-100643807D01*
X167406823Y-100652584D01*
X167395808Y-100672114D01*
X167390346Y-100680027D01*
X167368906Y-100736560D01*
X167367473Y-100740019D01*
X167342657Y-100795157D01*
X167342655Y-100795162D01*
X167340921Y-100804625D01*
X167334900Y-100826224D01*
X167331487Y-100835224D01*
X167331486Y-100835226D01*
X167324196Y-100895257D01*
X167323633Y-100898958D01*
X167312736Y-100958423D01*
X167312736Y-100958428D01*
X167316387Y-101018785D01*
X167316500Y-101022530D01*
X167316500Y-101067500D01*
X167296815Y-101134539D01*
X167244011Y-101180294D01*
X167192500Y-101191500D01*
X166651345Y-101191500D01*
X166590797Y-101198011D01*
X166590795Y-101198011D01*
X166453795Y-101249111D01*
X166336739Y-101336739D01*
X166249111Y-101453795D01*
X166198011Y-101590795D01*
X166198011Y-101590797D01*
X166191500Y-101651345D01*
X166191500Y-104348654D01*
X164205380Y-104348654D01*
X164329442Y-104233542D01*
X164498443Y-104021621D01*
X164633971Y-103786879D01*
X164732999Y-103534559D01*
X164793315Y-103270299D01*
X164793316Y-103270289D01*
X164813571Y-103000004D01*
X164813571Y-102999995D01*
X164793316Y-102729710D01*
X164793315Y-102729705D01*
X164793315Y-102729701D01*
X164732999Y-102465441D01*
X164633971Y-102213121D01*
X164498443Y-101978379D01*
X164329442Y-101766458D01*
X164130743Y-101582093D01*
X163906786Y-101429401D01*
X163906783Y-101429400D01*
X163906781Y-101429398D01*
X163753698Y-101355677D01*
X163701839Y-101308854D01*
X163683500Y-101243957D01*
X163683500Y-98022530D01*
X163683613Y-98018785D01*
X163687264Y-97958428D01*
X163681739Y-97928282D01*
X163676365Y-97898952D01*
X163675801Y-97895248D01*
X163668513Y-97835229D01*
X163668513Y-97835226D01*
X163665101Y-97826231D01*
X163659076Y-97804615D01*
X163657344Y-97795163D01*
X163632523Y-97740016D01*
X163631093Y-97736561D01*
X163609654Y-97680029D01*
X163604193Y-97672117D01*
X163593169Y-97652571D01*
X163589223Y-97643803D01*
X163551929Y-97596201D01*
X163549710Y-97593185D01*
X163544127Y-97585097D01*
X163515365Y-97543427D01*
X163470105Y-97503330D01*
X163467393Y-97500778D01*
X162861796Y-96895181D01*
X162828311Y-96833858D01*
X162833295Y-96764166D01*
X162875167Y-96708233D01*
X162940631Y-96683816D01*
X162949477Y-96683500D01*
X162977469Y-96683500D01*
X162981214Y-96683613D01*
X163041570Y-96687264D01*
X163041570Y-96687263D01*
X163041572Y-96687264D01*
X163101048Y-96676363D01*
X163104738Y-96675802D01*
X163164774Y-96668513D01*
X163173759Y-96665104D01*
X163195382Y-96659076D01*
X163204837Y-96657344D01*
X163260001Y-96632515D01*
X163263429Y-96631096D01*
X163319971Y-96609654D01*
X163327882Y-96604192D01*
X163347425Y-96593170D01*
X163356197Y-96589223D01*
X163403816Y-96551914D01*
X163406792Y-96549724D01*
X163456573Y-96515365D01*
X163496685Y-96470086D01*
X163499219Y-96467394D01*
X164467394Y-95499219D01*
X164470086Y-95496685D01*
X164515365Y-95456573D01*
X164549724Y-95406792D01*
X164551914Y-95403816D01*
X164589223Y-95356197D01*
X164593170Y-95347425D01*
X164604192Y-95327882D01*
X164609654Y-95319971D01*
X164631096Y-95263429D01*
X164632515Y-95260001D01*
X164657344Y-95204837D01*
X164659076Y-95195382D01*
X164665105Y-95173759D01*
X164667283Y-95168017D01*
X164668513Y-95164774D01*
X164675802Y-95104738D01*
X164676364Y-95101048D01*
X164687263Y-95041577D01*
X164687264Y-95041570D01*
X164683613Y-94981213D01*
X164683500Y-94977468D01*
X164683500Y-94022530D01*
X164683613Y-94018785D01*
X164687264Y-93958428D01*
X164681654Y-93927816D01*
X164676365Y-93898952D01*
X164675801Y-93895248D01*
X164668513Y-93835229D01*
X164668513Y-93835226D01*
X164665101Y-93826231D01*
X164659076Y-93804615D01*
X164657344Y-93795163D01*
X164632523Y-93740016D01*
X164631093Y-93736561D01*
X164624744Y-93719819D01*
X164609654Y-93680029D01*
X164604193Y-93672117D01*
X164593169Y-93652571D01*
X164589223Y-93643803D01*
X164551929Y-93596201D01*
X164549710Y-93593185D01*
X164546975Y-93589223D01*
X164515365Y-93543427D01*
X164470105Y-93503330D01*
X164467393Y-93500778D01*
X162499218Y-91532603D01*
X162496684Y-91529911D01*
X162456573Y-91484635D01*
X162456572Y-91484634D01*
X162456571Y-91484633D01*
X162406813Y-91450288D01*
X162403797Y-91448068D01*
X162377279Y-91427293D01*
X162356197Y-91410777D01*
X162356193Y-91410775D01*
X162347426Y-91406829D01*
X162327886Y-91395809D01*
X162325113Y-91393895D01*
X162319971Y-91390346D01*
X162319969Y-91390345D01*
X162263425Y-91368901D01*
X162259981Y-91367474D01*
X162236574Y-91356939D01*
X162204839Y-91342656D01*
X162204835Y-91342655D01*
X162195381Y-91340923D01*
X162173770Y-91334898D01*
X162164774Y-91331487D01*
X162164773Y-91331486D01*
X162164771Y-91331486D01*
X162104742Y-91324196D01*
X162101041Y-91323633D01*
X162041576Y-91312736D01*
X162041569Y-91312736D01*
X161981214Y-91316387D01*
X161977469Y-91316500D01*
X161334477Y-91316500D01*
X161267438Y-91296815D01*
X161246796Y-91280181D01*
X160932832Y-90966217D01*
X160499218Y-90532603D01*
X160496684Y-90529911D01*
X160456573Y-90484635D01*
X160456572Y-90484634D01*
X160456571Y-90484633D01*
X160406813Y-90450288D01*
X160403797Y-90448068D01*
X160377279Y-90427293D01*
X160356197Y-90410777D01*
X160356193Y-90410775D01*
X160347426Y-90406829D01*
X160327886Y-90395809D01*
X160323977Y-90393111D01*
X160319971Y-90390346D01*
X160319969Y-90390345D01*
X160263425Y-90368901D01*
X160259981Y-90367474D01*
X160236574Y-90356939D01*
X160204839Y-90342656D01*
X160204835Y-90342655D01*
X160195381Y-90340923D01*
X160173770Y-90334898D01*
X160164774Y-90331487D01*
X160164773Y-90331486D01*
X160164771Y-90331486D01*
X160104742Y-90324196D01*
X160101041Y-90323633D01*
X160041576Y-90312736D01*
X160041569Y-90312736D01*
X159981214Y-90316387D01*
X159977469Y-90316500D01*
X158282500Y-90316500D01*
X158215461Y-90296815D01*
X158169706Y-90244011D01*
X158158500Y-90192500D01*
X158158500Y-90101362D01*
X158158499Y-90101345D01*
X158154221Y-90061559D01*
X158151989Y-90040799D01*
X158151620Y-90039811D01*
X158111559Y-89932404D01*
X158100889Y-89903796D01*
X158013261Y-89786739D01*
X157896204Y-89699111D01*
X157896204Y-89699110D01*
X157759203Y-89648011D01*
X157698654Y-89641500D01*
X157698638Y-89641500D01*
X155901362Y-89641500D01*
X155901345Y-89641500D01*
X155840797Y-89648011D01*
X155840795Y-89648011D01*
X155703795Y-89699111D01*
X155586739Y-89786739D01*
X155499111Y-89903795D01*
X155453861Y-90025111D01*
X155411989Y-90081044D01*
X155346524Y-90105460D01*
X155278252Y-90090607D01*
X155246454Y-90065762D01*
X155183240Y-89997094D01*
X155005576Y-89858811D01*
X155005575Y-89858810D01*
X155005572Y-89858808D01*
X154807580Y-89751661D01*
X154807577Y-89751659D01*
X154807574Y-89751658D01*
X154807571Y-89751657D01*
X154807569Y-89751656D01*
X154594637Y-89678556D01*
X154372569Y-89641500D01*
X154147431Y-89641500D01*
X153925362Y-89678556D01*
X153712430Y-89751656D01*
X153712419Y-89751661D01*
X153514427Y-89858808D01*
X153514422Y-89858812D01*
X153336761Y-89997092D01*
X153336756Y-89997097D01*
X153184284Y-90162723D01*
X153184276Y-90162734D01*
X153061140Y-90351207D01*
X152970703Y-90557385D01*
X152915436Y-90775628D01*
X152915434Y-90775640D01*
X152896844Y-90999994D01*
X152896844Y-91000005D01*
X150543156Y-91000005D01*
X150543156Y-91000000D01*
X150526197Y-90795345D01*
X150524565Y-90775640D01*
X150524563Y-90775628D01*
X150477484Y-90589718D01*
X150469296Y-90557384D01*
X150378860Y-90351209D01*
X150373974Y-90343731D01*
X150271188Y-90186405D01*
X150255722Y-90162732D01*
X150255719Y-90162729D01*
X150255715Y-90162723D01*
X150103243Y-89997097D01*
X150103238Y-89997092D01*
X149934992Y-89866140D01*
X149925576Y-89858811D01*
X149925575Y-89858810D01*
X149925572Y-89858808D01*
X149727580Y-89751661D01*
X149727577Y-89751659D01*
X149727574Y-89751658D01*
X149727571Y-89751657D01*
X149727569Y-89751656D01*
X149514637Y-89678556D01*
X149292569Y-89641500D01*
X149067431Y-89641500D01*
X148845362Y-89678556D01*
X148632430Y-89751656D01*
X148632419Y-89751661D01*
X148434427Y-89858808D01*
X148434422Y-89858812D01*
X148256761Y-89997092D01*
X148256756Y-89997097D01*
X148104284Y-90162723D01*
X148104276Y-90162734D01*
X147981140Y-90351207D01*
X147890703Y-90557385D01*
X147835436Y-90775628D01*
X147835434Y-90775640D01*
X147816844Y-90999994D01*
X147816844Y-91000005D01*
X147835434Y-91224359D01*
X147835436Y-91224371D01*
X147890703Y-91442614D01*
X147981140Y-91648792D01*
X148104276Y-91837265D01*
X148104284Y-91837276D01*
X148256756Y-92002902D01*
X148256760Y-92002906D01*
X148434424Y-92141189D01*
X148434435Y-92141195D01*
X148438720Y-92143995D01*
X148437619Y-92145680D01*
X148481094Y-92188808D01*
X148496500Y-92248670D01*
X148496500Y-93157468D01*
X148496387Y-93161213D01*
X148492736Y-93221569D01*
X148492736Y-93221572D01*
X148503633Y-93281041D01*
X148504196Y-93284742D01*
X148511486Y-93344771D01*
X148511486Y-93344773D01*
X148511487Y-93344774D01*
X148514898Y-93353770D01*
X148520923Y-93375381D01*
X148522655Y-93384835D01*
X148522656Y-93384839D01*
X148536939Y-93416574D01*
X148547474Y-93439981D01*
X148548901Y-93443425D01*
X148570346Y-93499971D01*
X148574978Y-93506683D01*
X148575809Y-93507886D01*
X148586829Y-93527426D01*
X148590777Y-93536197D01*
X148601364Y-93549710D01*
X148628068Y-93583797D01*
X148630288Y-93586813D01*
X148664633Y-93636571D01*
X148664634Y-93636572D01*
X148664635Y-93636573D01*
X148709911Y-93676684D01*
X148712603Y-93679218D01*
X151500778Y-96467393D01*
X151503330Y-96470105D01*
X151543427Y-96515365D01*
X151581274Y-96541489D01*
X151593185Y-96549710D01*
X151596201Y-96551929D01*
X151643803Y-96589223D01*
X151652560Y-96593164D01*
X151652571Y-96593169D01*
X151672117Y-96604193D01*
X151674581Y-96605893D01*
X151680029Y-96609654D01*
X151736561Y-96631093D01*
X151740016Y-96632523D01*
X151795163Y-96657344D01*
X151804615Y-96659076D01*
X151826231Y-96665101D01*
X151835226Y-96668513D01*
X151867136Y-96672387D01*
X151895248Y-96675801D01*
X151898952Y-96676365D01*
X151928282Y-96681739D01*
X151958428Y-96687264D01*
X152015429Y-96683816D01*
X152018786Y-96683613D01*
X152022531Y-96683500D01*
X152944363Y-96683500D01*
X153011402Y-96703185D01*
X153057157Y-96755989D01*
X153067101Y-96825147D01*
X153038076Y-96888703D01*
X152996769Y-96919880D01*
X152971466Y-96931680D01*
X152933443Y-96949410D01*
X152933441Y-96949411D01*
X152760221Y-97070700D01*
X152610700Y-97220221D01*
X152489411Y-97393441D01*
X152489410Y-97393443D01*
X152400045Y-97585088D01*
X152400042Y-97585094D01*
X152389775Y-97623414D01*
X152353410Y-97683074D01*
X152290563Y-97713603D01*
X152221187Y-97705308D01*
X152167309Y-97660823D01*
X152150225Y-97623414D01*
X152139957Y-97585094D01*
X152139956Y-97585090D01*
X152050589Y-97393442D01*
X151929301Y-97220224D01*
X151929299Y-97220221D01*
X151779778Y-97070700D01*
X151606558Y-96949411D01*
X151606556Y-96949410D01*
X151585071Y-96939391D01*
X151414910Y-96860044D01*
X151414906Y-96860043D01*
X151414902Y-96860041D01*
X151210660Y-96805315D01*
X151210656Y-96805314D01*
X151210655Y-96805314D01*
X151210654Y-96805313D01*
X151210649Y-96805313D01*
X151000002Y-96786884D01*
X150999998Y-96786884D01*
X150789350Y-96805313D01*
X150789339Y-96805315D01*
X150585097Y-96860041D01*
X150585088Y-96860045D01*
X150393443Y-96949410D01*
X150393441Y-96949411D01*
X150220221Y-97070700D01*
X150070700Y-97220221D01*
X149949411Y-97393441D01*
X149949410Y-97393443D01*
X149860045Y-97585088D01*
X149860041Y-97585097D01*
X149805315Y-97789339D01*
X149805313Y-97789350D01*
X149786884Y-97999998D01*
X149786884Y-98000001D01*
X149805313Y-98210649D01*
X149805315Y-98210660D01*
X149860041Y-98414902D01*
X149860043Y-98414906D01*
X149860044Y-98414910D01*
X149923940Y-98551935D01*
X149949410Y-98606556D01*
X149949411Y-98606558D01*
X150070697Y-98779774D01*
X150070698Y-98779775D01*
X150070699Y-98779776D01*
X150180182Y-98889259D01*
X150213666Y-98950580D01*
X150216500Y-98976939D01*
X150216500Y-101211655D01*
X150196815Y-101278694D01*
X150144011Y-101324449D01*
X150135835Y-101327836D01*
X150078795Y-101349111D01*
X149961739Y-101436739D01*
X149874111Y-101553795D01*
X149823011Y-101690795D01*
X149823011Y-101690797D01*
X149816500Y-101751345D01*
X149816500Y-101962500D01*
X149796815Y-102029539D01*
X149744011Y-102075294D01*
X149692500Y-102086500D01*
X148045898Y-102086500D01*
X147978859Y-102066815D01*
X147933104Y-102014011D01*
X147925220Y-101991008D01*
X147923989Y-101985803D01*
X147923989Y-101985799D01*
X147872889Y-101848796D01*
X147785261Y-101731739D01*
X147668204Y-101644111D01*
X147668203Y-101644110D01*
X147531203Y-101593011D01*
X147470654Y-101586500D01*
X147470638Y-101586500D01*
X147229500Y-101586500D01*
X147162461Y-101566815D01*
X147116706Y-101514011D01*
X147105500Y-101462500D01*
X147105500Y-94417722D01*
X147105500Y-94417721D01*
X147096422Y-94377950D01*
X147095257Y-94371090D01*
X147094166Y-94361404D01*
X147090690Y-94330552D01*
X147077211Y-94292033D01*
X147075293Y-94285379D01*
X147066212Y-94245588D01*
X147048514Y-94208837D01*
X147045851Y-94202409D01*
X147042267Y-94192168D01*
X147032376Y-94163901D01*
X147022496Y-94148177D01*
X147010671Y-94129358D01*
X147007304Y-94123267D01*
X146989606Y-94086514D01*
X146964169Y-94054618D01*
X146960144Y-94048945D01*
X146938441Y-94014404D01*
X146813596Y-93889559D01*
X146813595Y-93889558D01*
X146811263Y-93887226D01*
X146811252Y-93887216D01*
X146130903Y-93206866D01*
X146113461Y-93189424D01*
X146099596Y-93175559D01*
X146065043Y-93153847D01*
X146059383Y-93149831D01*
X146027485Y-93124394D01*
X146027484Y-93124393D01*
X145990733Y-93106694D01*
X145984644Y-93103329D01*
X145950098Y-93081623D01*
X145911591Y-93068149D01*
X145905172Y-93065490D01*
X145878194Y-93052499D01*
X145868410Y-93047787D01*
X145828637Y-93038708D01*
X145821956Y-93036783D01*
X145813488Y-93033820D01*
X145783453Y-93023311D01*
X145783448Y-93023310D01*
X145742900Y-93018740D01*
X145736042Y-93017575D01*
X145696286Y-93008501D01*
X145696281Y-93008500D01*
X145696279Y-93008500D01*
X145696276Y-93008500D01*
X142917039Y-93008500D01*
X142850000Y-92988815D01*
X142817771Y-92958809D01*
X142795264Y-92928743D01*
X142795263Y-92928742D01*
X142795261Y-92928739D01*
X142678204Y-92841111D01*
X142671121Y-92838469D01*
X142596165Y-92810511D01*
X142540232Y-92768639D01*
X142515816Y-92703174D01*
X142515500Y-92694330D01*
X142515500Y-90589721D01*
X142515499Y-90589718D01*
X142506423Y-90549951D01*
X142505257Y-90543090D01*
X142500690Y-90502552D01*
X142487213Y-90464037D01*
X142485290Y-90457364D01*
X142476212Y-90417589D01*
X142476078Y-90417311D01*
X142458509Y-90380827D01*
X142455854Y-90374419D01*
X142442376Y-90335901D01*
X142420669Y-90301355D01*
X142417307Y-90295272D01*
X142416000Y-90292557D01*
X142399606Y-90258514D01*
X142374169Y-90226618D01*
X142370144Y-90220945D01*
X142352271Y-90192500D01*
X142348441Y-90186404D01*
X142223596Y-90061559D01*
X142223595Y-90061558D01*
X142221263Y-90059226D01*
X142221252Y-90059216D01*
X140730903Y-88568866D01*
X140699596Y-88537559D01*
X140665047Y-88515849D01*
X140659383Y-88511831D01*
X140627485Y-88486394D01*
X140627484Y-88486393D01*
X140590733Y-88468694D01*
X140584644Y-88465329D01*
X140550098Y-88443623D01*
X140511591Y-88430149D01*
X140505172Y-88427490D01*
X140483136Y-88416879D01*
X140468410Y-88409787D01*
X140428637Y-88400708D01*
X140421956Y-88398783D01*
X140413488Y-88395820D01*
X140383453Y-88385311D01*
X140383448Y-88385310D01*
X140342900Y-88380740D01*
X140336042Y-88379575D01*
X140296286Y-88370501D01*
X140296281Y-88370500D01*
X140296279Y-88370500D01*
X140252004Y-88370500D01*
X135978279Y-88370500D01*
X135801721Y-88370500D01*
X135801719Y-88370500D01*
X135801712Y-88370501D01*
X135761947Y-88379576D01*
X135755093Y-88380740D01*
X135714549Y-88385310D01*
X135676041Y-88398784D01*
X135669359Y-88400709D01*
X135629587Y-88409788D01*
X135592828Y-88427488D01*
X135586405Y-88430149D01*
X135547904Y-88443622D01*
X135547898Y-88443625D01*
X135513361Y-88465325D01*
X135507275Y-88468689D01*
X135470513Y-88486394D01*
X135470509Y-88486397D01*
X135438614Y-88511831D01*
X135432943Y-88515856D01*
X135398401Y-88537560D01*
X135398398Y-88537563D01*
X135349659Y-88586301D01*
X135349655Y-88586307D01*
X134069820Y-89866140D01*
X134069816Y-89866146D01*
X134003561Y-89932400D01*
X134003558Y-89932404D01*
X133981853Y-89966946D01*
X133977830Y-89972616D01*
X133952391Y-90004517D01*
X133934693Y-90041267D01*
X133931329Y-90047353D01*
X133909626Y-90081895D01*
X133909621Y-90081906D01*
X133896145Y-90120415D01*
X133893484Y-90126839D01*
X133875787Y-90163589D01*
X133866709Y-90203359D01*
X133864784Y-90210041D01*
X133851310Y-90248549D01*
X133846740Y-90289093D01*
X133845576Y-90295947D01*
X133836501Y-90335712D01*
X133836500Y-90335723D01*
X133836500Y-91281101D01*
X133816815Y-91348140D01*
X133764011Y-91393895D01*
X133694853Y-91403839D01*
X133631297Y-91374814D01*
X133624819Y-91368782D01*
X132921596Y-90665559D01*
X132916959Y-90660371D01*
X132891523Y-90628475D01*
X132859626Y-90603038D01*
X132854439Y-90598402D01*
X132825598Y-90569561D01*
X132825596Y-90569559D01*
X132791047Y-90547849D01*
X132785383Y-90543831D01*
X132753485Y-90518394D01*
X132753484Y-90518393D01*
X132716733Y-90500694D01*
X132710644Y-90497329D01*
X132676098Y-90475623D01*
X132637591Y-90462149D01*
X132631172Y-90459490D01*
X132607452Y-90448068D01*
X132594410Y-90441787D01*
X132554637Y-90432708D01*
X132547956Y-90430783D01*
X132539488Y-90427820D01*
X132509453Y-90417311D01*
X132509448Y-90417310D01*
X132468900Y-90412740D01*
X132462042Y-90411575D01*
X132422286Y-90402501D01*
X132422281Y-90402500D01*
X132422279Y-90402500D01*
X132422276Y-90402500D01*
X130675158Y-90402500D01*
X130647564Y-90399391D01*
X130639280Y-90397500D01*
X130639279Y-90397500D01*
X130595004Y-90397500D01*
X128939956Y-90397500D01*
X128872917Y-90377815D01*
X128841875Y-90347003D01*
X128840875Y-90347782D01*
X128837721Y-90343731D01*
X128836730Y-90342655D01*
X128750099Y-90248549D01*
X128692510Y-90185991D01*
X128661587Y-90123337D01*
X128669447Y-90053911D01*
X128713594Y-89999755D01*
X128740405Y-89985827D01*
X128820584Y-89955920D01*
X128858204Y-89941889D01*
X128975261Y-89854261D01*
X129062889Y-89737204D01*
X129113989Y-89600201D01*
X129117591Y-89566692D01*
X129120499Y-89539654D01*
X129120499Y-89539647D01*
X129120500Y-89539638D01*
X129120500Y-87742362D01*
X129120499Y-87742352D01*
X129120499Y-87742345D01*
X129117157Y-87711270D01*
X129113989Y-87681799D01*
X129111836Y-87676027D01*
X129080931Y-87593169D01*
X129062889Y-87544796D01*
X128975261Y-87427739D01*
X128858204Y-87340111D01*
X128858204Y-87340110D01*
X128721199Y-87289009D01*
X128715983Y-87287777D01*
X128664840Y-87258654D01*
X135293500Y-87258654D01*
X135300011Y-87319202D01*
X135300011Y-87319204D01*
X135334742Y-87412318D01*
X135351111Y-87456204D01*
X135438739Y-87573261D01*
X135555796Y-87660889D01*
X135692799Y-87711989D01*
X135720050Y-87714918D01*
X135753345Y-87718499D01*
X135753362Y-87718500D01*
X137550638Y-87718500D01*
X137550654Y-87718499D01*
X137577692Y-87715591D01*
X137611201Y-87711989D01*
X137748204Y-87660889D01*
X137865261Y-87573261D01*
X137952889Y-87456204D01*
X138003989Y-87319201D01*
X138008215Y-87279895D01*
X138010499Y-87258654D01*
X138010500Y-87258637D01*
X138010500Y-85461362D01*
X138010499Y-85461350D01*
X138009857Y-85455377D01*
X138022261Y-85386617D01*
X138045461Y-85354441D01*
X138214086Y-85185816D01*
X138275408Y-85152334D01*
X138301766Y-85149500D01*
X138421712Y-85149500D01*
X138488751Y-85169185D01*
X138496023Y-85174233D01*
X138502738Y-85179259D01*
X138502739Y-85179261D01*
X138619796Y-85266889D01*
X138756799Y-85317989D01*
X138784050Y-85320918D01*
X138817345Y-85324499D01*
X138817362Y-85324500D01*
X140114638Y-85324500D01*
X140114654Y-85324499D01*
X140141692Y-85321591D01*
X140175201Y-85317989D01*
X140312204Y-85266889D01*
X140429261Y-85179261D01*
X140516889Y-85062204D01*
X140567989Y-84925201D01*
X140571591Y-84891692D01*
X140574499Y-84864654D01*
X140857500Y-84864654D01*
X140864011Y-84925202D01*
X140864011Y-84925204D01*
X140913957Y-85059111D01*
X140915111Y-85062204D01*
X141002739Y-85179261D01*
X141119796Y-85266889D01*
X141256799Y-85317989D01*
X141284050Y-85320918D01*
X141317345Y-85324499D01*
X141317362Y-85324500D01*
X142614638Y-85324500D01*
X142614654Y-85324499D01*
X142641692Y-85321591D01*
X142675201Y-85317989D01*
X142812204Y-85266889D01*
X142859314Y-85231622D01*
X142924777Y-85207206D01*
X142993050Y-85222057D01*
X143021305Y-85243209D01*
X143190915Y-85412819D01*
X143224400Y-85474142D01*
X143219416Y-85543834D01*
X143177544Y-85599767D01*
X143112080Y-85624184D01*
X143103234Y-85624500D01*
X142999345Y-85624500D01*
X142938797Y-85631011D01*
X142938795Y-85631011D01*
X142801795Y-85682111D01*
X142684739Y-85769739D01*
X142597111Y-85886795D01*
X142546011Y-86023795D01*
X142546011Y-86023797D01*
X142539500Y-86084345D01*
X142539500Y-87651654D01*
X142546011Y-87712202D01*
X142546011Y-87712204D01*
X142592490Y-87836815D01*
X142597111Y-87849204D01*
X142684739Y-87966261D01*
X142801796Y-88053889D01*
X142938799Y-88104989D01*
X142966050Y-88107918D01*
X142999345Y-88111499D01*
X142999362Y-88111500D01*
X144116638Y-88111500D01*
X144116654Y-88111499D01*
X144143692Y-88108591D01*
X144177201Y-88104989D01*
X144314204Y-88053889D01*
X144431261Y-87966261D01*
X144518889Y-87849204D01*
X144569989Y-87712201D01*
X144575482Y-87661107D01*
X144576499Y-87651654D01*
X144576500Y-87651637D01*
X144576500Y-87044254D01*
X144596185Y-86977215D01*
X144612819Y-86956573D01*
X144618573Y-86950819D01*
X144679896Y-86917334D01*
X144706254Y-86914500D01*
X145138100Y-86914500D01*
X145205139Y-86934185D01*
X145250894Y-86986989D01*
X145262100Y-87038500D01*
X145262100Y-87907254D01*
X145268611Y-87967802D01*
X145268611Y-87967804D01*
X145319710Y-88104804D01*
X145319711Y-88104804D01*
X145407339Y-88221861D01*
X145524396Y-88309489D01*
X145661399Y-88360589D01*
X145688650Y-88363518D01*
X145721945Y-88367099D01*
X145721962Y-88367100D01*
X156030038Y-88367100D01*
X156030054Y-88367099D01*
X156057092Y-88364191D01*
X156090601Y-88360589D01*
X156227604Y-88309489D01*
X156344661Y-88221861D01*
X156432289Y-88104804D01*
X156483389Y-87967801D01*
X156487083Y-87933441D01*
X156489899Y-87907254D01*
X156489900Y-87907237D01*
X156489900Y-86907500D01*
X156509585Y-86840461D01*
X156562389Y-86794706D01*
X156613900Y-86783500D01*
X160023061Y-86783500D01*
X160090100Y-86803185D01*
X160110737Y-86819814D01*
X160191706Y-86900783D01*
X160220225Y-86929302D01*
X160288653Y-86977215D01*
X160393442Y-87050589D01*
X160585090Y-87139956D01*
X160600389Y-87144055D01*
X160623414Y-87150225D01*
X160683074Y-87186590D01*
X160713603Y-87249437D01*
X160705308Y-87318813D01*
X160660823Y-87372691D01*
X160623414Y-87389775D01*
X160585094Y-87400042D01*
X160585088Y-87400045D01*
X160393443Y-87489410D01*
X160393441Y-87489411D01*
X160220221Y-87610700D01*
X160070700Y-87760221D01*
X159949411Y-87933441D01*
X159949410Y-87933443D01*
X159860045Y-88125088D01*
X159860041Y-88125097D01*
X159805315Y-88329339D01*
X159805313Y-88329350D01*
X159786884Y-88539998D01*
X159786884Y-88540001D01*
X159805313Y-88750649D01*
X159805315Y-88750660D01*
X159860041Y-88954902D01*
X159860043Y-88954906D01*
X159860044Y-88954910D01*
X159923940Y-89091935D01*
X159949410Y-89146556D01*
X159949411Y-89146558D01*
X160070700Y-89319778D01*
X160220221Y-89469299D01*
X160220224Y-89469301D01*
X160393442Y-89590589D01*
X160585090Y-89679956D01*
X160789345Y-89734686D01*
X160939812Y-89747850D01*
X160999998Y-89753116D01*
X161000000Y-89753116D01*
X161000002Y-89753116D01*
X161052663Y-89748508D01*
X161210655Y-89734686D01*
X161414910Y-89679956D01*
X161606558Y-89590589D01*
X161779776Y-89469301D01*
X161929301Y-89319776D01*
X161959689Y-89276377D01*
X162014265Y-89232752D01*
X162061264Y-89223500D01*
X164437469Y-89223500D01*
X164441214Y-89223613D01*
X164501570Y-89227264D01*
X164501570Y-89227263D01*
X164501572Y-89227264D01*
X164561048Y-89216363D01*
X164564738Y-89215802D01*
X164624774Y-89208513D01*
X164633759Y-89205104D01*
X164655382Y-89199076D01*
X164664837Y-89197344D01*
X164720001Y-89172515D01*
X164723429Y-89171096D01*
X164779971Y-89149654D01*
X164787882Y-89144192D01*
X164807425Y-89133170D01*
X164816197Y-89129223D01*
X164863816Y-89091914D01*
X164866792Y-89089724D01*
X164916573Y-89055365D01*
X164956685Y-89010086D01*
X164959219Y-89007394D01*
X165596795Y-88369819D01*
X165658119Y-88336334D01*
X165684477Y-88333500D01*
X166248638Y-88333500D01*
X166248654Y-88333499D01*
X166275692Y-88330591D01*
X166309201Y-88326989D01*
X166446204Y-88275889D01*
X166563261Y-88188261D01*
X166650889Y-88071204D01*
X166701989Y-87934201D01*
X166705635Y-87900289D01*
X166708499Y-87873654D01*
X166708500Y-87873637D01*
X166708500Y-87426362D01*
X166708499Y-87426345D01*
X166701989Y-87365799D01*
X166700205Y-87358249D01*
X166702181Y-87357781D01*
X166697945Y-87298656D01*
X166701157Y-87287719D01*
X166701989Y-87284200D01*
X166708499Y-87223654D01*
X166708500Y-87223637D01*
X166708500Y-86776362D01*
X166708499Y-86776345D01*
X166704071Y-86735166D01*
X166701989Y-86715799D01*
X166700684Y-86712301D01*
X166674373Y-86641758D01*
X166650889Y-86578796D01*
X166563261Y-86461739D01*
X166446204Y-86374111D01*
X166435708Y-86370196D01*
X166309203Y-86323011D01*
X166248654Y-86316500D01*
X166248638Y-86316500D01*
X165941344Y-86316500D01*
X164334477Y-86316500D01*
X164267438Y-86296815D01*
X164246796Y-86280181D01*
X163639819Y-85673203D01*
X163606334Y-85611880D01*
X163603500Y-85585522D01*
X163603500Y-82248670D01*
X163623185Y-82181631D01*
X163662219Y-82145433D01*
X163661280Y-82143995D01*
X163665558Y-82141198D01*
X163665576Y-82141189D01*
X163843240Y-82002906D01*
X163942614Y-81894957D01*
X163995715Y-81837276D01*
X163995716Y-81837274D01*
X163995722Y-81837268D01*
X164118860Y-81648791D01*
X164209296Y-81442616D01*
X164264564Y-81224368D01*
X164264860Y-81220795D01*
X164283156Y-81000005D01*
X164283156Y-80999994D01*
X164264565Y-80775640D01*
X164264563Y-80775628D01*
X164224661Y-80618058D01*
X164209296Y-80557384D01*
X164118860Y-80351209D01*
X164113169Y-80342499D01*
X164029555Y-80214517D01*
X163995722Y-80162732D01*
X163995719Y-80162729D01*
X163995715Y-80162723D01*
X163843243Y-79997097D01*
X163843238Y-79997092D01*
X163696209Y-79882654D01*
X163665576Y-79858811D01*
X163665575Y-79858810D01*
X163665572Y-79858808D01*
X163467580Y-79751661D01*
X163467577Y-79751659D01*
X163467574Y-79751658D01*
X163467571Y-79751657D01*
X163467569Y-79751656D01*
X163254637Y-79678556D01*
X163032569Y-79641500D01*
X162807431Y-79641500D01*
X162585362Y-79678556D01*
X162372430Y-79751656D01*
X162372419Y-79751661D01*
X162174427Y-79858808D01*
X162174422Y-79858812D01*
X161996761Y-79997092D01*
X161996756Y-79997097D01*
X161844284Y-80162723D01*
X161844276Y-80162734D01*
X161721140Y-80351207D01*
X161630703Y-80557385D01*
X161575436Y-80775628D01*
X161575434Y-80775640D01*
X161556844Y-80999994D01*
X161556844Y-81000005D01*
X161575434Y-81224359D01*
X161575436Y-81224371D01*
X161630703Y-81442614D01*
X161721140Y-81648792D01*
X161844276Y-81837265D01*
X161844284Y-81837276D01*
X161970967Y-81974888D01*
X161996760Y-82002906D01*
X162174424Y-82141189D01*
X162174435Y-82141195D01*
X162178720Y-82143995D01*
X162177619Y-82145680D01*
X162221094Y-82188808D01*
X162236500Y-82248670D01*
X162236499Y-85265672D01*
X162216814Y-85332711D01*
X162164010Y-85378466D01*
X162094852Y-85388410D01*
X162031296Y-85359385D01*
X162010926Y-85336797D01*
X161937283Y-85231623D01*
X161929299Y-85220221D01*
X161779778Y-85070700D01*
X161606558Y-84949411D01*
X161606556Y-84949410D01*
X161554646Y-84925204D01*
X161414910Y-84860044D01*
X161414906Y-84860043D01*
X161414902Y-84860041D01*
X161210660Y-84805315D01*
X161210656Y-84805314D01*
X161210655Y-84805314D01*
X161210654Y-84805313D01*
X161210649Y-84805313D01*
X161000002Y-84786884D01*
X160999998Y-84786884D01*
X160789350Y-84805313D01*
X160789339Y-84805315D01*
X160585097Y-84860041D01*
X160585088Y-84860045D01*
X160393443Y-84949410D01*
X160393441Y-84949411D01*
X160220225Y-85070697D01*
X160165484Y-85125439D01*
X160110740Y-85180182D01*
X160049420Y-85213666D01*
X160023061Y-85216500D01*
X156613900Y-85216500D01*
X156546861Y-85196815D01*
X156501106Y-85144011D01*
X156489900Y-85092500D01*
X156489900Y-84304762D01*
X156489899Y-84304745D01*
X156486557Y-84273670D01*
X156483389Y-84244199D01*
X156432289Y-84107196D01*
X156344661Y-83990139D01*
X156227604Y-83902511D01*
X156213129Y-83897112D01*
X156090603Y-83851411D01*
X156030054Y-83844900D01*
X156030038Y-83844900D01*
X145721962Y-83844900D01*
X145721945Y-83844900D01*
X145661397Y-83851411D01*
X145661395Y-83851411D01*
X145524395Y-83902511D01*
X145407339Y-83990139D01*
X145319711Y-84107195D01*
X145268611Y-84244195D01*
X145268611Y-84244197D01*
X145262100Y-84304745D01*
X145262100Y-85173500D01*
X145242415Y-85240539D01*
X145189611Y-85286294D01*
X145138100Y-85297500D01*
X144918766Y-85297500D01*
X144851727Y-85277815D01*
X144831085Y-85261181D01*
X143697088Y-84127183D01*
X143687187Y-84114823D01*
X143686977Y-84114998D01*
X143682002Y-84108986D01*
X143682000Y-84108982D01*
X143631621Y-84061673D01*
X143630253Y-84060348D01*
X143609770Y-84039865D01*
X143609769Y-84039864D01*
X143609767Y-84039862D01*
X143607250Y-84037910D01*
X143604183Y-84035531D01*
X143599750Y-84031744D01*
X143593524Y-84025898D01*
X143565321Y-83999414D01*
X143565319Y-83999412D01*
X143547431Y-83989578D01*
X143531170Y-83978897D01*
X143515039Y-83966384D01*
X143471693Y-83947627D01*
X143466445Y-83945056D01*
X143435943Y-83928288D01*
X143425060Y-83922305D01*
X143421660Y-83921432D01*
X143405287Y-83917228D01*
X143386881Y-83910926D01*
X143368144Y-83902818D01*
X143368146Y-83902818D01*
X143321496Y-83895430D01*
X143315781Y-83894246D01*
X143295612Y-83889068D01*
X143270032Y-83882500D01*
X143270030Y-83882500D01*
X143249616Y-83882500D01*
X143230217Y-83880973D01*
X143210058Y-83877780D01*
X143210057Y-83877780D01*
X143163034Y-83882225D01*
X143157196Y-83882500D01*
X143010288Y-83882500D01*
X142943249Y-83862815D01*
X142935977Y-83857767D01*
X142929261Y-83852739D01*
X142812204Y-83765111D01*
X142774074Y-83750889D01*
X142675203Y-83714011D01*
X142614654Y-83707500D01*
X142614638Y-83707500D01*
X141317362Y-83707500D01*
X141317345Y-83707500D01*
X141256797Y-83714011D01*
X141256795Y-83714011D01*
X141119795Y-83765111D01*
X141002739Y-83852739D01*
X140915111Y-83969795D01*
X140864011Y-84106795D01*
X140864011Y-84106797D01*
X140857500Y-84167345D01*
X140857500Y-84864654D01*
X140574499Y-84864654D01*
X140574500Y-84864637D01*
X140574500Y-84167362D01*
X140574499Y-84167345D01*
X140570180Y-84127183D01*
X140567989Y-84106799D01*
X140560572Y-84086914D01*
X140543024Y-84039865D01*
X140516889Y-83969796D01*
X140429261Y-83852739D01*
X140312204Y-83765111D01*
X140274074Y-83750889D01*
X140175203Y-83714011D01*
X140114654Y-83707500D01*
X140114638Y-83707500D01*
X138817362Y-83707500D01*
X138817345Y-83707500D01*
X138756797Y-83714011D01*
X138756795Y-83714011D01*
X138619795Y-83765111D01*
X138542641Y-83822868D01*
X138502739Y-83852739D01*
X138502738Y-83852739D01*
X138496023Y-83857767D01*
X138430558Y-83882184D01*
X138421712Y-83882500D01*
X138071629Y-83882500D01*
X138055886Y-83880761D01*
X138055861Y-83881033D01*
X138048093Y-83880298D01*
X137979028Y-83882469D01*
X137977080Y-83882500D01*
X137948142Y-83882500D01*
X137941136Y-83883384D01*
X137935318Y-83883842D01*
X137888111Y-83885326D01*
X137888108Y-83885327D01*
X137868505Y-83891022D01*
X137849459Y-83894966D01*
X137829203Y-83897526D01*
X137829201Y-83897526D01*
X137829199Y-83897527D01*
X137785282Y-83914914D01*
X137779756Y-83916806D01*
X137734406Y-83929982D01*
X137716833Y-83940374D01*
X137699370Y-83948929D01*
X137680385Y-83956446D01*
X137680383Y-83956447D01*
X137642179Y-83984204D01*
X137637296Y-83987412D01*
X137596637Y-84011458D01*
X137582196Y-84025898D01*
X137567408Y-84038527D01*
X137550897Y-84050523D01*
X137550892Y-84050528D01*
X137520790Y-84086914D01*
X137516858Y-84091235D01*
X136642914Y-84965181D01*
X136581591Y-84998666D01*
X136555233Y-85001500D01*
X135753345Y-85001500D01*
X135692797Y-85008011D01*
X135692795Y-85008011D01*
X135555795Y-85059111D01*
X135438739Y-85146739D01*
X135351111Y-85263795D01*
X135300011Y-85400795D01*
X135300011Y-85400797D01*
X135293500Y-85461345D01*
X135293500Y-87258654D01*
X128664840Y-87258654D01*
X128655267Y-87253203D01*
X128622882Y-87191291D01*
X128620500Y-87167101D01*
X128620500Y-85542500D01*
X128620500Y-83847875D01*
X128640184Y-83780840D01*
X128645233Y-83773568D01*
X128662211Y-83750889D01*
X128701629Y-83698232D01*
X128720887Y-83672507D01*
X128720888Y-83672506D01*
X128724492Y-83662845D01*
X128771989Y-83535501D01*
X128776164Y-83496667D01*
X128778856Y-83471635D01*
X128779904Y-83471747D01*
X128801690Y-83409980D01*
X128856865Y-83367113D01*
X128902273Y-83358500D01*
X130443565Y-83358500D01*
X130510604Y-83378185D01*
X130542830Y-83408187D01*
X130620739Y-83512261D01*
X130737796Y-83599889D01*
X130874799Y-83650989D01*
X130902050Y-83653918D01*
X130935345Y-83657499D01*
X130935362Y-83657500D01*
X133732638Y-83657500D01*
X133732654Y-83657499D01*
X133759692Y-83654591D01*
X133793201Y-83650989D01*
X133930204Y-83599889D01*
X134047261Y-83512261D01*
X134125169Y-83408188D01*
X134181102Y-83366318D01*
X134224435Y-83358500D01*
X135041006Y-83358500D01*
X135108045Y-83378185D01*
X135153800Y-83430989D01*
X135157182Y-83439153D01*
X135197111Y-83546204D01*
X135284739Y-83663261D01*
X135401796Y-83750889D01*
X135538799Y-83801989D01*
X135566050Y-83804918D01*
X135599345Y-83808499D01*
X135599362Y-83808500D01*
X137196638Y-83808500D01*
X137196654Y-83808499D01*
X137223692Y-83805591D01*
X137257201Y-83801989D01*
X137394204Y-83750889D01*
X137511261Y-83663261D01*
X137598889Y-83546204D01*
X137614196Y-83505164D01*
X137656067Y-83449233D01*
X137721531Y-83424816D01*
X137730377Y-83424500D01*
X140114638Y-83424500D01*
X140114654Y-83424499D01*
X140141692Y-83421591D01*
X140175201Y-83417989D01*
X140312204Y-83366889D01*
X140429261Y-83279261D01*
X140516889Y-83162204D01*
X140567989Y-83025201D01*
X140573121Y-82977468D01*
X140574499Y-82964654D01*
X140857500Y-82964654D01*
X140864011Y-83025202D01*
X140864011Y-83025204D01*
X140894089Y-83105843D01*
X140915111Y-83162204D01*
X141002739Y-83279261D01*
X141119796Y-83366889D01*
X141256799Y-83417989D01*
X141284050Y-83420918D01*
X141317345Y-83424499D01*
X141317362Y-83424500D01*
X143535093Y-83424500D01*
X143535097Y-83424500D01*
X143568081Y-83416970D01*
X143576244Y-83415108D01*
X143583106Y-83413942D01*
X143590928Y-83413060D01*
X143625047Y-83409217D01*
X143664906Y-83395269D01*
X143671542Y-83393357D01*
X143712720Y-83383959D01*
X143750758Y-83365639D01*
X143757173Y-83362983D01*
X143797015Y-83349043D01*
X143832752Y-83326586D01*
X143838830Y-83323226D01*
X143876870Y-83304909D01*
X143909885Y-83278579D01*
X143915535Y-83274570D01*
X143951281Y-83252111D01*
X144080111Y-83123281D01*
X144080111Y-83123280D01*
X145448751Y-81754639D01*
X145510072Y-81721156D01*
X145579762Y-81726139D01*
X145579764Y-81726140D01*
X145579765Y-81726141D01*
X145620097Y-81741184D01*
X145661399Y-81756589D01*
X145688650Y-81759518D01*
X145721945Y-81763099D01*
X145721962Y-81763100D01*
X156030038Y-81763100D01*
X156030054Y-81763099D01*
X156057092Y-81760191D01*
X156090601Y-81756589D01*
X156227604Y-81705489D01*
X156344661Y-81617861D01*
X156432289Y-81500804D01*
X156483389Y-81363801D01*
X156489126Y-81310439D01*
X156489899Y-81303254D01*
X156489900Y-81303237D01*
X156489900Y-77700762D01*
X156489899Y-77700745D01*
X156486557Y-77669670D01*
X156483389Y-77640199D01*
X156432289Y-77503196D01*
X156344661Y-77386139D01*
X156227604Y-77298511D01*
X156209759Y-77291855D01*
X156090603Y-77247411D01*
X156030054Y-77240900D01*
X156030038Y-77240900D01*
X145721962Y-77240900D01*
X145721945Y-77240900D01*
X145661397Y-77247411D01*
X145661395Y-77247411D01*
X145524395Y-77298511D01*
X145407339Y-77386139D01*
X145319711Y-77503195D01*
X145268611Y-77640195D01*
X145268611Y-77640197D01*
X145262100Y-77700745D01*
X145262100Y-79603145D01*
X145242415Y-79670184D01*
X145225781Y-79690826D01*
X143145427Y-81771181D01*
X143084104Y-81804666D01*
X143057746Y-81807500D01*
X141317345Y-81807500D01*
X141256797Y-81814011D01*
X141256795Y-81814011D01*
X141119795Y-81865111D01*
X141002739Y-81952739D01*
X140915111Y-82069795D01*
X140864011Y-82206795D01*
X140864011Y-82206797D01*
X140857500Y-82267345D01*
X140857500Y-82964654D01*
X140574499Y-82964654D01*
X140574500Y-82964637D01*
X140574500Y-82267362D01*
X140574499Y-82267345D01*
X140571157Y-82236270D01*
X140567989Y-82206799D01*
X140516889Y-82069796D01*
X140429261Y-81952739D01*
X140312204Y-81865111D01*
X140312203Y-81865110D01*
X140175203Y-81814011D01*
X140114654Y-81807500D01*
X140114638Y-81807500D01*
X139511406Y-81807500D01*
X137773919Y-81807500D01*
X137706880Y-81787815D01*
X137661125Y-81735011D01*
X137650630Y-81696760D01*
X137650349Y-81694147D01*
X137649989Y-81690799D01*
X137644231Y-81675362D01*
X137602880Y-81564497D01*
X137598889Y-81553796D01*
X137511261Y-81436739D01*
X137394204Y-81349111D01*
X137394204Y-81349110D01*
X137257203Y-81298011D01*
X137196654Y-81291500D01*
X137196638Y-81291500D01*
X135599362Y-81291500D01*
X135599345Y-81291500D01*
X135538797Y-81298011D01*
X135538795Y-81298011D01*
X135401795Y-81349111D01*
X135284739Y-81436739D01*
X135197112Y-81553793D01*
X135197110Y-81553796D01*
X135197111Y-81553796D01*
X135157186Y-81660835D01*
X135115316Y-81716768D01*
X135049851Y-81741184D01*
X135041006Y-81741500D01*
X134188503Y-81741500D01*
X134121464Y-81721815D01*
X134089236Y-81691811D01*
X134047261Y-81635739D01*
X133930204Y-81548111D01*
X133930203Y-81548110D01*
X133793203Y-81497011D01*
X133732654Y-81490500D01*
X133732638Y-81490500D01*
X130935362Y-81490500D01*
X130935345Y-81490500D01*
X130874797Y-81497011D01*
X130874795Y-81497011D01*
X130737795Y-81548111D01*
X130644622Y-81617860D01*
X130620739Y-81635739D01*
X130579522Y-81690799D01*
X130578764Y-81691811D01*
X130522830Y-81733682D01*
X130479497Y-81741500D01*
X128902273Y-81741500D01*
X128835234Y-81721815D01*
X128789479Y-81669011D01*
X128779474Y-81628298D01*
X128778856Y-81628365D01*
X128775184Y-81594225D01*
X128771989Y-81564499D01*
X128720889Y-81427496D01*
X128662733Y-81349809D01*
X128638317Y-81284347D01*
X128653168Y-81216074D01*
X128702574Y-81166668D01*
X128762001Y-81151500D01*
X129964366Y-81151500D01*
X129980113Y-81153238D01*
X129980139Y-81152968D01*
X129987906Y-81153702D01*
X129987908Y-81153701D01*
X129987909Y-81153702D01*
X129997259Y-81153408D01*
X130056991Y-81151531D01*
X130058939Y-81151500D01*
X130087857Y-81151500D01*
X130089222Y-81151327D01*
X130094862Y-81150614D01*
X130100685Y-81150156D01*
X130126708Y-81149338D01*
X130147890Y-81148673D01*
X130158758Y-81145515D01*
X130167481Y-81142980D01*
X130186538Y-81139032D01*
X130206797Y-81136474D01*
X130250721Y-81119082D01*
X130256221Y-81117199D01*
X130301593Y-81104018D01*
X130319165Y-81093625D01*
X130336632Y-81085068D01*
X130355617Y-81077552D01*
X130393826Y-81049790D01*
X130398704Y-81046585D01*
X130439362Y-81022542D01*
X130453802Y-81008100D01*
X130468592Y-80995470D01*
X130485107Y-80983472D01*
X130515222Y-80947067D01*
X130519126Y-80942776D01*
X131235801Y-80226101D01*
X131297122Y-80192618D01*
X131366814Y-80197602D01*
X131397788Y-80214515D01*
X131491796Y-80284889D01*
X131606949Y-80327839D01*
X131627742Y-80335595D01*
X131628799Y-80335989D01*
X131656050Y-80338918D01*
X131689345Y-80342499D01*
X131689362Y-80342500D01*
X133486638Y-80342500D01*
X133486654Y-80342499D01*
X133513692Y-80339591D01*
X133547201Y-80335989D01*
X133548258Y-80335595D01*
X133561768Y-80330555D01*
X133684204Y-80284889D01*
X133801261Y-80197261D01*
X133888889Y-80080204D01*
X133939989Y-79943201D01*
X133943591Y-79909692D01*
X133946499Y-79882654D01*
X133946498Y-79882647D01*
X133946500Y-79882638D01*
X133946500Y-78085362D01*
X133946498Y-78085352D01*
X133946499Y-78085345D01*
X133943157Y-78054270D01*
X133939989Y-78024799D01*
X133888889Y-77887796D01*
X133801261Y-77770739D01*
X133684204Y-77683111D01*
X133684204Y-77683110D01*
X133566404Y-77639172D01*
X133510471Y-77597300D01*
X133486055Y-77531835D01*
X133500908Y-77463562D01*
X133518504Y-77439014D01*
X133663722Y-77281268D01*
X133786860Y-77092791D01*
X133877296Y-76886616D01*
X133932564Y-76668368D01*
X133951156Y-76444000D01*
X133932564Y-76219632D01*
X133877296Y-76001384D01*
X133786860Y-75795209D01*
X133663722Y-75606732D01*
X133663719Y-75606729D01*
X133663715Y-75606723D01*
X133511243Y-75441097D01*
X133511238Y-75441092D01*
X133333577Y-75302812D01*
X133333572Y-75302808D01*
X133297068Y-75283053D01*
X133247478Y-75233833D01*
X133232371Y-75165616D01*
X133256542Y-75100061D01*
X133297069Y-75064945D01*
X133333576Y-75045189D01*
X133511240Y-74906906D01*
X133663722Y-74741268D01*
X133786860Y-74552791D01*
X133877296Y-74346616D01*
X133932564Y-74128368D01*
X133951156Y-73904000D01*
X133932564Y-73679632D01*
X133877296Y-73461384D01*
X133786860Y-73255209D01*
X133784692Y-73251891D01*
X133680169Y-73091906D01*
X133663722Y-73066732D01*
X133663719Y-73066729D01*
X133663715Y-73066723D01*
X133511243Y-72901097D01*
X133511238Y-72901092D01*
X133333577Y-72762812D01*
X133333578Y-72762812D01*
X133333576Y-72762811D01*
X133297070Y-72743055D01*
X133247479Y-72693836D01*
X133232371Y-72625619D01*
X133256541Y-72560064D01*
X133297070Y-72524945D01*
X133297866Y-72524514D01*
X133333576Y-72505189D01*
X133511240Y-72366906D01*
X133616433Y-72252637D01*
X133663715Y-72201276D01*
X133663716Y-72201274D01*
X133663722Y-72201268D01*
X133786860Y-72012791D01*
X133877296Y-71806616D01*
X133932564Y-71588368D01*
X133932565Y-71588359D01*
X133951156Y-71364005D01*
X133951156Y-71363994D01*
X133932565Y-71139640D01*
X133932563Y-71139628D01*
X133877296Y-70921385D01*
X133867270Y-70898528D01*
X133786860Y-70715209D01*
X133663722Y-70526732D01*
X133663719Y-70526729D01*
X133663715Y-70526723D01*
X133511243Y-70361097D01*
X133511238Y-70361092D01*
X133333577Y-70222812D01*
X133333572Y-70222808D01*
X133135580Y-70115661D01*
X133135577Y-70115659D01*
X133135574Y-70115658D01*
X133135571Y-70115657D01*
X133135569Y-70115656D01*
X132922637Y-70042556D01*
X132700569Y-70005500D01*
X132475431Y-70005500D01*
X132253362Y-70042556D01*
X132040430Y-70115656D01*
X132040419Y-70115661D01*
X131842427Y-70222808D01*
X131842422Y-70222812D01*
X131664761Y-70361092D01*
X131664756Y-70361097D01*
X131512284Y-70526723D01*
X131512276Y-70526734D01*
X131415852Y-70674322D01*
X131362706Y-70719679D01*
X131312044Y-70730500D01*
X128363632Y-70730500D01*
X128347880Y-70728760D01*
X128347855Y-70729032D01*
X128340093Y-70728297D01*
X128270997Y-70730469D01*
X128269049Y-70730500D01*
X128240144Y-70730500D01*
X128240141Y-70730500D01*
X128240129Y-70730501D01*
X128233137Y-70731384D01*
X128227320Y-70731841D01*
X128180111Y-70733325D01*
X128180109Y-70733326D01*
X128160496Y-70739023D01*
X128141459Y-70742965D01*
X128121208Y-70745524D01*
X128121202Y-70745526D01*
X128077299Y-70762907D01*
X128071775Y-70764798D01*
X128026406Y-70777981D01*
X128026401Y-70777983D01*
X128008827Y-70788376D01*
X127991362Y-70796932D01*
X127972387Y-70804445D01*
X127972385Y-70804446D01*
X127934176Y-70832206D01*
X127929294Y-70835412D01*
X127888635Y-70859458D01*
X127874200Y-70873894D01*
X127859412Y-70886525D01*
X127842894Y-70898526D01*
X127842888Y-70898532D01*
X127812780Y-70934925D01*
X127808849Y-70939246D01*
X127111182Y-71636912D01*
X127098820Y-71646816D01*
X127098994Y-71647026D01*
X127092983Y-71651998D01*
X127045672Y-71702378D01*
X127044319Y-71703774D01*
X127023873Y-71724221D01*
X127023857Y-71724239D01*
X127019531Y-71729814D01*
X127015747Y-71734244D01*
X126983419Y-71768671D01*
X126983412Y-71768681D01*
X126973579Y-71786567D01*
X126962903Y-71802820D01*
X126950386Y-71818957D01*
X126950385Y-71818959D01*
X126931625Y-71862310D01*
X126929055Y-71867556D01*
X126906303Y-71908941D01*
X126906303Y-71908942D01*
X126901225Y-71928720D01*
X126894925Y-71947122D01*
X126886818Y-71965857D01*
X126879431Y-72012495D01*
X126878247Y-72018216D01*
X126866499Y-72063971D01*
X126866499Y-72084387D01*
X126864973Y-72103775D01*
X126861780Y-72123939D01*
X126861779Y-72123946D01*
X126866224Y-72170967D01*
X126866499Y-72176803D01*
X126866500Y-72239608D01*
X126846817Y-72306648D01*
X126794013Y-72352404D01*
X126724855Y-72362348D01*
X126661299Y-72333324D01*
X126623523Y-72274547D01*
X126619478Y-72255152D01*
X126619160Y-72252637D01*
X126618474Y-72247203D01*
X126601085Y-72203286D01*
X126599196Y-72197766D01*
X126586018Y-72152407D01*
X126575626Y-72134835D01*
X126567066Y-72117362D01*
X126565559Y-72113556D01*
X126559552Y-72098383D01*
X126531794Y-72060179D01*
X126528587Y-72055296D01*
X126515145Y-72032567D01*
X126504542Y-72014638D01*
X126490108Y-72000204D01*
X126477471Y-71985409D01*
X126465472Y-71968893D01*
X126465470Y-71968890D01*
X126429073Y-71938781D01*
X126424751Y-71934847D01*
X125983087Y-71493182D01*
X125973180Y-71480816D01*
X125972971Y-71480990D01*
X125968003Y-71474984D01*
X125917621Y-71427673D01*
X125916222Y-71426317D01*
X125895768Y-71405863D01*
X125893792Y-71404331D01*
X125890183Y-71401531D01*
X125885750Y-71397744D01*
X125879524Y-71391898D01*
X125851321Y-71365414D01*
X125851319Y-71365412D01*
X125833431Y-71355578D01*
X125817170Y-71344897D01*
X125801039Y-71332384D01*
X125757693Y-71313627D01*
X125752445Y-71311056D01*
X125725024Y-71295982D01*
X125711060Y-71288305D01*
X125707660Y-71287432D01*
X125691287Y-71283228D01*
X125672881Y-71276926D01*
X125654144Y-71268818D01*
X125654146Y-71268818D01*
X125607496Y-71261430D01*
X125601781Y-71260246D01*
X125581612Y-71255068D01*
X125556032Y-71248500D01*
X125556030Y-71248500D01*
X125535616Y-71248500D01*
X125516217Y-71246973D01*
X125496058Y-71243780D01*
X125496057Y-71243780D01*
X125449034Y-71248225D01*
X125443196Y-71248500D01*
X124543629Y-71248500D01*
X124527886Y-71246761D01*
X124527861Y-71247033D01*
X124520093Y-71246298D01*
X124451028Y-71248469D01*
X124449080Y-71248500D01*
X124420142Y-71248500D01*
X124413136Y-71249384D01*
X124407318Y-71249842D01*
X124360111Y-71251326D01*
X124360108Y-71251327D01*
X124340505Y-71257022D01*
X124321459Y-71260966D01*
X124301203Y-71263526D01*
X124301201Y-71263526D01*
X124257292Y-71280910D01*
X124251768Y-71282801D01*
X124206404Y-71295982D01*
X124206403Y-71295983D01*
X124188824Y-71306378D01*
X124171364Y-71314932D01*
X124152384Y-71322447D01*
X124152381Y-71322449D01*
X124114182Y-71350201D01*
X124109300Y-71353409D01*
X124068638Y-71377456D01*
X124054196Y-71391898D01*
X124039408Y-71404527D01*
X124022897Y-71416523D01*
X124022892Y-71416528D01*
X123992790Y-71452914D01*
X123988858Y-71457236D01*
X123563179Y-71882914D01*
X123550820Y-71892818D01*
X123550993Y-71893027D01*
X123544981Y-71898000D01*
X123497673Y-71948377D01*
X123496320Y-71949773D01*
X123475873Y-71970221D01*
X123475857Y-71970239D01*
X123471531Y-71975814D01*
X123467747Y-71980244D01*
X123435419Y-72014671D01*
X123435412Y-72014681D01*
X123425579Y-72032567D01*
X123414903Y-72048820D01*
X123402386Y-72064957D01*
X123402385Y-72064959D01*
X123383625Y-72108310D01*
X123381055Y-72113556D01*
X123358303Y-72154941D01*
X123358303Y-72154942D01*
X123353225Y-72174720D01*
X123346925Y-72193122D01*
X123338818Y-72211857D01*
X123331431Y-72258495D01*
X123330246Y-72264216D01*
X123318500Y-72309965D01*
X123318500Y-72330384D01*
X123316973Y-72349783D01*
X123313780Y-72369941D01*
X123313780Y-72369942D01*
X123318225Y-72416966D01*
X123318500Y-72422804D01*
X123318500Y-80284232D01*
X123298815Y-80351271D01*
X123282181Y-80371913D01*
X122168914Y-81485181D01*
X122107591Y-81518666D01*
X122081233Y-81521500D01*
X118721500Y-81521500D01*
X118654461Y-81501815D01*
X118608706Y-81449011D01*
X118597500Y-81397500D01*
X118597500Y-81281362D01*
X118597499Y-81281345D01*
X118594157Y-81250270D01*
X118590989Y-81220799D01*
X118539889Y-81083796D01*
X118452261Y-80966739D01*
X118335204Y-80879111D01*
X118329571Y-80877010D01*
X118198203Y-80828011D01*
X118137654Y-80821500D01*
X118137638Y-80821500D01*
X115440362Y-80821500D01*
X115440345Y-80821500D01*
X115379797Y-80828011D01*
X115379795Y-80828011D01*
X115242795Y-80879111D01*
X115125739Y-80966739D01*
X115038111Y-81083795D01*
X114987011Y-81220795D01*
X114987011Y-81220797D01*
X114980500Y-81281345D01*
X114980499Y-81281362D01*
X114980499Y-83978637D01*
X114980500Y-83978654D01*
X114987011Y-84039202D01*
X114987011Y-84039204D01*
X115019827Y-84127183D01*
X115038111Y-84176204D01*
X115125739Y-84293261D01*
X115242796Y-84380889D01*
X115379799Y-84431989D01*
X115407050Y-84434918D01*
X115440345Y-84438499D01*
X115440362Y-84438500D01*
X118137638Y-84438500D01*
X118137654Y-84438499D01*
X118164692Y-84435591D01*
X118198201Y-84431989D01*
X118335204Y-84380889D01*
X118452261Y-84293261D01*
X118539889Y-84176204D01*
X118590741Y-84039865D01*
X118590988Y-84039204D01*
X118590988Y-84039203D01*
X118590989Y-84039201D01*
X118594591Y-84005692D01*
X118597499Y-83978654D01*
X118597500Y-83978637D01*
X118597500Y-83862500D01*
X118617185Y-83795461D01*
X118669989Y-83749706D01*
X118721500Y-83738500D01*
X121814151Y-83738500D01*
X123742446Y-83738500D01*
X123809485Y-83758185D01*
X123836459Y-83783298D01*
X123836468Y-83783290D01*
X123836713Y-83783535D01*
X123841712Y-83788189D01*
X123842739Y-83789561D01*
X123959796Y-83877189D01*
X124096799Y-83928289D01*
X124124050Y-83931218D01*
X124157345Y-83934799D01*
X124157362Y-83934800D01*
X125372238Y-83934800D01*
X125372254Y-83934799D01*
X125399292Y-83931891D01*
X125432801Y-83928289D01*
X125569804Y-83877189D01*
X125686861Y-83789561D01*
X125774489Y-83672504D01*
X125825589Y-83535501D01*
X125829764Y-83496667D01*
X125832099Y-83474954D01*
X125832100Y-83474937D01*
X125832100Y-82871087D01*
X125837988Y-82833330D01*
X125852893Y-82786703D01*
X125852894Y-82786701D01*
X125878026Y-82576500D01*
X125865792Y-82405432D01*
X125880644Y-82337160D01*
X125901791Y-82308911D01*
X126150321Y-82060381D01*
X126211641Y-82026899D01*
X126281333Y-82031883D01*
X126325680Y-82060384D01*
X126607581Y-82342285D01*
X126641066Y-82403608D01*
X126643900Y-82429966D01*
X126643899Y-83474937D01*
X126643900Y-83474954D01*
X126650411Y-83535502D01*
X126650411Y-83535504D01*
X126701367Y-83672117D01*
X126701511Y-83672504D01*
X126789139Y-83789561D01*
X126789141Y-83789562D01*
X126789144Y-83789566D01*
X126853809Y-83837973D01*
X126895681Y-83893906D01*
X126903499Y-83937240D01*
X126903500Y-87167101D01*
X126883815Y-87234140D01*
X126831011Y-87279895D01*
X126808017Y-87287777D01*
X126802800Y-87289009D01*
X126665795Y-87340111D01*
X126548739Y-87427739D01*
X126461111Y-87544795D01*
X126410011Y-87681795D01*
X126410011Y-87681797D01*
X126403500Y-87742345D01*
X126403500Y-89539654D01*
X126410011Y-89600202D01*
X126410011Y-89600204D01*
X126439758Y-89679956D01*
X126461111Y-89737204D01*
X126548739Y-89854261D01*
X126548740Y-89854261D01*
X126548741Y-89854263D01*
X126555010Y-89860532D01*
X126552426Y-89863115D01*
X126583915Y-89905223D01*
X126588865Y-89974917D01*
X126555351Y-90036224D01*
X126494011Y-90069679D01*
X126467712Y-90072500D01*
X123695518Y-90072500D01*
X123628479Y-90052815D01*
X123607837Y-90036181D01*
X120490592Y-86918936D01*
X120477262Y-86903177D01*
X120475558Y-86900784D01*
X120475557Y-86900783D01*
X120415083Y-86843121D01*
X120409023Y-86837343D01*
X120407974Y-86836318D01*
X120380495Y-86808839D01*
X120380491Y-86808835D01*
X120372000Y-86801824D01*
X120368699Y-86798894D01*
X120322348Y-86754699D01*
X120322346Y-86754697D01*
X120317306Y-86751458D01*
X120291957Y-86735166D01*
X120285998Y-86730815D01*
X120258155Y-86707826D01*
X120258149Y-86707821D01*
X120201936Y-86677126D01*
X120198130Y-86674868D01*
X120144256Y-86640245D01*
X120110724Y-86626820D01*
X120104048Y-86623675D01*
X120072352Y-86606368D01*
X120072350Y-86606367D01*
X120072346Y-86606365D01*
X120052737Y-86600096D01*
X120011347Y-86586865D01*
X120007183Y-86585368D01*
X119947727Y-86561566D01*
X119947721Y-86561564D01*
X119912241Y-86554725D01*
X119905099Y-86552902D01*
X119870700Y-86541905D01*
X119807109Y-86534301D01*
X119802737Y-86533619D01*
X119759198Y-86525229D01*
X119739849Y-86521500D01*
X119739847Y-86521500D01*
X119703724Y-86521500D01*
X119696358Y-86521061D01*
X119660501Y-86516774D01*
X119660500Y-86516774D01*
X119596623Y-86521342D01*
X119592203Y-86521500D01*
X118277874Y-86521500D01*
X118210835Y-86501815D01*
X118180927Y-86474812D01*
X118133157Y-86414910D01*
X118118442Y-86396458D01*
X118032267Y-86316500D01*
X117919743Y-86212093D01*
X117793974Y-86126345D01*
X117695786Y-86059401D01*
X117695780Y-86059398D01*
X117695779Y-86059397D01*
X117695778Y-86059396D01*
X117451574Y-85941795D01*
X117451576Y-85941795D01*
X117192559Y-85861899D01*
X117192553Y-85861897D01*
X116924535Y-85821500D01*
X116924528Y-85821500D01*
X116653472Y-85821500D01*
X116653464Y-85821500D01*
X116385446Y-85861897D01*
X116385440Y-85861899D01*
X116126427Y-85941794D01*
X115882219Y-86059398D01*
X115658256Y-86212093D01*
X115459560Y-86396456D01*
X115459558Y-86396458D01*
X115290557Y-86608379D01*
X115155029Y-86843120D01*
X115056003Y-87095435D01*
X115055997Y-87095454D01*
X114995684Y-87359705D01*
X114995683Y-87359710D01*
X114975429Y-87629995D01*
X114975429Y-87630004D01*
X109220500Y-87630004D01*
X109220500Y-69330858D01*
X109240184Y-69263823D01*
X109256813Y-69243186D01*
X109883181Y-68616818D01*
X109944504Y-68583334D01*
X109970862Y-68580500D01*
X177049138Y-68580500D01*
X177116177Y-68600185D01*
G37*
%TD.AperFunction*%
%TD*%
%TA.AperFunction,NonConductor*%
G36*
X162320523Y-86288298D02*
G01*
X162373761Y-86331846D01*
X162400233Y-86370196D01*
X162404635Y-86376573D01*
X162449911Y-86416684D01*
X162452603Y-86419218D01*
X163500778Y-87467393D01*
X163503330Y-87470105D01*
X163543427Y-87515365D01*
X163586065Y-87544796D01*
X163593185Y-87549710D01*
X163596202Y-87551930D01*
X163641833Y-87587680D01*
X163643803Y-87589223D01*
X163652571Y-87593169D01*
X163672118Y-87604193D01*
X163680029Y-87609654D01*
X163698232Y-87616557D01*
X163753935Y-87658734D01*
X163777994Y-87724331D01*
X163762768Y-87792522D01*
X163713093Y-87841656D01*
X163654263Y-87856500D01*
X162061264Y-87856500D01*
X161994225Y-87836815D01*
X161959689Y-87803623D01*
X161929301Y-87760224D01*
X161929300Y-87760223D01*
X161929298Y-87760220D01*
X161779778Y-87610700D01*
X161606558Y-87489411D01*
X161606556Y-87489410D01*
X161565156Y-87470105D01*
X161414910Y-87400044D01*
X161414906Y-87400043D01*
X161414902Y-87400041D01*
X161376586Y-87389775D01*
X161316925Y-87353410D01*
X161286396Y-87290564D01*
X161294690Y-87221188D01*
X161339175Y-87167310D01*
X161376586Y-87150225D01*
X161393040Y-87145816D01*
X161414910Y-87139956D01*
X161606558Y-87050589D01*
X161779776Y-86929301D01*
X161929301Y-86779776D01*
X162050589Y-86606558D01*
X162139956Y-86414910D01*
X162139958Y-86414900D01*
X162139960Y-86414897D01*
X162151937Y-86370196D01*
X162188300Y-86310535D01*
X162251147Y-86280004D01*
X162320523Y-86288298D01*
G37*
%TD.AperFunction*%
%TA.AperFunction,NonConductor*%
G36*
X131570179Y-72285684D02*
G01*
X131620405Y-72318724D01*
X131664760Y-72366906D01*
X131664761Y-72366907D01*
X131723981Y-72413000D01*
X131842424Y-72505189D01*
X131842429Y-72505191D01*
X131842431Y-72505193D01*
X131878930Y-72524946D01*
X131928520Y-72574165D01*
X131943628Y-72642382D01*
X131919457Y-72707937D01*
X131878930Y-72743054D01*
X131842431Y-72762806D01*
X131842422Y-72762812D01*
X131664756Y-72901096D01*
X131658725Y-72907648D01*
X131598836Y-72943635D01*
X131528998Y-72941531D01*
X131471384Y-72902004D01*
X131444286Y-72837603D01*
X131443500Y-72823661D01*
X131443500Y-72780706D01*
X131443500Y-72727616D01*
X131445239Y-72711880D01*
X131444967Y-72711855D01*
X131445699Y-72704097D01*
X131445701Y-72704091D01*
X131443583Y-72636728D01*
X131443530Y-72635026D01*
X131443499Y-72633075D01*
X131443499Y-72625619D01*
X131443500Y-72604144D01*
X131442615Y-72597140D01*
X131442156Y-72591309D01*
X131440673Y-72544109D01*
X131435105Y-72524946D01*
X131434977Y-72524508D01*
X131431032Y-72505457D01*
X131428474Y-72485203D01*
X131413884Y-72448355D01*
X131407508Y-72378779D01*
X131439760Y-72316798D01*
X131500402Y-72282094D01*
X131570179Y-72285684D01*
G37*
%TD.AperFunction*%
%TA.AperFunction,NonConductor*%
G36*
X131491686Y-77278730D02*
G01*
X131539582Y-77310928D01*
X131657489Y-77439008D01*
X131688412Y-77501662D01*
X131680552Y-77571088D01*
X131636406Y-77625244D01*
X131609596Y-77639172D01*
X131491794Y-77683111D01*
X131374739Y-77770739D01*
X131287111Y-77887795D01*
X131236011Y-78024795D01*
X131236011Y-78024797D01*
X131229500Y-78085345D01*
X131229500Y-78389232D01*
X131209815Y-78456271D01*
X131193181Y-78476913D01*
X131176202Y-78493892D01*
X131161412Y-78506525D01*
X131144891Y-78518529D01*
X131144372Y-78519017D01*
X131143872Y-78519269D01*
X131138586Y-78523111D01*
X131137965Y-78522257D01*
X131082023Y-78550551D01*
X131012523Y-78543372D01*
X130957938Y-78499757D01*
X130935597Y-78433555D01*
X130935500Y-78428664D01*
X130935500Y-77783766D01*
X130955185Y-77716726D01*
X130971819Y-77696085D01*
X131166242Y-77501662D01*
X131360674Y-77307229D01*
X131421995Y-77273746D01*
X131491686Y-77278730D01*
G37*
%TD.AperFunction*%
%TA.AperFunction,NonConductor*%
G36*
X155117562Y-96703185D02*
G01*
X155163317Y-96755989D01*
X155173261Y-96825147D01*
X155144236Y-96888703D01*
X155138204Y-96895181D01*
X154753204Y-97280181D01*
X154691881Y-97313666D01*
X154665523Y-97316500D01*
X154601264Y-97316500D01*
X154534225Y-97296815D01*
X154499689Y-97263623D01*
X154469301Y-97220224D01*
X154469300Y-97220223D01*
X154469298Y-97220220D01*
X154319778Y-97070700D01*
X154146558Y-96949411D01*
X154146556Y-96949410D01*
X154127500Y-96940524D01*
X154083230Y-96919881D01*
X154030793Y-96873710D01*
X154011641Y-96806516D01*
X154031857Y-96739635D01*
X154085022Y-96694301D01*
X154135637Y-96683500D01*
X155050523Y-96683500D01*
X155117562Y-96703185D01*
G37*
%TD.AperFunction*%
%TA.AperFunction,NonConductor*%
G36*
X169116175Y-81900349D02*
G01*
X169173791Y-81939873D01*
X169193861Y-81974888D01*
X169229261Y-82069795D01*
X169239111Y-82096204D01*
X169326739Y-82213261D01*
X169443796Y-82300889D01*
X169580799Y-82351989D01*
X169608050Y-82354918D01*
X169641345Y-82358499D01*
X169641362Y-82358500D01*
X169732500Y-82358500D01*
X169799539Y-82378185D01*
X169845294Y-82430989D01*
X169856500Y-82482500D01*
X169856500Y-83654262D01*
X169836815Y-83721301D01*
X169784011Y-83767056D01*
X169714853Y-83777000D01*
X169651297Y-83747975D01*
X169616558Y-83698232D01*
X169609655Y-83680031D01*
X169609654Y-83680029D01*
X169604193Y-83672117D01*
X169593169Y-83652571D01*
X169592457Y-83650989D01*
X169589223Y-83643803D01*
X169551929Y-83596201D01*
X169549710Y-83593185D01*
X169515366Y-83543428D01*
X169515365Y-83543427D01*
X169470105Y-83503330D01*
X169467393Y-83500778D01*
X168719819Y-82753203D01*
X168686334Y-82691880D01*
X168683500Y-82665522D01*
X168683500Y-82248670D01*
X168703185Y-82181631D01*
X168742219Y-82145433D01*
X168741280Y-82143995D01*
X168745558Y-82141198D01*
X168745576Y-82141189D01*
X168923240Y-82002906D01*
X168986452Y-81934239D01*
X169046337Y-81898250D01*
X169116175Y-81900349D01*
G37*
%TD.AperFunction*%
%TA.AperFunction,NonConductor*%
G36*
X159732562Y-91703185D02*
G01*
X159753204Y-91719819D01*
X160138204Y-92104819D01*
X160171689Y-92166142D01*
X160166705Y-92235834D01*
X160124833Y-92291767D01*
X160059369Y-92316184D01*
X160050523Y-92316500D01*
X158183698Y-92316500D01*
X158116659Y-92296815D01*
X158070904Y-92244011D01*
X158060960Y-92174853D01*
X158084431Y-92118189D01*
X158087641Y-92113901D01*
X158100889Y-92096204D01*
X158151989Y-91959201D01*
X158155591Y-91925692D01*
X158158499Y-91898654D01*
X158158500Y-91898637D01*
X158158500Y-91807500D01*
X158178185Y-91740461D01*
X158230989Y-91694706D01*
X158282500Y-91683500D01*
X159665523Y-91683500D01*
X159732562Y-91703185D01*
G37*
%TD.AperFunction*%
%TA.AperFunction,NonConductor*%
G36*
X155376175Y-91900349D02*
G01*
X155433791Y-91939873D01*
X155453861Y-91974888D01*
X155499111Y-92096204D01*
X155515569Y-92118189D01*
X155539986Y-92183653D01*
X155525135Y-92251926D01*
X155475729Y-92301332D01*
X155416302Y-92316500D01*
X155334477Y-92316500D01*
X155267438Y-92296815D01*
X155246796Y-92280181D01*
X155162349Y-92195734D01*
X155128864Y-92134411D01*
X155133848Y-92064719D01*
X155173870Y-92010198D01*
X155183240Y-92002906D01*
X155246452Y-91934239D01*
X155306337Y-91898250D01*
X155376175Y-91900349D01*
G37*
%TD.AperFunction*%
%TA.AperFunction,NonConductor*%
G36*
X162886556Y-93854694D02*
G01*
X162898852Y-93865467D01*
X163280181Y-94246796D01*
X163313666Y-94308119D01*
X163316500Y-94334477D01*
X163316500Y-94665523D01*
X163296815Y-94732562D01*
X163280181Y-94753204D01*
X162898852Y-95134532D01*
X162837529Y-95168017D01*
X162767837Y-95163033D01*
X162711904Y-95121161D01*
X162687487Y-95055697D01*
X162687424Y-95044224D01*
X162687263Y-95041570D01*
X162683613Y-94981213D01*
X162683500Y-94977468D01*
X162683500Y-94022530D01*
X162683613Y-94018785D01*
X162687717Y-93950941D01*
X162689594Y-93951054D01*
X162702991Y-93892542D01*
X162752930Y-93843676D01*
X162821361Y-93829567D01*
X162886556Y-93854694D01*
G37*
%TD.AperFunction*%
M02*
