%TF.GenerationSoftware,KiCad,Pcbnew,7.0.4*%
%TF.CreationDate,2023-05-30T06:19:14+05:30*%
%TF.ProjectId,1,312e6b69-6361-4645-9f70-636258585858,rev?*%
%TF.SameCoordinates,Original*%
%TF.FileFunction,Paste,Top*%
%TF.FilePolarity,Positive*%
%FSLAX46Y46*%
G04 Gerber Fmt 4.6, Leading zero omitted, Abs format (unit mm)*
G04 Created by KiCad (PCBNEW 7.0.4) date 2023-05-30 06:19:14*
%MOMM*%
%LPD*%
G01*
G04 APERTURE LIST*
%ADD10R,0.300000X1.425000*%
%ADD11R,1.020000X1.470000*%
%ADD12R,1.117600X1.752600*%
%ADD13R,0.800000X1.000000*%
%ADD14R,0.600000X0.350000*%
%ADD15R,1.100000X1.700000*%
%ADD16R,1.200000X0.600000*%
%ADD17R,0.550000X1.050000*%
%ADD18R,0.812800X0.762000*%
%ADD19R,2.200000X1.550000*%
%ADD20R,1.400000X1.000000*%
%ADD21R,2.700000X1.150000*%
%ADD22R,1.470000X1.020000*%
%ADD23R,1.981200X2.794000*%
%ADD24R,10.210800X3.505200*%
%ADD25R,1.350000X1.100000*%
G04 APERTURE END LIST*
D10*
%TO.C,U1*%
X126000000Y-77904000D03*
X126500000Y-77904000D03*
X127000000Y-77904000D03*
X127500000Y-77904000D03*
X128000000Y-77904000D03*
X128000000Y-73480000D03*
X127500000Y-73480000D03*
X127000000Y-73480000D03*
X126500000Y-73480000D03*
X126000000Y-73480000D03*
%TD*%
D11*
%TO.C,C4*%
X143558000Y-86868000D03*
X141938000Y-86868000D03*
%TD*%
D12*
%TO.C,R5*%
X124764800Y-82550000D03*
X127711200Y-82550000D03*
%TD*%
D13*
%TO.C,R3*%
X137630000Y-94742000D03*
X139230000Y-94742000D03*
%TD*%
D14*
%TO.C,F2*%
X160050000Y-96650000D03*
X160050000Y-96000000D03*
X160050000Y-95350000D03*
X157950000Y-95350000D03*
X157950000Y-96000000D03*
X157950000Y-96650000D03*
D15*
X159000000Y-96000000D03*
%TD*%
D16*
%TO.C,Buck_IC1*%
X139466000Y-82616000D03*
X139466000Y-83566000D03*
X139466000Y-84516000D03*
X141966000Y-84516000D03*
X141966000Y-82616000D03*
%TD*%
D14*
%TO.C,F1*%
X168000000Y-87650000D03*
X168000000Y-87000000D03*
X168000000Y-86350000D03*
X165900000Y-86350000D03*
X165900000Y-87000000D03*
X165900000Y-87650000D03*
D15*
X166950000Y-87000000D03*
%TD*%
D17*
%TO.C,Boost_IC1*%
X133670000Y-97312000D03*
X134620000Y-97312000D03*
X135570000Y-97312000D03*
X135570000Y-94712000D03*
X134620000Y-94712000D03*
X133670000Y-94712000D03*
%TD*%
D18*
%TO.C,R2*%
X141732000Y-99072700D03*
X141732000Y-97523300D03*
%TD*%
D19*
%TO.C,D1*%
X146322000Y-102870000D03*
X142222000Y-102870000D03*
%TD*%
D20*
%TO.C,R1*%
X141732000Y-95692000D03*
X141732000Y-93792000D03*
%TD*%
D21*
%TO.C,C3*%
X132334000Y-85574000D03*
X132334000Y-82574000D03*
%TD*%
D22*
%TO.C,C1*%
X131064000Y-95456000D03*
X131064000Y-97076000D03*
%TD*%
D23*
%TO.C,L1*%
X129032000Y-102870000D03*
X133096000Y-102870000D03*
%TD*%
D24*
%TO.C,L2*%
X150876000Y-79502000D03*
X150876000Y-86106000D03*
%TD*%
D25*
%TO.C,C2*%
X151000000Y-105650000D03*
X151000000Y-102350000D03*
%TD*%
M02*
