%TF.GenerationSoftware,KiCad,Pcbnew,7.0.4*%
%TF.CreationDate,2023-05-30T06:19:14+05:30*%
%TF.ProjectId,1,312e6b69-6361-4645-9f70-636258585858,rev?*%
%TF.SameCoordinates,Original*%
%TF.FileFunction,Other,User*%
%FSLAX46Y46*%
G04 Gerber Fmt 4.6, Leading zero omitted, Abs format (unit mm)*
G04 Created by KiCad (PCBNEW 7.0.4) date 2023-05-30 06:19:14*
%MOMM*%
%LPD*%
G01*
G04 APERTURE LIST*
%ADD10C,0.050000*%
G04 APERTURE END LIST*
D10*
%TO.C,U1*%
X125199000Y-78867000D02*
X125199000Y-72517000D01*
X128801000Y-78867000D02*
X125199000Y-78867000D01*
X125199000Y-72517000D02*
X128801000Y-72517000D01*
X128801000Y-72517000D02*
X128801000Y-78867000D01*
%TO.C,J3*%
X114522000Y-106680000D02*
G75*
G03*
X114522000Y-106680000I-2000000J0D01*
G01*
%TO.C,TP1*%
X125242000Y-97048000D02*
X125242000Y-99548000D01*
X125242000Y-97048000D02*
X127742000Y-97048000D01*
X127742000Y-99548000D02*
X125242000Y-99548000D01*
X127742000Y-99548000D02*
X127742000Y-97048000D01*
%TO.C,J5*%
X177260000Y-106680000D02*
G75*
G03*
X177260000Y-106680000I-2000000J0D01*
G01*
%TO.C,TP5*%
X136926000Y-101620000D02*
X136926000Y-104120000D01*
X136926000Y-101620000D02*
X139426000Y-101620000D01*
X139426000Y-104120000D02*
X136926000Y-104120000D01*
X139426000Y-104120000D02*
X139426000Y-101620000D01*
%TO.C,C4*%
X144218000Y-87758000D02*
X141278000Y-87758000D01*
X144218000Y-85978000D02*
X144218000Y-87758000D01*
X141278000Y-87758000D02*
X141278000Y-85978000D01*
X141278000Y-85978000D02*
X144218000Y-85978000D01*
%TO.C,J11*%
X158600000Y-89200000D02*
X147400000Y-89200000D01*
X147400000Y-89200000D02*
X147400000Y-92800000D01*
X158600000Y-92800000D02*
X158600000Y-89200000D01*
X147400000Y-92800000D02*
X158600000Y-92800000D01*
%TO.C,TP8*%
X161500000Y-84700000D02*
X160500000Y-84700000D01*
X160500000Y-84700000D02*
X159850000Y-85350000D01*
X162150000Y-85350000D02*
X161500000Y-84700000D01*
X159850000Y-85350000D02*
X159850000Y-89150000D01*
X162150000Y-89150000D02*
X162150000Y-85350000D01*
X159850000Y-89150000D02*
X160500000Y-89800000D01*
X161500000Y-89800000D02*
X162150000Y-89150000D01*
X160500000Y-89800000D02*
X161500000Y-89800000D01*
%TO.C,J9*%
X136630000Y-89894000D02*
X136630000Y-93494000D01*
X136630000Y-93494000D02*
X140230000Y-93494000D01*
X140230000Y-89894000D02*
X136630000Y-89894000D01*
X140230000Y-93494000D02*
X140230000Y-89894000D01*
%TO.C,J4*%
X122499000Y-79630000D02*
X111689000Y-79630000D01*
X111689000Y-79630000D02*
X111689000Y-95630000D01*
X122499000Y-95630000D02*
X122499000Y-79630000D01*
X111689000Y-95630000D02*
X122499000Y-95630000D01*
%TO.C,J8*%
X134388000Y-80784000D02*
X134388000Y-69584000D01*
X134388000Y-69584000D02*
X130788000Y-69584000D01*
X130788000Y-80784000D02*
X134388000Y-80784000D01*
X130788000Y-69584000D02*
X130788000Y-80784000D01*
%TO.C,R3*%
X136980000Y-93992000D02*
X139880000Y-93992000D01*
X136980000Y-95492000D02*
X136980000Y-93992000D01*
X139880000Y-93992000D02*
X139880000Y-95492000D01*
X139880000Y-95492000D02*
X136980000Y-95492000D01*
%TO.C,TP9*%
X154840000Y-98500000D02*
X154840000Y-97500000D01*
X154840000Y-97500000D02*
X154190000Y-96850000D01*
X154190000Y-99150000D02*
X154840000Y-98500000D01*
X154190000Y-96850000D02*
X150390000Y-96850000D01*
X150390000Y-99150000D02*
X154190000Y-99150000D01*
X150390000Y-96850000D02*
X149740000Y-97500000D01*
X149740000Y-98500000D02*
X150390000Y-99150000D01*
X149740000Y-97500000D02*
X149740000Y-98500000D01*
%TO.C,J7*%
X134852000Y-84560000D02*
X134852000Y-88160000D01*
X134852000Y-88160000D02*
X138452000Y-88160000D01*
X138452000Y-84560000D02*
X134852000Y-84560000D01*
X138452000Y-88160000D02*
X138452000Y-84560000D01*
%TO.C,F2*%
X160600000Y-97300000D02*
X157400000Y-97300000D01*
X160600000Y-94700000D02*
X160600000Y-97300000D01*
X157400000Y-97300000D02*
X157400000Y-94700000D01*
X157400000Y-94700000D02*
X160600000Y-94700000D01*
%TO.C,TP3*%
X135148000Y-81300000D02*
X135148000Y-83800000D01*
X135148000Y-81300000D02*
X137648000Y-81300000D01*
X137648000Y-83800000D02*
X135148000Y-83800000D01*
X137648000Y-83800000D02*
X137648000Y-81300000D01*
%TO.C,Buck_IC1*%
X138616000Y-81791000D02*
X142816000Y-81791000D01*
X138616000Y-85341000D02*
X138616000Y-81791000D01*
X142816000Y-81791000D02*
X142816000Y-85341000D01*
X142816000Y-85341000D02*
X138616000Y-85341000D01*
%TO.C,F1*%
X168550000Y-88300000D02*
X165350000Y-88300000D01*
X168550000Y-85700000D02*
X168550000Y-88300000D01*
X165350000Y-88300000D02*
X165350000Y-85700000D01*
X165350000Y-85700000D02*
X168550000Y-85700000D01*
%TO.C,Boost_IC1*%
X132920000Y-98087000D02*
X132920000Y-93937000D01*
X136320000Y-98087000D02*
X132920000Y-98087000D01*
X132920000Y-93937000D02*
X136320000Y-93937000D01*
X136320000Y-93937000D02*
X136320000Y-98087000D01*
%TO.C,JMP1*%
X125962000Y-86841000D02*
X125962000Y-92991000D01*
X125962000Y-92991000D02*
X129562000Y-92991000D01*
X129562000Y-86841000D02*
X125962000Y-86841000D01*
X129562000Y-92991000D02*
X129562000Y-86841000D01*
%TO.C,J10*%
X172340000Y-79200000D02*
X161140000Y-79200000D01*
X161140000Y-79200000D02*
X161140000Y-82800000D01*
X172340000Y-82800000D02*
X172340000Y-79200000D01*
X161140000Y-82800000D02*
X172340000Y-82800000D01*
%TO.C,R2*%
X141071600Y-99707700D02*
X141071600Y-96888300D01*
X141071600Y-99707700D02*
X141071600Y-96888300D01*
X142392400Y-99707700D02*
X141071600Y-99707700D01*
X142392400Y-99707700D02*
X141071600Y-99707700D01*
X141071600Y-96888300D02*
X142392400Y-96888300D01*
X141071600Y-96888300D02*
X142392400Y-96888300D01*
X142392400Y-96888300D02*
X142392400Y-99707700D01*
X142392400Y-96888300D02*
X142392400Y-99707700D01*
%TO.C,D1*%
X147672000Y-104570000D02*
X140872000Y-104570000D01*
X147672000Y-101170000D02*
X147672000Y-104570000D01*
X140872000Y-104570000D02*
X140872000Y-101170000D01*
X140872000Y-101170000D02*
X147672000Y-101170000D01*
%TO.C,R1*%
X140782000Y-96442000D02*
X140782000Y-93042000D01*
X142682000Y-96442000D02*
X140782000Y-96442000D01*
X140782000Y-93042000D02*
X142682000Y-93042000D01*
X142682000Y-93042000D02*
X142682000Y-96442000D01*
%TO.C,C3*%
X130084000Y-86949000D02*
X130084000Y-81199000D01*
X134584000Y-86949000D02*
X130084000Y-86949000D01*
X130084000Y-81199000D02*
X134584000Y-81199000D01*
X134584000Y-81199000D02*
X134584000Y-86949000D01*
%TO.C,J2*%
X115792000Y-71120000D02*
G75*
G03*
X115792000Y-71120000I-2000000J0D01*
G01*
%TO.C,C1*%
X131954000Y-94796000D02*
X131954000Y-97736000D01*
X130174000Y-94796000D02*
X131954000Y-94796000D01*
X131954000Y-97736000D02*
X130174000Y-97736000D01*
X130174000Y-97736000D02*
X130174000Y-94796000D01*
%TO.C,L1*%
X127787400Y-101219000D02*
X127939800Y-101219000D01*
X127787400Y-101219000D02*
X127939800Y-101219000D01*
X127787400Y-104521000D02*
X127787400Y-101219000D01*
X127787400Y-104521000D02*
X127787400Y-101219000D01*
X127939800Y-99898200D02*
X134188200Y-99898200D01*
X127939800Y-99898200D02*
X134188200Y-99898200D01*
X127939800Y-101219000D02*
X127939800Y-99898200D01*
X127939800Y-101219000D02*
X127939800Y-99898200D01*
X127939800Y-104521000D02*
X127787400Y-104521000D01*
X127939800Y-104521000D02*
X127787400Y-104521000D01*
X127939800Y-105841800D02*
X127939800Y-104521000D01*
X127939800Y-105841800D02*
X127939800Y-104521000D01*
X134188200Y-99898200D02*
X134188200Y-101219000D01*
X134188200Y-99898200D02*
X134188200Y-101219000D01*
X134188200Y-101219000D02*
X134340600Y-101219000D01*
X134188200Y-101219000D02*
X134340600Y-101219000D01*
X134188200Y-104521000D02*
X134188200Y-105841800D01*
X134188200Y-104521000D02*
X134188200Y-105841800D01*
X134188200Y-105841800D02*
X127939800Y-105841800D01*
X134188200Y-105841800D02*
X127939800Y-105841800D01*
X134340600Y-101219000D02*
X134340600Y-104521000D01*
X134340600Y-101219000D02*
X134340600Y-104521000D01*
X134340600Y-104521000D02*
X134188200Y-104521000D01*
X134340600Y-104521000D02*
X134188200Y-104521000D01*
%TO.C,L2*%
X156286200Y-77495400D02*
X156286200Y-88112600D01*
X156286200Y-77495400D02*
X156286200Y-88112600D01*
X156235400Y-77495400D02*
X156286200Y-77495400D01*
X156235400Y-77495400D02*
X156286200Y-77495400D01*
X156235400Y-77495400D02*
X156235400Y-77495400D01*
X156235400Y-77495400D02*
X156235400Y-77495400D01*
X145516600Y-77495400D02*
X156235400Y-77495400D01*
X145516600Y-77495400D02*
X156235400Y-77495400D01*
X145516600Y-77495400D02*
X145516600Y-77495400D01*
X145516600Y-77495400D02*
X145516600Y-77495400D01*
X145465800Y-77495400D02*
X145516600Y-77495400D01*
X145465800Y-77495400D02*
X145516600Y-77495400D01*
X156286200Y-88112600D02*
X156235400Y-88112600D01*
X156286200Y-88112600D02*
X156235400Y-88112600D01*
X156235400Y-88112600D02*
X156235400Y-88112600D01*
X156235400Y-88112600D02*
X156235400Y-88112600D01*
X156235400Y-88112600D02*
X145516600Y-88112600D01*
X156235400Y-88112600D02*
X145516600Y-88112600D01*
X145516600Y-88112600D02*
X145516600Y-88112600D01*
X145516600Y-88112600D02*
X145516600Y-88112600D01*
X145516600Y-88112600D02*
X145465800Y-88112600D01*
X145516600Y-88112600D02*
X145465800Y-88112600D01*
X145465800Y-88112600D02*
X145465800Y-77495400D01*
X145465800Y-88112600D02*
X145465800Y-77495400D01*
%TO.C,J6*%
X177260000Y-71120000D02*
G75*
G03*
X177260000Y-71120000I-2000000J0D01*
G01*
%TO.C,C2*%
X149000000Y-108100000D02*
X149000000Y-100800000D01*
X153000000Y-108100000D02*
X149000000Y-108100000D01*
X149000000Y-100800000D02*
X153000000Y-100800000D01*
X153000000Y-100800000D02*
X153000000Y-108100000D01*
%TO.C,J1*%
X171000000Y-108710000D02*
X171000000Y-97900000D01*
X171000000Y-97900000D02*
X155000000Y-97900000D01*
X155000000Y-108710000D02*
X171000000Y-108710000D01*
X155000000Y-97900000D02*
X155000000Y-108710000D01*
%TD*%
M02*
