%TF.GenerationSoftware,KiCad,Pcbnew,7.0.4*%
%TF.CreationDate,2023-05-30T06:19:14+05:30*%
%TF.ProjectId,1,312e6b69-6361-4645-9f70-636258585858,rev?*%
%TF.SameCoordinates,Original*%
%TF.FileFunction,Soldermask,Top*%
%TF.FilePolarity,Negative*%
%FSLAX46Y46*%
G04 Gerber Fmt 4.6, Leading zero omitted, Abs format (unit mm)*
G04 Created by KiCad (PCBNEW 7.0.4) date 2023-05-30 06:19:14*
%MOMM*%
%LPD*%
G01*
G04 APERTURE LIST*
%ADD10R,0.300000X1.425000*%
%ADD11C,3.000000*%
%ADD12R,1.500000X1.500000*%
%ADD13R,1.020000X1.470000*%
%ADD14R,1.700000X1.700000*%
%ADD15O,1.700000X1.700000*%
%ADD16C,1.400000*%
%ADD17R,1.117600X1.752600*%
%ADD18R,2.600000X2.600000*%
%ADD19C,2.600000*%
%ADD20R,0.800000X1.000000*%
%ADD21R,0.600000X0.350000*%
%ADD22R,1.100000X1.700000*%
%ADD23R,1.200000X0.600000*%
%ADD24R,0.550000X1.050000*%
%ADD25R,0.812800X0.762000*%
%ADD26R,2.200000X1.550000*%
%ADD27R,1.400000X1.000000*%
%ADD28R,2.700000X1.150000*%
%ADD29R,1.470000X1.020000*%
%ADD30R,1.981200X2.794000*%
%ADD31R,10.210800X3.505200*%
%ADD32R,1.350000X1.100000*%
G04 APERTURE END LIST*
D10*
%TO.C,U1*%
X126000000Y-77904000D03*
X126500000Y-77904000D03*
X127000000Y-77904000D03*
X127500000Y-77904000D03*
X128000000Y-77904000D03*
X128000000Y-73480000D03*
X127500000Y-73480000D03*
X127000000Y-73480000D03*
X126500000Y-73480000D03*
X126000000Y-73480000D03*
%TD*%
D11*
%TO.C,J3*%
X112522000Y-106680000D03*
%TD*%
D12*
%TO.C,TP1*%
X126492000Y-98298000D03*
%TD*%
D11*
%TO.C,J5*%
X175260000Y-106680000D03*
%TD*%
D12*
%TO.C,TP5*%
X138176000Y-102870000D03*
%TD*%
D13*
%TO.C,C4*%
X143558000Y-86868000D03*
X141938000Y-86868000D03*
%TD*%
D14*
%TO.C,J11*%
X156800000Y-91000000D03*
D15*
X154260000Y-91000000D03*
X151720000Y-91000000D03*
X149180000Y-91000000D03*
%TD*%
D16*
%TO.C,TP8*%
X161000000Y-86000000D03*
X161000000Y-88540000D03*
%TD*%
D14*
%TO.C,J9*%
X138430000Y-91694000D03*
%TD*%
D17*
%TO.C,R5*%
X124764800Y-82550000D03*
X127711200Y-82550000D03*
%TD*%
D18*
%TO.C,J4*%
X116789000Y-82630000D03*
D19*
X116789000Y-87630000D03*
X116789000Y-92630000D03*
%TD*%
D14*
%TO.C,J8*%
X132588000Y-78984000D03*
D15*
X132588000Y-76444000D03*
X132588000Y-73904000D03*
X132588000Y-71364000D03*
%TD*%
D20*
%TO.C,R3*%
X137630000Y-94742000D03*
X139230000Y-94742000D03*
%TD*%
D16*
%TO.C,TP9*%
X153540000Y-98000000D03*
X151000000Y-98000000D03*
%TD*%
D14*
%TO.C,J7*%
X136652000Y-86360000D03*
%TD*%
D21*
%TO.C,F2*%
X160050000Y-96650000D03*
X160050000Y-96000000D03*
X160050000Y-95350000D03*
X157950000Y-95350000D03*
X157950000Y-96000000D03*
X157950000Y-96650000D03*
D22*
X159000000Y-96000000D03*
%TD*%
D12*
%TO.C,TP3*%
X136398000Y-82550000D03*
%TD*%
D23*
%TO.C,Buck_IC1*%
X139466000Y-82616000D03*
X139466000Y-83566000D03*
X139466000Y-84516000D03*
X141966000Y-84516000D03*
X141966000Y-82616000D03*
%TD*%
D21*
%TO.C,F1*%
X168000000Y-87650000D03*
X168000000Y-87000000D03*
X168000000Y-86350000D03*
X165900000Y-86350000D03*
X165900000Y-87000000D03*
X165900000Y-87650000D03*
D22*
X166950000Y-87000000D03*
%TD*%
D24*
%TO.C,Boost_IC1*%
X133670000Y-97312000D03*
X134620000Y-97312000D03*
X135570000Y-97312000D03*
X135570000Y-94712000D03*
X134620000Y-94712000D03*
X133670000Y-94712000D03*
%TD*%
D14*
%TO.C,JMP1*%
X127762000Y-88641000D03*
D15*
X127762000Y-91181000D03*
%TD*%
D14*
%TO.C,J10*%
X170540000Y-81000000D03*
D15*
X168000000Y-81000000D03*
X165460000Y-81000000D03*
X162920000Y-81000000D03*
%TD*%
D25*
%TO.C,R2*%
X141732000Y-99072700D03*
X141732000Y-97523300D03*
%TD*%
D26*
%TO.C,D1*%
X146322000Y-102870000D03*
X142222000Y-102870000D03*
%TD*%
D27*
%TO.C,R1*%
X141732000Y-95692000D03*
X141732000Y-93792000D03*
%TD*%
D28*
%TO.C,C3*%
X132334000Y-85574000D03*
X132334000Y-82574000D03*
%TD*%
D11*
%TO.C,J2*%
X113792000Y-71120000D03*
%TD*%
D29*
%TO.C,C1*%
X131064000Y-95456000D03*
X131064000Y-97076000D03*
%TD*%
D30*
%TO.C,L1*%
X129032000Y-102870000D03*
X133096000Y-102870000D03*
%TD*%
D31*
%TO.C,L2*%
X150876000Y-79502000D03*
X150876000Y-86106000D03*
%TD*%
D11*
%TO.C,J6*%
X175260000Y-71120000D03*
%TD*%
D32*
%TO.C,C2*%
X151000000Y-105650000D03*
X151000000Y-102350000D03*
%TD*%
D18*
%TO.C,J1*%
X168000000Y-103000000D03*
D19*
X163000000Y-103000000D03*
X158000000Y-103000000D03*
%TD*%
M02*
