%TF.GenerationSoftware,KiCad,Pcbnew,7.0.4*%
%TF.CreationDate,2023-05-30T06:19:38+05:30*%
%TF.ProjectId,1,312e6b69-6361-4645-9f70-636258585858,rev?*%
%TF.SameCoordinates,Original*%
%TF.FileFunction,Drillmap*%
%TF.FilePolarity,Positive*%
%FSLAX45Y45*%
G04 Gerber Fmt 4.5, Leading zero omitted, Abs format (unit mm)*
G04 Created by KiCad (PCBNEW 7.0.4) date 2023-05-30 06:19:38*
%MOMM*%
%LPD*%
G01*
G04 APERTURE LIST*
%ADD10C,0.100000*%
%ADD11C,0.200000*%
G04 APERTURE END LIST*
D10*
X10922000Y-6858000D02*
X17780000Y-6858000D01*
X17780000Y-10922000D01*
X10922000Y-10922000D01*
X10922000Y-6858000D01*
D11*
X11177777Y-11238484D02*
X11177777Y-11038484D01*
X11177777Y-11038484D02*
X11225396Y-11038484D01*
X11225396Y-11038484D02*
X11253967Y-11048008D01*
X11253967Y-11048008D02*
X11273015Y-11067055D01*
X11273015Y-11067055D02*
X11282539Y-11086103D01*
X11282539Y-11086103D02*
X11292062Y-11124198D01*
X11292062Y-11124198D02*
X11292062Y-11152770D01*
X11292062Y-11152770D02*
X11282539Y-11190865D01*
X11282539Y-11190865D02*
X11273015Y-11209912D01*
X11273015Y-11209912D02*
X11253967Y-11228960D01*
X11253967Y-11228960D02*
X11225396Y-11238484D01*
X11225396Y-11238484D02*
X11177777Y-11238484D01*
X11377777Y-11238484D02*
X11377777Y-11105150D01*
X11377777Y-11143246D02*
X11387301Y-11124198D01*
X11387301Y-11124198D02*
X11396824Y-11114674D01*
X11396824Y-11114674D02*
X11415872Y-11105150D01*
X11415872Y-11105150D02*
X11434920Y-11105150D01*
X11501586Y-11238484D02*
X11501586Y-11105150D01*
X11501586Y-11038484D02*
X11492062Y-11048008D01*
X11492062Y-11048008D02*
X11501586Y-11057531D01*
X11501586Y-11057531D02*
X11511110Y-11048008D01*
X11511110Y-11048008D02*
X11501586Y-11038484D01*
X11501586Y-11038484D02*
X11501586Y-11057531D01*
X11625396Y-11238484D02*
X11606348Y-11228960D01*
X11606348Y-11228960D02*
X11596824Y-11209912D01*
X11596824Y-11209912D02*
X11596824Y-11038484D01*
X11730158Y-11238484D02*
X11711110Y-11228960D01*
X11711110Y-11228960D02*
X11701586Y-11209912D01*
X11701586Y-11209912D02*
X11701586Y-11038484D01*
X11958729Y-11238484D02*
X11958729Y-11038484D01*
X11958729Y-11038484D02*
X12025396Y-11181341D01*
X12025396Y-11181341D02*
X12092062Y-11038484D01*
X12092062Y-11038484D02*
X12092062Y-11238484D01*
X12273015Y-11238484D02*
X12273015Y-11133722D01*
X12273015Y-11133722D02*
X12263491Y-11114674D01*
X12263491Y-11114674D02*
X12244443Y-11105150D01*
X12244443Y-11105150D02*
X12206348Y-11105150D01*
X12206348Y-11105150D02*
X12187301Y-11114674D01*
X12273015Y-11228960D02*
X12253967Y-11238484D01*
X12253967Y-11238484D02*
X12206348Y-11238484D01*
X12206348Y-11238484D02*
X12187301Y-11228960D01*
X12187301Y-11228960D02*
X12177777Y-11209912D01*
X12177777Y-11209912D02*
X12177777Y-11190865D01*
X12177777Y-11190865D02*
X12187301Y-11171817D01*
X12187301Y-11171817D02*
X12206348Y-11162293D01*
X12206348Y-11162293D02*
X12253967Y-11162293D01*
X12253967Y-11162293D02*
X12273015Y-11152770D01*
X12368253Y-11105150D02*
X12368253Y-11305150D01*
X12368253Y-11114674D02*
X12387301Y-11105150D01*
X12387301Y-11105150D02*
X12425396Y-11105150D01*
X12425396Y-11105150D02*
X12444443Y-11114674D01*
X12444443Y-11114674D02*
X12453967Y-11124198D01*
X12453967Y-11124198D02*
X12463491Y-11143246D01*
X12463491Y-11143246D02*
X12463491Y-11200388D01*
X12463491Y-11200388D02*
X12453967Y-11219436D01*
X12453967Y-11219436D02*
X12444443Y-11228960D01*
X12444443Y-11228960D02*
X12425396Y-11238484D01*
X12425396Y-11238484D02*
X12387301Y-11238484D01*
X12387301Y-11238484D02*
X12368253Y-11228960D01*
X12549205Y-11219436D02*
X12558729Y-11228960D01*
X12558729Y-11228960D02*
X12549205Y-11238484D01*
X12549205Y-11238484D02*
X12539682Y-11228960D01*
X12539682Y-11228960D02*
X12549205Y-11219436D01*
X12549205Y-11219436D02*
X12549205Y-11238484D01*
X12549205Y-11114674D02*
X12558729Y-11124198D01*
X12558729Y-11124198D02*
X12549205Y-11133722D01*
X12549205Y-11133722D02*
X12539682Y-11124198D01*
X12539682Y-11124198D02*
X12549205Y-11114674D01*
X12549205Y-11114674D02*
X12549205Y-11133722D01*
M02*
