M48
; DRILL file {KiCad 7.0.4} date Tuesday 30 May 2023 06:19:28 AM
; FORMAT={-:-/ absolute / inch / decimal}
; #@! TF.CreationDate,2023-05-30T06:19:28+05:30
; #@! TF.GenerationSoftware,Kicad,Pcbnew,7.0.4
; #@! TF.FileFunction,Plated,1,2,PTH
FMAT,2
INCH
; #@! TA.AperFunction,Plated,PTH,ComponentDrill
T1C0.0276
; #@! TA.AperFunction,Plated,PTH,ComponentDrill
T2C0.0315
; #@! TA.AperFunction,Plated,PTH,ComponentDrill
T3C0.0394
; #@! TA.AperFunction,Plated,PTH,ComponentDrill
T4C0.0512
; #@! TA.AperFunction,Plated,PTH,ComponentDrill
T5C0.0591
%
G90
G05
T1
X4.98Y-3.87
X5.37Y-3.25
X5.44Y-4.05
T2
X5.9449Y-3.8583
X6.0449Y-3.8583
X6.3386Y-3.3858
X6.3386Y-3.4858
T3
X5.03Y-3.4898
X5.03Y-3.5898
X5.22Y-2.8096
X5.22Y-2.9096
X5.22Y-3.0096
X5.22Y-3.1096
X5.38Y-3.4
X5.45Y-3.61
X5.8732Y-3.5827
X5.9732Y-3.5827
X6.0732Y-3.5827
X6.1732Y-3.5827
X6.4142Y-3.189
X6.5142Y-3.189
X6.6142Y-3.189
X6.7142Y-3.189
T4
X4.598Y-3.2531
X4.598Y-3.45
X4.598Y-3.6469
X6.2205Y-4.0551
X6.4173Y-4.0551
X6.6142Y-4.0551
T5
X4.43Y-4.2
X4.48Y-2.8
X6.9Y-2.8
X6.9Y-4.2
T0
M30
