%TF.GenerationSoftware,KiCad,Pcbnew,(6.0.11)*%
%TF.CreationDate,2023-02-13T21:25:58+05:30*%
%TF.ProjectId,1,312e6b69-6361-4645-9f70-636258585858,rev?*%
%TF.SameCoordinates,Original*%
%TF.FileFunction,Copper,L2,Bot*%
%TF.FilePolarity,Positive*%
%FSLAX46Y46*%
G04 Gerber Fmt 4.6, Leading zero omitted, Abs format (unit mm)*
G04 Created by KiCad (PCBNEW (6.0.11)) date 2023-02-13 21:25:58*
%MOMM*%
%LPD*%
G01*
G04 APERTURE LIST*
%TA.AperFunction,ComponentPad*%
%ADD10R,2.500000X2.500000*%
%TD*%
%TA.AperFunction,ComponentPad*%
%ADD11C,2.500000*%
%TD*%
%TA.AperFunction,ComponentPad*%
%ADD12C,3.000000*%
%TD*%
%TA.AperFunction,ComponentPad*%
%ADD13R,0.850000X0.850000*%
%TD*%
%TA.AperFunction,ComponentPad*%
%ADD14O,0.850000X0.850000*%
%TD*%
%TA.AperFunction,ViaPad*%
%ADD15C,0.800000*%
%TD*%
G04 APERTURE END LIST*
D10*
%TO.P,J1,1,Pin_1*%
%TO.N,Net-(J1-Pad1)*%
X182880000Y-81360000D03*
D11*
%TO.P,J1,2,Pin_2*%
%TO.N,Net-(J1-Pad2)*%
X182880000Y-86360000D03*
%TO.P,J1,3,Pin_3*%
%TO.N,Earth*%
X182880000Y-91360000D03*
%TD*%
D12*
%TO.P,J2,1,Pin_1*%
%TO.N,Net-(J2-Pad1)*%
X134620000Y-71120000D03*
%TD*%
D13*
%TO.P,I2C1,1,Pin_1*%
%TO.N,Net-(I2C1-Pad1)*%
X173990000Y-72390000D03*
D14*
%TO.P,I2C1,2,Pin_2*%
%TO.N,Net-(I2C1-Pad2)*%
X172990000Y-72390000D03*
%TD*%
D12*
%TO.P,J3,1,Pin_1*%
%TO.N,Earth*%
X134620000Y-101600000D03*
%TD*%
D13*
%TO.P,I2C3,1,Pin_1*%
%TO.N,Net-(I2C3-Pad1)*%
X147320000Y-70792000D03*
D14*
%TO.P,I2C3,2,Pin_2*%
%TO.N,Net-(I2C3-Pad2)*%
X147320000Y-69792000D03*
%TD*%
D13*
%TO.P,I2C2,1,Pin_1*%
%TO.N,Net-(I2C2-Pad1)*%
X174260000Y-88582500D03*
D14*
%TO.P,I2C2,2,Pin_2*%
%TO.N,Net-(I2C2-Pad2)*%
X173260000Y-88582500D03*
%TD*%
D15*
%TO.N,Earth*%
X143000000Y-82700000D03*
X172490000Y-78740000D03*
X140169000Y-73660000D03*
X167900000Y-94800000D03*
X172720000Y-93980000D03*
X142700000Y-85100000D03*
%TD*%
%TA.AperFunction,Conductor*%
%TO.N,Earth*%
G36*
X146498136Y-69108502D02*
G01*
X146544629Y-69162158D01*
X146554733Y-69232432D01*
X146539134Y-69277500D01*
X146504121Y-69338145D01*
X146462508Y-69410220D01*
X146401870Y-69596845D01*
X146381358Y-69792000D01*
X146401870Y-69987155D01*
X146403911Y-69993436D01*
X146403911Y-69993437D01*
X146431167Y-70077325D01*
X146433194Y-70148292D01*
X146429316Y-70160489D01*
X146396029Y-70249282D01*
X146396027Y-70249288D01*
X146393255Y-70256684D01*
X146386500Y-70318866D01*
X146386500Y-71265134D01*
X146393255Y-71327316D01*
X146444385Y-71463705D01*
X146531739Y-71580261D01*
X146648295Y-71667615D01*
X146784684Y-71718745D01*
X146846866Y-71725500D01*
X147793134Y-71725500D01*
X147855316Y-71718745D01*
X147991705Y-71667615D01*
X148108261Y-71580261D01*
X148195615Y-71463705D01*
X148246745Y-71327316D01*
X148253500Y-71265134D01*
X148253500Y-70318866D01*
X148246745Y-70256684D01*
X148243973Y-70249288D01*
X148243971Y-70249282D01*
X148210684Y-70160489D01*
X148205501Y-70089682D01*
X148208833Y-70077325D01*
X148236089Y-69993437D01*
X148236089Y-69993436D01*
X148238130Y-69987155D01*
X148258642Y-69792000D01*
X148238130Y-69596845D01*
X148177492Y-69410220D01*
X148135880Y-69338145D01*
X148100866Y-69277500D01*
X148084128Y-69208505D01*
X148107348Y-69141413D01*
X148163155Y-69097526D01*
X148209985Y-69088500D01*
X185370633Y-69088500D01*
X185390018Y-69090000D01*
X185404851Y-69092310D01*
X185404855Y-69092310D01*
X185413724Y-69093691D01*
X185422626Y-69092527D01*
X185422629Y-69092527D01*
X185430012Y-69091561D01*
X185454591Y-69090767D01*
X185481442Y-69092527D01*
X185676922Y-69105340D01*
X185693262Y-69107491D01*
X185815478Y-69131801D01*
X185937696Y-69156112D01*
X185953606Y-69160375D01*
X186188999Y-69240280D01*
X186189600Y-69240484D01*
X186204826Y-69246791D01*
X186428342Y-69357016D01*
X186442616Y-69365257D01*
X186649829Y-69503713D01*
X186662905Y-69513746D01*
X186850278Y-69678068D01*
X186861932Y-69689722D01*
X187026254Y-69877095D01*
X187036287Y-69890171D01*
X187174743Y-70097384D01*
X187182984Y-70111658D01*
X187293209Y-70335174D01*
X187299515Y-70350398D01*
X187379625Y-70586394D01*
X187383889Y-70602307D01*
X187432509Y-70846738D01*
X187434660Y-70863078D01*
X187448763Y-71078236D01*
X187447733Y-71101350D01*
X187447690Y-71104854D01*
X187446309Y-71113724D01*
X187447473Y-71122626D01*
X187447473Y-71122628D01*
X187450436Y-71145283D01*
X187451500Y-71161621D01*
X187451500Y-101550633D01*
X187450000Y-101570018D01*
X187447690Y-101584851D01*
X187447690Y-101584855D01*
X187446309Y-101593724D01*
X187447473Y-101602626D01*
X187447473Y-101602629D01*
X187448439Y-101610012D01*
X187449233Y-101634591D01*
X187434660Y-101856922D01*
X187432509Y-101873262D01*
X187383889Y-102117693D01*
X187379625Y-102133606D01*
X187361925Y-102185750D01*
X187299516Y-102369600D01*
X187293209Y-102384826D01*
X187182984Y-102608342D01*
X187174743Y-102622616D01*
X187036287Y-102829829D01*
X187026254Y-102842905D01*
X186861932Y-103030278D01*
X186850278Y-103041932D01*
X186662905Y-103206254D01*
X186649829Y-103216287D01*
X186442616Y-103354743D01*
X186428342Y-103362984D01*
X186204826Y-103473209D01*
X186189602Y-103479515D01*
X185953606Y-103559625D01*
X185937696Y-103563888D01*
X185815478Y-103588199D01*
X185693262Y-103612509D01*
X185676922Y-103614660D01*
X185528134Y-103624413D01*
X185461763Y-103628763D01*
X185438650Y-103627733D01*
X185435146Y-103627690D01*
X185426276Y-103626309D01*
X185417374Y-103627473D01*
X185417372Y-103627473D01*
X185402323Y-103629441D01*
X185394714Y-103630436D01*
X185378379Y-103631500D01*
X135588890Y-103631500D01*
X135520769Y-103611498D01*
X135474276Y-103557842D01*
X135464172Y-103487568D01*
X135493666Y-103422988D01*
X135525319Y-103396712D01*
X135747598Y-103266822D01*
X135754679Y-103262009D01*
X135834655Y-103199301D01*
X135843125Y-103187442D01*
X135836608Y-103175818D01*
X134261922Y-101601132D01*
X134984408Y-101601132D01*
X134984539Y-101602965D01*
X134988790Y-101609580D01*
X136195730Y-102816520D01*
X136207939Y-102823187D01*
X136219439Y-102814497D01*
X136316831Y-102681913D01*
X136321418Y-102674685D01*
X136447962Y-102441621D01*
X136451530Y-102433827D01*
X136545271Y-102185750D01*
X136547748Y-102177544D01*
X136606954Y-101919038D01*
X136608294Y-101910577D01*
X136632031Y-101644616D01*
X136632277Y-101639677D01*
X136632666Y-101602485D01*
X136632523Y-101597519D01*
X136614362Y-101331123D01*
X136613201Y-101322649D01*
X136559419Y-101062944D01*
X136557120Y-101054709D01*
X136468588Y-100804705D01*
X136465191Y-100796854D01*
X136343550Y-100561178D01*
X136339122Y-100553866D01*
X136220031Y-100384417D01*
X136209509Y-100376037D01*
X136196121Y-100383089D01*
X134992022Y-101587188D01*
X134984408Y-101601132D01*
X134261922Y-101601132D01*
X133043814Y-100383024D01*
X133031804Y-100376466D01*
X133020064Y-100385434D01*
X132911935Y-100535911D01*
X132907418Y-100543196D01*
X132825854Y-100697243D01*
X132776301Y-100748087D01*
X132707127Y-100764068D01*
X132640293Y-100740114D01*
X132597020Y-100683830D01*
X132588500Y-100638284D01*
X132588500Y-100012500D01*
X133396584Y-100012500D01*
X133402980Y-100023770D01*
X134607188Y-101227978D01*
X134621132Y-101235592D01*
X134622965Y-101235461D01*
X134629580Y-101231210D01*
X135836604Y-100024186D01*
X135843795Y-100011017D01*
X135836473Y-100000780D01*
X135789233Y-99962115D01*
X135782261Y-99957160D01*
X135556122Y-99818582D01*
X135548552Y-99814624D01*
X135305704Y-99708022D01*
X135297644Y-99705120D01*
X135042592Y-99632467D01*
X135034214Y-99630685D01*
X134771656Y-99593318D01*
X134763111Y-99592691D01*
X134497908Y-99591302D01*
X134489374Y-99591839D01*
X134226433Y-99626456D01*
X134218035Y-99628149D01*
X133962238Y-99698127D01*
X133954143Y-99700946D01*
X133710199Y-99804997D01*
X133702577Y-99808881D01*
X133475013Y-99945075D01*
X133467981Y-99949962D01*
X133405053Y-100000377D01*
X133396584Y-100012500D01*
X132588500Y-100012500D01*
X132588500Y-92769133D01*
X181835612Y-92769133D01*
X181844325Y-92780653D01*
X181942018Y-92852284D01*
X181949928Y-92857227D01*
X182172890Y-92974533D01*
X182181453Y-92978256D01*
X182419304Y-93061318D01*
X182428313Y-93063732D01*
X182675842Y-93110727D01*
X182685098Y-93111781D01*
X182936857Y-93121673D01*
X182946171Y-93121347D01*
X183196615Y-93093920D01*
X183205792Y-93092219D01*
X183449431Y-93028074D01*
X183458251Y-93025037D01*
X183689736Y-92925583D01*
X183698008Y-92921276D01*
X183912249Y-92788700D01*
X183919188Y-92783658D01*
X183927518Y-92771019D01*
X183921456Y-92760666D01*
X182892812Y-91732022D01*
X182878868Y-91724408D01*
X182877035Y-91724539D01*
X182870420Y-91728790D01*
X181842270Y-92756940D01*
X181835612Y-92769133D01*
X132588500Y-92769133D01*
X132588500Y-91318523D01*
X181117898Y-91318523D01*
X181129987Y-91570175D01*
X181131124Y-91579435D01*
X181180274Y-91826535D01*
X181182768Y-91835528D01*
X181267900Y-92072639D01*
X181271700Y-92081174D01*
X181390946Y-92303101D01*
X181395957Y-92310968D01*
X181459446Y-92395990D01*
X181470704Y-92404439D01*
X181483123Y-92397667D01*
X182507978Y-91372812D01*
X182514356Y-91361132D01*
X183244408Y-91361132D01*
X183244539Y-91362965D01*
X183248790Y-91369580D01*
X184279913Y-92400703D01*
X184292293Y-92407463D01*
X184300634Y-92401219D01*
X184426765Y-92205127D01*
X184431212Y-92196936D01*
X184534691Y-91967222D01*
X184537882Y-91958455D01*
X184606269Y-91715976D01*
X184608129Y-91706834D01*
X184640116Y-91455396D01*
X184640597Y-91449108D01*
X184642847Y-91363160D01*
X184642696Y-91356851D01*
X184623912Y-91104074D01*
X184622536Y-91094868D01*
X184566929Y-90849126D01*
X184564205Y-90840215D01*
X184472888Y-90605392D01*
X184468877Y-90596983D01*
X184343854Y-90378240D01*
X184338643Y-90370514D01*
X184301391Y-90323261D01*
X184289466Y-90314790D01*
X184277934Y-90321276D01*
X183252022Y-91347188D01*
X183244408Y-91361132D01*
X182514356Y-91361132D01*
X182515592Y-91358868D01*
X182515461Y-91357035D01*
X182511210Y-91350420D01*
X181481321Y-90320531D01*
X181468013Y-90313264D01*
X181457974Y-90320386D01*
X181447761Y-90332666D01*
X181442346Y-90340258D01*
X181311646Y-90555646D01*
X181307408Y-90563963D01*
X181209981Y-90796299D01*
X181207020Y-90805149D01*
X181145006Y-91049331D01*
X181143384Y-91058528D01*
X181118143Y-91309198D01*
X181117898Y-91318523D01*
X132588500Y-91318523D01*
X132588500Y-89948803D01*
X181833216Y-89948803D01*
X181837789Y-89958579D01*
X182867188Y-90987978D01*
X182881132Y-90995592D01*
X182882965Y-90995461D01*
X182889580Y-90991210D01*
X183918419Y-89962371D01*
X183924803Y-89950681D01*
X183915391Y-89938570D01*
X183778593Y-89843670D01*
X183770565Y-89838942D01*
X183544593Y-89727505D01*
X183535960Y-89724017D01*
X183295998Y-89647205D01*
X183286938Y-89645029D01*
X183038260Y-89604529D01*
X183028973Y-89603717D01*
X182777053Y-89600419D01*
X182767742Y-89600989D01*
X182518097Y-89634964D01*
X182508978Y-89636902D01*
X182267098Y-89707404D01*
X182258367Y-89710667D01*
X182029558Y-89816151D01*
X182021406Y-89820670D01*
X181842353Y-89938062D01*
X181833216Y-89948803D01*
X132588500Y-89948803D01*
X132588500Y-88582500D01*
X172321358Y-88582500D01*
X172341870Y-88777655D01*
X172402508Y-88964280D01*
X172500623Y-89134220D01*
X172631926Y-89280047D01*
X172790679Y-89395388D01*
X172796707Y-89398072D01*
X172796709Y-89398073D01*
X172963913Y-89472517D01*
X172969944Y-89475202D01*
X173065914Y-89495601D01*
X173155428Y-89514628D01*
X173155432Y-89514628D01*
X173161885Y-89516000D01*
X173358115Y-89516000D01*
X173364568Y-89514628D01*
X173364572Y-89514628D01*
X173448446Y-89496800D01*
X173550056Y-89475202D01*
X173553189Y-89473807D01*
X173622977Y-89471811D01*
X173635174Y-89475689D01*
X173724684Y-89509245D01*
X173786866Y-89516000D01*
X174733134Y-89516000D01*
X174795316Y-89509245D01*
X174931705Y-89458115D01*
X175048261Y-89370761D01*
X175135615Y-89254205D01*
X175186745Y-89117816D01*
X175193500Y-89055634D01*
X175193500Y-88109366D01*
X175186745Y-88047184D01*
X175135615Y-87910795D01*
X175048261Y-87794239D01*
X174931705Y-87706885D01*
X174795316Y-87655755D01*
X174733134Y-87649000D01*
X173786866Y-87649000D01*
X173724684Y-87655755D01*
X173635179Y-87689309D01*
X173564373Y-87694492D01*
X173554807Y-87691913D01*
X173550056Y-87689798D01*
X173448446Y-87668200D01*
X173364572Y-87650372D01*
X173364568Y-87650372D01*
X173358115Y-87649000D01*
X173161885Y-87649000D01*
X173155432Y-87650372D01*
X173155428Y-87650372D01*
X173065914Y-87669399D01*
X172969944Y-87689798D01*
X172963914Y-87692483D01*
X172963913Y-87692483D01*
X172796709Y-87766927D01*
X172796707Y-87766928D01*
X172790679Y-87769612D01*
X172785338Y-87773492D01*
X172785337Y-87773493D01*
X172676309Y-87852707D01*
X172631926Y-87884953D01*
X172627505Y-87889863D01*
X172627504Y-87889864D01*
X172547501Y-87978717D01*
X172500623Y-88030780D01*
X172402508Y-88200720D01*
X172341870Y-88387345D01*
X172321358Y-88582500D01*
X132588500Y-88582500D01*
X132588500Y-86313839D01*
X181117173Y-86313839D01*
X181129713Y-86574908D01*
X181180704Y-86831256D01*
X181269026Y-87077252D01*
X181271242Y-87081376D01*
X181335753Y-87201437D01*
X181392737Y-87307491D01*
X181395532Y-87311234D01*
X181395534Y-87311237D01*
X181546330Y-87513177D01*
X181546335Y-87513183D01*
X181549122Y-87516915D01*
X181552431Y-87520195D01*
X181552436Y-87520201D01*
X181731426Y-87697635D01*
X181734743Y-87700923D01*
X181738505Y-87703681D01*
X181738508Y-87703684D01*
X181862010Y-87794239D01*
X181945524Y-87855474D01*
X181949667Y-87857654D01*
X181949669Y-87857655D01*
X182172684Y-87974989D01*
X182172689Y-87974991D01*
X182176834Y-87977172D01*
X182423590Y-88063344D01*
X182428183Y-88064216D01*
X182675785Y-88111224D01*
X182675788Y-88111224D01*
X182680374Y-88112095D01*
X182810958Y-88117226D01*
X182936875Y-88122174D01*
X182936881Y-88122174D01*
X182941543Y-88122357D01*
X183028961Y-88112783D01*
X183196707Y-88094412D01*
X183196712Y-88094411D01*
X183201360Y-88093902D01*
X183314116Y-88064216D01*
X183449594Y-88028548D01*
X183449596Y-88028547D01*
X183454117Y-88027357D01*
X183694262Y-87924182D01*
X183916519Y-87786646D01*
X183920082Y-87783629D01*
X183920087Y-87783626D01*
X184112439Y-87620787D01*
X184112440Y-87620786D01*
X184116005Y-87617768D01*
X184207729Y-87513177D01*
X184285257Y-87424774D01*
X184285261Y-87424769D01*
X184288339Y-87421259D01*
X184429733Y-87201437D01*
X184537083Y-86963129D01*
X184608030Y-86711572D01*
X184624832Y-86579496D01*
X184640616Y-86455421D01*
X184640616Y-86455417D01*
X184641014Y-86452291D01*
X184643431Y-86360000D01*
X184624061Y-86099348D01*
X184612725Y-86049248D01*
X184567408Y-85848980D01*
X184566377Y-85844423D01*
X184471647Y-85600823D01*
X184341951Y-85373902D01*
X184180138Y-85168643D01*
X183989763Y-84989557D01*
X183775009Y-84840576D01*
X183770816Y-84838508D01*
X183544781Y-84727040D01*
X183544778Y-84727039D01*
X183540593Y-84724975D01*
X183494449Y-84710204D01*
X183296123Y-84646720D01*
X183291665Y-84645293D01*
X183033693Y-84603279D01*
X182919942Y-84601790D01*
X182777022Y-84599919D01*
X182777019Y-84599919D01*
X182772345Y-84599858D01*
X182513362Y-84635104D01*
X182262433Y-84708243D01*
X182258180Y-84710203D01*
X182258179Y-84710204D01*
X182221659Y-84727040D01*
X182025072Y-84817668D01*
X181986067Y-84843241D01*
X181810404Y-84958410D01*
X181810399Y-84958414D01*
X181806491Y-84960976D01*
X181611494Y-85135018D01*
X181444363Y-85335970D01*
X181308771Y-85559419D01*
X181207697Y-85800455D01*
X181143359Y-86053783D01*
X181117173Y-86313839D01*
X132588500Y-86313839D01*
X132588500Y-82658134D01*
X181121500Y-82658134D01*
X181128255Y-82720316D01*
X181179385Y-82856705D01*
X181266739Y-82973261D01*
X181383295Y-83060615D01*
X181519684Y-83111745D01*
X181581866Y-83118500D01*
X184178134Y-83118500D01*
X184240316Y-83111745D01*
X184376705Y-83060615D01*
X184493261Y-82973261D01*
X184580615Y-82856705D01*
X184631745Y-82720316D01*
X184638500Y-82658134D01*
X184638500Y-80061866D01*
X184631745Y-79999684D01*
X184580615Y-79863295D01*
X184493261Y-79746739D01*
X184376705Y-79659385D01*
X184240316Y-79608255D01*
X184178134Y-79601500D01*
X181581866Y-79601500D01*
X181519684Y-79608255D01*
X181383295Y-79659385D01*
X181266739Y-79746739D01*
X181179385Y-79863295D01*
X181128255Y-79999684D01*
X181121500Y-80061866D01*
X181121500Y-82658134D01*
X132588500Y-82658134D01*
X132588500Y-72081927D01*
X132608502Y-72013806D01*
X132662158Y-71967313D01*
X132732432Y-71957209D01*
X132797012Y-71986703D01*
X132827065Y-72025313D01*
X132887160Y-72144799D01*
X132889586Y-72148328D01*
X132889589Y-72148334D01*
X133039843Y-72366953D01*
X133042274Y-72370490D01*
X133226582Y-72573043D01*
X133229877Y-72575798D01*
X133229878Y-72575799D01*
X133274382Y-72613010D01*
X133436675Y-72748707D01*
X133440316Y-72750991D01*
X133665024Y-72891951D01*
X133665028Y-72891953D01*
X133668664Y-72894234D01*
X133784703Y-72946628D01*
X133914345Y-73005164D01*
X133914349Y-73005166D01*
X133918257Y-73006930D01*
X133922377Y-73008150D01*
X133922376Y-73008150D01*
X134176723Y-73083491D01*
X134176727Y-73083492D01*
X134180836Y-73084709D01*
X134185070Y-73085357D01*
X134185075Y-73085358D01*
X134447298Y-73125483D01*
X134447300Y-73125483D01*
X134451540Y-73126132D01*
X134590912Y-73128322D01*
X134721071Y-73130367D01*
X134721077Y-73130367D01*
X134725362Y-73130434D01*
X134997235Y-73097534D01*
X135262127Y-73028041D01*
X135266087Y-73026401D01*
X135266092Y-73026399D01*
X135388631Y-72975641D01*
X135515136Y-72923241D01*
X135751582Y-72785073D01*
X135967089Y-72616094D01*
X135990987Y-72591434D01*
X136154686Y-72422509D01*
X136157669Y-72419431D01*
X136160202Y-72415983D01*
X136160206Y-72415978D01*
X136179289Y-72390000D01*
X172051358Y-72390000D01*
X172071870Y-72585155D01*
X172073910Y-72591433D01*
X172073910Y-72591434D01*
X172081923Y-72616094D01*
X172132508Y-72771780D01*
X172230623Y-72941720D01*
X172361926Y-73087547D01*
X172367268Y-73091428D01*
X172367270Y-73091430D01*
X172476900Y-73171081D01*
X172520679Y-73202888D01*
X172526707Y-73205572D01*
X172526709Y-73205573D01*
X172693913Y-73280017D01*
X172699944Y-73282702D01*
X172795915Y-73303101D01*
X172885428Y-73322128D01*
X172885432Y-73322128D01*
X172891885Y-73323500D01*
X173088115Y-73323500D01*
X173094568Y-73322128D01*
X173094572Y-73322128D01*
X173178446Y-73304300D01*
X173280056Y-73282702D01*
X173283189Y-73281307D01*
X173352977Y-73279311D01*
X173365174Y-73283189D01*
X173454684Y-73316745D01*
X173516866Y-73323500D01*
X174463134Y-73323500D01*
X174525316Y-73316745D01*
X174661705Y-73265615D01*
X174778261Y-73178261D01*
X174865615Y-73061705D01*
X174916745Y-72925316D01*
X174923500Y-72863134D01*
X174923500Y-71916866D01*
X174916745Y-71854684D01*
X174865615Y-71718295D01*
X174778261Y-71601739D01*
X174661705Y-71514385D01*
X174525316Y-71463255D01*
X174463134Y-71456500D01*
X173516866Y-71456500D01*
X173454684Y-71463255D01*
X173365179Y-71496809D01*
X173294373Y-71501992D01*
X173284807Y-71499413D01*
X173280056Y-71497298D01*
X173155820Y-71470891D01*
X173094572Y-71457872D01*
X173094568Y-71457872D01*
X173088115Y-71456500D01*
X172891885Y-71456500D01*
X172885432Y-71457872D01*
X172885428Y-71457872D01*
X172795915Y-71476899D01*
X172699944Y-71497298D01*
X172693914Y-71499983D01*
X172693913Y-71499983D01*
X172526709Y-71574427D01*
X172526707Y-71574428D01*
X172520679Y-71577112D01*
X172515338Y-71580992D01*
X172515337Y-71580993D01*
X172396113Y-71667615D01*
X172361926Y-71692453D01*
X172357505Y-71697363D01*
X172357504Y-71697364D01*
X172337485Y-71719598D01*
X172230623Y-71838280D01*
X172132508Y-72008220D01*
X172071870Y-72194845D01*
X172051358Y-72390000D01*
X136179289Y-72390000D01*
X136317257Y-72202178D01*
X136319795Y-72198723D01*
X136347154Y-72148334D01*
X136448418Y-71961830D01*
X136448419Y-71961828D01*
X136450468Y-71958054D01*
X136541065Y-71718295D01*
X136545751Y-71705895D01*
X136545752Y-71705891D01*
X136547269Y-71701877D01*
X136601285Y-71466029D01*
X136607449Y-71439117D01*
X136607450Y-71439113D01*
X136608407Y-71434933D01*
X136618012Y-71327316D01*
X136632531Y-71164627D01*
X136632531Y-71164625D01*
X136632751Y-71162161D01*
X136633193Y-71120000D01*
X136632765Y-71113724D01*
X136614859Y-70851055D01*
X136614858Y-70851049D01*
X136614567Y-70846778D01*
X136559032Y-70578612D01*
X136467617Y-70320465D01*
X136342013Y-70077112D01*
X136329380Y-70059136D01*
X136205801Y-69883301D01*
X136184545Y-69853057D01*
X136026995Y-69683513D01*
X136001046Y-69655588D01*
X136001043Y-69655585D01*
X135998125Y-69652445D01*
X135994810Y-69649731D01*
X135994806Y-69649728D01*
X135822018Y-69508303D01*
X135786205Y-69478990D01*
X135552704Y-69335901D01*
X135538972Y-69329873D01*
X135484636Y-69284177D01*
X135463632Y-69216359D01*
X135482627Y-69147950D01*
X135535591Y-69100671D01*
X135589618Y-69088500D01*
X146430015Y-69088500D01*
X146498136Y-69108502D01*
G37*
%TD.AperFunction*%
%TD*%
M02*
