%TF.GenerationSoftware,KiCad,Pcbnew,(6.0.11)*%
%TF.CreationDate,2023-02-10T19:02:31+05:30*%
%TF.ProjectId,1,312e6b69-6361-4645-9f70-636258585858,rev?*%
%TF.SameCoordinates,Original*%
%TF.FileFunction,Paste,Top*%
%TF.FilePolarity,Positive*%
%FSLAX46Y46*%
G04 Gerber Fmt 4.6, Leading zero omitted, Abs format (unit mm)*
G04 Created by KiCad (PCBNEW (6.0.11)) date 2023-02-10 19:02:31*
%MOMM*%
%LPD*%
G01*
G04 APERTURE LIST*
%ADD10R,3.505200X10.210800*%
%ADD11R,1.100000X1.350000*%
%ADD12R,1.117600X1.752600*%
%ADD13R,1.400000X1.000000*%
%ADD14R,1.050000X0.550000*%
%ADD15R,0.800000X1.000000*%
%ADD16R,0.300000X1.425000*%
%ADD17R,2.200000X1.550000*%
%ADD18R,1.200000X0.600000*%
%ADD19R,1.470000X1.020000*%
%ADD20R,0.812800X0.762000*%
%ADD21R,2.700000X1.150000*%
%ADD22R,1.981200X2.794000*%
G04 APERTURE END LIST*
D10*
%TO.C,L2*%
X159258000Y-82167500D03*
X165862000Y-82167500D03*
%TD*%
D11*
%TO.C,C2*%
X154230000Y-101600000D03*
X157530000Y-101600000D03*
%TD*%
D12*
%TO.C,R6*%
X170186800Y-84346400D03*
X173133200Y-84346400D03*
%TD*%
%TO.C,R5*%
X138426800Y-79068000D03*
X141373200Y-79068000D03*
%TD*%
D13*
%TO.C,R1*%
X156210000Y-93382800D03*
X156210000Y-91482800D03*
%TD*%
D14*
%TO.C,Boost_IC1*%
X145601000Y-98385000D03*
X145601000Y-99335000D03*
X145601000Y-100285000D03*
X148201000Y-100285000D03*
X148201000Y-99335000D03*
X148201000Y-98385000D03*
%TD*%
D15*
%TO.C,R3*%
X146200000Y-86700000D03*
X147800000Y-86700000D03*
%TD*%
D16*
%TO.C,U2*%
X171490000Y-80952000D03*
X171990000Y-80952000D03*
X172490000Y-80952000D03*
X172990000Y-80952000D03*
X173490000Y-80952000D03*
X173490000Y-76528000D03*
X172990000Y-76528000D03*
X172490000Y-76528000D03*
X171990000Y-76528000D03*
X171490000Y-76528000D03*
%TD*%
D17*
%TO.C,D1*%
X154600000Y-86360000D03*
X150500000Y-86360000D03*
%TD*%
D12*
%TO.C,R7*%
X170776800Y-100325000D03*
X173723200Y-100325000D03*
%TD*%
D18*
%TO.C,Buck_IC1*%
X145525000Y-81170000D03*
X145525000Y-82120000D03*
X145525000Y-83070000D03*
X148025000Y-83070000D03*
X148025000Y-81170000D03*
%TD*%
D16*
%TO.C,U3*%
X171950000Y-96192000D03*
X172450000Y-96192000D03*
X172950000Y-96192000D03*
X173450000Y-96192000D03*
X173950000Y-96192000D03*
X173950000Y-91768000D03*
X173450000Y-91768000D03*
X172950000Y-91768000D03*
X172450000Y-91768000D03*
X171950000Y-91768000D03*
%TD*%
D19*
%TO.C,C4*%
X164900000Y-91290000D03*
X164900000Y-92910000D03*
%TD*%
D16*
%TO.C,U1*%
X139609000Y-75872000D03*
X140109000Y-75872000D03*
X140609000Y-75872000D03*
X141109000Y-75872000D03*
X141609000Y-75872000D03*
X141609000Y-71448000D03*
X141109000Y-71448000D03*
X140609000Y-71448000D03*
X140109000Y-71448000D03*
X139609000Y-71448000D03*
%TD*%
D20*
%TO.C,R2*%
X154630200Y-99093700D03*
X154630200Y-97544300D03*
%TD*%
D19*
%TO.C,C1*%
X142800000Y-95790000D03*
X142800000Y-97410000D03*
%TD*%
D21*
%TO.C,C3*%
X137140000Y-86570000D03*
X137140000Y-83570000D03*
%TD*%
D22*
%TO.C,L1*%
X145118000Y-91715000D03*
X149182000Y-91715000D03*
%TD*%
M02*
