%TF.GenerationSoftware,KiCad,Pcbnew,(6.0.11)*%
%TF.CreationDate,2023-02-10T19:02:31+05:30*%
%TF.ProjectId,1,312e6b69-6361-4645-9f70-636258585858,rev?*%
%TF.SameCoordinates,Original*%
%TF.FileFunction,Legend,Top*%
%TF.FilePolarity,Positive*%
%FSLAX46Y46*%
G04 Gerber Fmt 4.6, Leading zero omitted, Abs format (unit mm)*
G04 Created by KiCad (PCBNEW (6.0.11)) date 2023-02-10 19:02:31*
%MOMM*%
%LPD*%
G01*
G04 APERTURE LIST*
%ADD10C,0.100000*%
%ADD11C,0.150000*%
%ADD12C,0.254000*%
%ADD13C,0.120000*%
%ADD14C,0.200000*%
%ADD15C,0.152400*%
G04 APERTURE END LIST*
D10*
X151176190Y-71185714D02*
X151138095Y-71223809D01*
X151023809Y-71261904D01*
X150947619Y-71261904D01*
X150833333Y-71223809D01*
X150757142Y-71147619D01*
X150719047Y-71071428D01*
X150680952Y-70919047D01*
X150680952Y-70804761D01*
X150719047Y-70652380D01*
X150757142Y-70576190D01*
X150833333Y-70500000D01*
X150947619Y-70461904D01*
X151023809Y-70461904D01*
X151138095Y-70500000D01*
X151176190Y-70538095D01*
X151861904Y-70728571D02*
X151861904Y-71261904D01*
X151519047Y-70728571D02*
X151519047Y-71147619D01*
X151557142Y-71223809D01*
X151633333Y-71261904D01*
X151747619Y-71261904D01*
X151823809Y-71223809D01*
X151861904Y-71185714D01*
X152242857Y-71261904D02*
X152242857Y-70461904D01*
X152242857Y-70766666D02*
X152319047Y-70728571D01*
X152471428Y-70728571D01*
X152547619Y-70766666D01*
X152585714Y-70804761D01*
X152623809Y-70880952D01*
X152623809Y-71109523D01*
X152585714Y-71185714D01*
X152547619Y-71223809D01*
X152471428Y-71261904D01*
X152319047Y-71261904D01*
X152242857Y-71223809D01*
X153271428Y-71223809D02*
X153195238Y-71261904D01*
X153042857Y-71261904D01*
X152966666Y-71223809D01*
X152928571Y-71147619D01*
X152928571Y-70842857D01*
X152966666Y-70766666D01*
X153042857Y-70728571D01*
X153195238Y-70728571D01*
X153271428Y-70766666D01*
X153309523Y-70842857D01*
X153309523Y-70919047D01*
X152928571Y-70995238D01*
X153614285Y-71223809D02*
X153728571Y-71261904D01*
X153919047Y-71261904D01*
X153995238Y-71223809D01*
X154033333Y-71185714D01*
X154071428Y-71109523D01*
X154071428Y-71033333D01*
X154033333Y-70957142D01*
X153995238Y-70919047D01*
X153919047Y-70880952D01*
X153766666Y-70842857D01*
X153690476Y-70804761D01*
X153652380Y-70766666D01*
X153614285Y-70690476D01*
X153614285Y-70614285D01*
X153652380Y-70538095D01*
X153690476Y-70500000D01*
X153766666Y-70461904D01*
X153957142Y-70461904D01*
X154071428Y-70500000D01*
X154757142Y-71261904D02*
X154757142Y-70842857D01*
X154719047Y-70766666D01*
X154642857Y-70728571D01*
X154490476Y-70728571D01*
X154414285Y-70766666D01*
X154757142Y-71223809D02*
X154680952Y-71261904D01*
X154490476Y-71261904D01*
X154414285Y-71223809D01*
X154376190Y-71147619D01*
X154376190Y-71071428D01*
X154414285Y-70995238D01*
X154490476Y-70957142D01*
X154680952Y-70957142D01*
X154757142Y-70919047D01*
X155023809Y-70728571D02*
X155328571Y-70728571D01*
X155138095Y-70461904D02*
X155138095Y-71147619D01*
X155176190Y-71223809D01*
X155252380Y-71261904D01*
X155328571Y-71261904D01*
X156204761Y-70842857D02*
X156471428Y-70842857D01*
X156585714Y-71261904D02*
X156204761Y-71261904D01*
X156204761Y-70461904D01*
X156585714Y-70461904D01*
X156928571Y-71261904D02*
X156928571Y-70461904D01*
X157233333Y-70461904D01*
X157309523Y-70500000D01*
X157347619Y-70538095D01*
X157385714Y-70614285D01*
X157385714Y-70728571D01*
X157347619Y-70804761D01*
X157309523Y-70842857D01*
X157233333Y-70880952D01*
X156928571Y-70880952D01*
X157690476Y-71223809D02*
X157804761Y-71261904D01*
X157995238Y-71261904D01*
X158071428Y-71223809D01*
X158109523Y-71185714D01*
X158147619Y-71109523D01*
X158147619Y-71033333D01*
X158109523Y-70957142D01*
X158071428Y-70919047D01*
X157995238Y-70880952D01*
X157842857Y-70842857D01*
X157766666Y-70804761D01*
X157728571Y-70766666D01*
X157690476Y-70690476D01*
X157690476Y-70614285D01*
X157728571Y-70538095D01*
X157766666Y-70500000D01*
X157842857Y-70461904D01*
X158033333Y-70461904D01*
X158147619Y-70500000D01*
X159557142Y-71261904D02*
X159290476Y-70880952D01*
X159100000Y-71261904D02*
X159100000Y-70461904D01*
X159404761Y-70461904D01*
X159480952Y-70500000D01*
X159519047Y-70538095D01*
X159557142Y-70614285D01*
X159557142Y-70728571D01*
X159519047Y-70804761D01*
X159480952Y-70842857D01*
X159404761Y-70880952D01*
X159100000Y-70880952D01*
X160204761Y-71223809D02*
X160128571Y-71261904D01*
X159976190Y-71261904D01*
X159900000Y-71223809D01*
X159861904Y-71147619D01*
X159861904Y-70842857D01*
X159900000Y-70766666D01*
X159976190Y-70728571D01*
X160128571Y-70728571D01*
X160204761Y-70766666D01*
X160242857Y-70842857D01*
X160242857Y-70919047D01*
X159861904Y-70995238D01*
X160928571Y-70728571D02*
X160928571Y-71376190D01*
X160890476Y-71452380D01*
X160852380Y-71490476D01*
X160776190Y-71528571D01*
X160661904Y-71528571D01*
X160585714Y-71490476D01*
X160928571Y-71223809D02*
X160852380Y-71261904D01*
X160700000Y-71261904D01*
X160623809Y-71223809D01*
X160585714Y-71185714D01*
X160547619Y-71109523D01*
X160547619Y-70880952D01*
X160585714Y-70804761D01*
X160623809Y-70766666D01*
X160700000Y-70728571D01*
X160852380Y-70728571D01*
X160928571Y-70766666D01*
X161652380Y-70728571D02*
X161652380Y-71261904D01*
X161309523Y-70728571D02*
X161309523Y-71147619D01*
X161347619Y-71223809D01*
X161423809Y-71261904D01*
X161538095Y-71261904D01*
X161614285Y-71223809D01*
X161652380Y-71185714D01*
X162147619Y-71261904D02*
X162071428Y-71223809D01*
X162033333Y-71147619D01*
X162033333Y-70461904D01*
X162795238Y-71261904D02*
X162795238Y-70842857D01*
X162757142Y-70766666D01*
X162680952Y-70728571D01*
X162528571Y-70728571D01*
X162452380Y-70766666D01*
X162795238Y-71223809D02*
X162719047Y-71261904D01*
X162528571Y-71261904D01*
X162452380Y-71223809D01*
X162414285Y-71147619D01*
X162414285Y-71071428D01*
X162452380Y-70995238D01*
X162528571Y-70957142D01*
X162719047Y-70957142D01*
X162795238Y-70919047D01*
X163061904Y-70728571D02*
X163366666Y-70728571D01*
X163176190Y-70461904D02*
X163176190Y-71147619D01*
X163214285Y-71223809D01*
X163290476Y-71261904D01*
X163366666Y-71261904D01*
X163633333Y-71261904D02*
X163633333Y-70728571D01*
X163633333Y-70461904D02*
X163595238Y-70500000D01*
X163633333Y-70538095D01*
X163671428Y-70500000D01*
X163633333Y-70461904D01*
X163633333Y-70538095D01*
X164128571Y-71261904D02*
X164052380Y-71223809D01*
X164014285Y-71185714D01*
X163976190Y-71109523D01*
X163976190Y-70880952D01*
X164014285Y-70804761D01*
X164052380Y-70766666D01*
X164128571Y-70728571D01*
X164242857Y-70728571D01*
X164319047Y-70766666D01*
X164357142Y-70804761D01*
X164395238Y-70880952D01*
X164395238Y-71109523D01*
X164357142Y-71185714D01*
X164319047Y-71223809D01*
X164242857Y-71261904D01*
X164128571Y-71261904D01*
X164738095Y-70728571D02*
X164738095Y-71261904D01*
X164738095Y-70804761D02*
X164776190Y-70766666D01*
X164852380Y-70728571D01*
X164966666Y-70728571D01*
X165042857Y-70766666D01*
X165080952Y-70842857D01*
X165080952Y-71261904D01*
X166071428Y-71261904D02*
X166071428Y-70461904D01*
X166338095Y-71033333D01*
X166604761Y-70461904D01*
X166604761Y-71261904D01*
X167100000Y-71261904D02*
X167023809Y-71223809D01*
X166985714Y-71185714D01*
X166947619Y-71109523D01*
X166947619Y-70880952D01*
X166985714Y-70804761D01*
X167023809Y-70766666D01*
X167100000Y-70728571D01*
X167214285Y-70728571D01*
X167290476Y-70766666D01*
X167328571Y-70804761D01*
X167366666Y-70880952D01*
X167366666Y-71109523D01*
X167328571Y-71185714D01*
X167290476Y-71223809D01*
X167214285Y-71261904D01*
X167100000Y-71261904D01*
X168052380Y-71261904D02*
X168052380Y-70461904D01*
X168052380Y-71223809D02*
X167976190Y-71261904D01*
X167823809Y-71261904D01*
X167747619Y-71223809D01*
X167709523Y-71185714D01*
X167671428Y-71109523D01*
X167671428Y-70880952D01*
X167709523Y-70804761D01*
X167747619Y-70766666D01*
X167823809Y-70728571D01*
X167976190Y-70728571D01*
X168052380Y-70766666D01*
X168776190Y-70728571D02*
X168776190Y-71261904D01*
X168433333Y-70728571D02*
X168433333Y-71147619D01*
X168471428Y-71223809D01*
X168547619Y-71261904D01*
X168661904Y-71261904D01*
X168738095Y-71223809D01*
X168776190Y-71185714D01*
X169271428Y-71261904D02*
X169195238Y-71223809D01*
X169157142Y-71147619D01*
X169157142Y-70461904D01*
X169880952Y-71223809D02*
X169804761Y-71261904D01*
X169652380Y-71261904D01*
X169576190Y-71223809D01*
X169538095Y-71147619D01*
X169538095Y-70842857D01*
X169576190Y-70766666D01*
X169652380Y-70728571D01*
X169804761Y-70728571D01*
X169880952Y-70766666D01*
X169919047Y-70842857D01*
X169919047Y-70919047D01*
X169538095Y-70995238D01*
X156647619Y-72200000D02*
X156571428Y-72161904D01*
X156457142Y-72161904D01*
X156342857Y-72200000D01*
X156266666Y-72276190D01*
X156228571Y-72352380D01*
X156190476Y-72504761D01*
X156190476Y-72619047D01*
X156228571Y-72771428D01*
X156266666Y-72847619D01*
X156342857Y-72923809D01*
X156457142Y-72961904D01*
X156533333Y-72961904D01*
X156647619Y-72923809D01*
X156685714Y-72885714D01*
X156685714Y-72619047D01*
X156533333Y-72619047D01*
X157028571Y-72542857D02*
X157295238Y-72542857D01*
X157409523Y-72961904D02*
X157028571Y-72961904D01*
X157028571Y-72161904D01*
X157409523Y-72161904D01*
X158209523Y-72885714D02*
X158171428Y-72923809D01*
X158057142Y-72961904D01*
X157980952Y-72961904D01*
X157866666Y-72923809D01*
X157790476Y-72847619D01*
X157752380Y-72771428D01*
X157714285Y-72619047D01*
X157714285Y-72504761D01*
X157752380Y-72352380D01*
X157790476Y-72276190D01*
X157866666Y-72200000D01*
X157980952Y-72161904D01*
X158057142Y-72161904D01*
X158171428Y-72200000D01*
X158209523Y-72238095D01*
X159428571Y-72542857D02*
X159542857Y-72580952D01*
X159580952Y-72619047D01*
X159619047Y-72695238D01*
X159619047Y-72809523D01*
X159580952Y-72885714D01*
X159542857Y-72923809D01*
X159466666Y-72961904D01*
X159161904Y-72961904D01*
X159161904Y-72161904D01*
X159428571Y-72161904D01*
X159504761Y-72200000D01*
X159542857Y-72238095D01*
X159580952Y-72314285D01*
X159580952Y-72390476D01*
X159542857Y-72466666D01*
X159504761Y-72504761D01*
X159428571Y-72542857D01*
X159161904Y-72542857D01*
X160304761Y-72961904D02*
X160304761Y-72542857D01*
X160266666Y-72466666D01*
X160190476Y-72428571D01*
X160038095Y-72428571D01*
X159961904Y-72466666D01*
X160304761Y-72923809D02*
X160228571Y-72961904D01*
X160038095Y-72961904D01*
X159961904Y-72923809D01*
X159923809Y-72847619D01*
X159923809Y-72771428D01*
X159961904Y-72695238D01*
X160038095Y-72657142D01*
X160228571Y-72657142D01*
X160304761Y-72619047D01*
X160685714Y-72961904D02*
X160685714Y-72428571D01*
X160685714Y-72580952D02*
X160723809Y-72504761D01*
X160761904Y-72466666D01*
X160838095Y-72428571D01*
X160914285Y-72428571D01*
X161066666Y-72428571D02*
X161371428Y-72428571D01*
X161180952Y-72161904D02*
X161180952Y-72847619D01*
X161219047Y-72923809D01*
X161295238Y-72961904D01*
X161371428Y-72961904D01*
X161752380Y-72961904D02*
X161676190Y-72923809D01*
X161638095Y-72885714D01*
X161600000Y-72809523D01*
X161600000Y-72580952D01*
X161638095Y-72504761D01*
X161676190Y-72466666D01*
X161752380Y-72428571D01*
X161866666Y-72428571D01*
X161942857Y-72466666D01*
X161980952Y-72504761D01*
X162019047Y-72580952D01*
X162019047Y-72809523D01*
X161980952Y-72885714D01*
X161942857Y-72923809D01*
X161866666Y-72961904D01*
X161752380Y-72961904D01*
X162361904Y-72428571D02*
X162361904Y-72961904D01*
X162361904Y-72504761D02*
X162399999Y-72466666D01*
X162476190Y-72428571D01*
X162590476Y-72428571D01*
X162666666Y-72466666D01*
X162704761Y-72542857D01*
X162704761Y-72961904D01*
X163695238Y-72961904D02*
X163695238Y-72161904D01*
X163695238Y-72542857D02*
X164152380Y-72542857D01*
X164152380Y-72961904D02*
X164152380Y-72161904D01*
X164533333Y-72961904D02*
X164533333Y-72428571D01*
X164533333Y-72161904D02*
X164495238Y-72200000D01*
X164533333Y-72238095D01*
X164571428Y-72200000D01*
X164533333Y-72161904D01*
X164533333Y-72238095D01*
X165028571Y-72961904D02*
X164952380Y-72923809D01*
X164914285Y-72847619D01*
X164914285Y-72161904D01*
X165447619Y-72961904D02*
X165371428Y-72923809D01*
X165333333Y-72847619D01*
X165333333Y-72161904D01*
D11*
%TO.C,L2*%
X158100000Y-76471428D02*
X157814285Y-76471428D01*
X157814285Y-75871428D01*
X158271428Y-75928571D02*
X158300000Y-75900000D01*
X158357142Y-75871428D01*
X158500000Y-75871428D01*
X158557142Y-75900000D01*
X158585714Y-75928571D01*
X158614285Y-75985714D01*
X158614285Y-76042857D01*
X158585714Y-76128571D01*
X158242857Y-76471428D01*
X158614285Y-76471428D01*
%TO.C,C2*%
X155400000Y-100414285D02*
X155371428Y-100442857D01*
X155285714Y-100471428D01*
X155228571Y-100471428D01*
X155142857Y-100442857D01*
X155085714Y-100385714D01*
X155057142Y-100328571D01*
X155028571Y-100214285D01*
X155028571Y-100128571D01*
X155057142Y-100014285D01*
X155085714Y-99957142D01*
X155142857Y-99900000D01*
X155228571Y-99871428D01*
X155285714Y-99871428D01*
X155371428Y-99900000D01*
X155400000Y-99928571D01*
X155628571Y-99928571D02*
X155657142Y-99900000D01*
X155714285Y-99871428D01*
X155857142Y-99871428D01*
X155914285Y-99900000D01*
X155942857Y-99928571D01*
X155971428Y-99985714D01*
X155971428Y-100042857D01*
X155942857Y-100128571D01*
X155600000Y-100471428D01*
X155971428Y-100471428D01*
%TO.C,R6*%
X171500000Y-86471428D02*
X171300000Y-86185714D01*
X171157142Y-86471428D02*
X171157142Y-85871428D01*
X171385714Y-85871428D01*
X171442857Y-85900000D01*
X171471428Y-85928571D01*
X171500000Y-85985714D01*
X171500000Y-86071428D01*
X171471428Y-86128571D01*
X171442857Y-86157142D01*
X171385714Y-86185714D01*
X171157142Y-86185714D01*
X172014285Y-85871428D02*
X171900000Y-85871428D01*
X171842857Y-85900000D01*
X171814285Y-85928571D01*
X171757142Y-86014285D01*
X171728571Y-86128571D01*
X171728571Y-86357142D01*
X171757142Y-86414285D01*
X171785714Y-86442857D01*
X171842857Y-86471428D01*
X171957142Y-86471428D01*
X172014285Y-86442857D01*
X172042857Y-86414285D01*
X172071428Y-86357142D01*
X172071428Y-86214285D01*
X172042857Y-86157142D01*
X172014285Y-86128571D01*
X171957142Y-86100000D01*
X171842857Y-86100000D01*
X171785714Y-86128571D01*
X171757142Y-86157142D01*
X171728571Y-86214285D01*
%TO.C,R5*%
X138200000Y-77671428D02*
X138000000Y-77385714D01*
X137857142Y-77671428D02*
X137857142Y-77071428D01*
X138085714Y-77071428D01*
X138142857Y-77100000D01*
X138171428Y-77128571D01*
X138200000Y-77185714D01*
X138200000Y-77271428D01*
X138171428Y-77328571D01*
X138142857Y-77357142D01*
X138085714Y-77385714D01*
X137857142Y-77385714D01*
X138742857Y-77071428D02*
X138457142Y-77071428D01*
X138428571Y-77357142D01*
X138457142Y-77328571D01*
X138514285Y-77300000D01*
X138657142Y-77300000D01*
X138714285Y-77328571D01*
X138742857Y-77357142D01*
X138771428Y-77414285D01*
X138771428Y-77557142D01*
X138742857Y-77614285D01*
X138714285Y-77642857D01*
X138657142Y-77671428D01*
X138514285Y-77671428D01*
X138457142Y-77642857D01*
X138428571Y-77614285D01*
%TO.C,J1*%
X181666666Y-77052380D02*
X181666666Y-77766666D01*
X181619047Y-77909523D01*
X181523809Y-78004761D01*
X181380952Y-78052380D01*
X181285714Y-78052380D01*
X182666666Y-78052380D02*
X182095238Y-78052380D01*
X182380952Y-78052380D02*
X182380952Y-77052380D01*
X182285714Y-77195238D01*
X182190476Y-77290476D01*
X182095238Y-77338095D01*
%TO.C,R1*%
X154500000Y-91471428D02*
X154300000Y-91185714D01*
X154157142Y-91471428D02*
X154157142Y-90871428D01*
X154385714Y-90871428D01*
X154442857Y-90900000D01*
X154471428Y-90928571D01*
X154500000Y-90985714D01*
X154500000Y-91071428D01*
X154471428Y-91128571D01*
X154442857Y-91157142D01*
X154385714Y-91185714D01*
X154157142Y-91185714D01*
X155071428Y-91471428D02*
X154728571Y-91471428D01*
X154900000Y-91471428D02*
X154900000Y-90871428D01*
X154842857Y-90957142D01*
X154785714Y-91014285D01*
X154728571Y-91042857D01*
%TO.C,Boost_IC1*%
X145228571Y-102357142D02*
X145314285Y-102385714D01*
X145342857Y-102414285D01*
X145371428Y-102471428D01*
X145371428Y-102557142D01*
X145342857Y-102614285D01*
X145314285Y-102642857D01*
X145257142Y-102671428D01*
X145028571Y-102671428D01*
X145028571Y-102071428D01*
X145228571Y-102071428D01*
X145285714Y-102100000D01*
X145314285Y-102128571D01*
X145342857Y-102185714D01*
X145342857Y-102242857D01*
X145314285Y-102300000D01*
X145285714Y-102328571D01*
X145228571Y-102357142D01*
X145028571Y-102357142D01*
X145714285Y-102671428D02*
X145657142Y-102642857D01*
X145628571Y-102614285D01*
X145600000Y-102557142D01*
X145600000Y-102385714D01*
X145628571Y-102328571D01*
X145657142Y-102300000D01*
X145714285Y-102271428D01*
X145800000Y-102271428D01*
X145857142Y-102300000D01*
X145885714Y-102328571D01*
X145914285Y-102385714D01*
X145914285Y-102557142D01*
X145885714Y-102614285D01*
X145857142Y-102642857D01*
X145800000Y-102671428D01*
X145714285Y-102671428D01*
X146257142Y-102671428D02*
X146200000Y-102642857D01*
X146171428Y-102614285D01*
X146142857Y-102557142D01*
X146142857Y-102385714D01*
X146171428Y-102328571D01*
X146200000Y-102300000D01*
X146257142Y-102271428D01*
X146342857Y-102271428D01*
X146400000Y-102300000D01*
X146428571Y-102328571D01*
X146457142Y-102385714D01*
X146457142Y-102557142D01*
X146428571Y-102614285D01*
X146400000Y-102642857D01*
X146342857Y-102671428D01*
X146257142Y-102671428D01*
X146685714Y-102642857D02*
X146742857Y-102671428D01*
X146857142Y-102671428D01*
X146914285Y-102642857D01*
X146942857Y-102585714D01*
X146942857Y-102557142D01*
X146914285Y-102500000D01*
X146857142Y-102471428D01*
X146771428Y-102471428D01*
X146714285Y-102442857D01*
X146685714Y-102385714D01*
X146685714Y-102357142D01*
X146714285Y-102300000D01*
X146771428Y-102271428D01*
X146857142Y-102271428D01*
X146914285Y-102300000D01*
X147114285Y-102271428D02*
X147342857Y-102271428D01*
X147200000Y-102071428D02*
X147200000Y-102585714D01*
X147228571Y-102642857D01*
X147285714Y-102671428D01*
X147342857Y-102671428D01*
X147400000Y-102728571D02*
X147857142Y-102728571D01*
X148000000Y-102671428D02*
X148000000Y-102071428D01*
X148628571Y-102614285D02*
X148600000Y-102642857D01*
X148514285Y-102671428D01*
X148457142Y-102671428D01*
X148371428Y-102642857D01*
X148314285Y-102585714D01*
X148285714Y-102528571D01*
X148257142Y-102414285D01*
X148257142Y-102328571D01*
X148285714Y-102214285D01*
X148314285Y-102157142D01*
X148371428Y-102100000D01*
X148457142Y-102071428D01*
X148514285Y-102071428D01*
X148600000Y-102100000D01*
X148628571Y-102128571D01*
X149200000Y-102671428D02*
X148857142Y-102671428D01*
X149028571Y-102671428D02*
X149028571Y-102071428D01*
X148971428Y-102157142D01*
X148914285Y-102214285D01*
X148857142Y-102242857D01*
%TO.C,R3*%
X146000000Y-85671428D02*
X145800000Y-85385714D01*
X145657142Y-85671428D02*
X145657142Y-85071428D01*
X145885714Y-85071428D01*
X145942857Y-85100000D01*
X145971428Y-85128571D01*
X146000000Y-85185714D01*
X146000000Y-85271428D01*
X145971428Y-85328571D01*
X145942857Y-85357142D01*
X145885714Y-85385714D01*
X145657142Y-85385714D01*
X146200000Y-85071428D02*
X146571428Y-85071428D01*
X146371428Y-85300000D01*
X146457142Y-85300000D01*
X146514285Y-85328571D01*
X146542857Y-85357142D01*
X146571428Y-85414285D01*
X146571428Y-85557142D01*
X146542857Y-85614285D01*
X146514285Y-85642857D01*
X146457142Y-85671428D01*
X146285714Y-85671428D01*
X146228571Y-85642857D01*
X146200000Y-85614285D01*
%TO.C,U2*%
X175071428Y-79257142D02*
X175557142Y-79257142D01*
X175614285Y-79228571D01*
X175642857Y-79200000D01*
X175671428Y-79142857D01*
X175671428Y-79028571D01*
X175642857Y-78971428D01*
X175614285Y-78942857D01*
X175557142Y-78914285D01*
X175071428Y-78914285D01*
X175128571Y-78657142D02*
X175100000Y-78628571D01*
X175071428Y-78571428D01*
X175071428Y-78428571D01*
X175100000Y-78371428D01*
X175128571Y-78342857D01*
X175185714Y-78314285D01*
X175242857Y-78314285D01*
X175328571Y-78342857D01*
X175671428Y-78685714D01*
X175671428Y-78314285D01*
D12*
%TO.C,D1*%
X151612619Y-86934523D02*
X151612619Y-85664523D01*
X151915000Y-85664523D01*
X152096428Y-85725000D01*
X152217380Y-85845952D01*
X152277857Y-85966904D01*
X152338333Y-86208809D01*
X152338333Y-86390238D01*
X152277857Y-86632142D01*
X152217380Y-86753095D01*
X152096428Y-86874047D01*
X151915000Y-86934523D01*
X151612619Y-86934523D01*
X153547857Y-86934523D02*
X152822142Y-86934523D01*
X153185000Y-86934523D02*
X153185000Y-85664523D01*
X153064047Y-85845952D01*
X152943095Y-85966904D01*
X152822142Y-86027380D01*
D11*
%TO.C,J2*%
X133200000Y-73171428D02*
X133200000Y-73600000D01*
X133171428Y-73685714D01*
X133114285Y-73742857D01*
X133028571Y-73771428D01*
X132971428Y-73771428D01*
X133457142Y-73228571D02*
X133485714Y-73200000D01*
X133542857Y-73171428D01*
X133685714Y-73171428D01*
X133742857Y-73200000D01*
X133771428Y-73228571D01*
X133800000Y-73285714D01*
X133800000Y-73342857D01*
X133771428Y-73428571D01*
X133428571Y-73771428D01*
X133800000Y-73771428D01*
%TO.C,R7*%
X170600000Y-98971428D02*
X170400000Y-98685714D01*
X170257142Y-98971428D02*
X170257142Y-98371428D01*
X170485714Y-98371428D01*
X170542857Y-98400000D01*
X170571428Y-98428571D01*
X170600000Y-98485714D01*
X170600000Y-98571428D01*
X170571428Y-98628571D01*
X170542857Y-98657142D01*
X170485714Y-98685714D01*
X170257142Y-98685714D01*
X170800000Y-98371428D02*
X171200000Y-98371428D01*
X170942857Y-98971428D01*
%TO.C,Buck_IC1*%
X145214285Y-79457142D02*
X145300000Y-79485714D01*
X145328571Y-79514285D01*
X145357142Y-79571428D01*
X145357142Y-79657142D01*
X145328571Y-79714285D01*
X145300000Y-79742857D01*
X145242857Y-79771428D01*
X145014285Y-79771428D01*
X145014285Y-79171428D01*
X145214285Y-79171428D01*
X145271428Y-79200000D01*
X145300000Y-79228571D01*
X145328571Y-79285714D01*
X145328571Y-79342857D01*
X145300000Y-79400000D01*
X145271428Y-79428571D01*
X145214285Y-79457142D01*
X145014285Y-79457142D01*
X145871428Y-79371428D02*
X145871428Y-79771428D01*
X145614285Y-79371428D02*
X145614285Y-79685714D01*
X145642857Y-79742857D01*
X145700000Y-79771428D01*
X145785714Y-79771428D01*
X145842857Y-79742857D01*
X145871428Y-79714285D01*
X146414285Y-79742857D02*
X146357142Y-79771428D01*
X146242857Y-79771428D01*
X146185714Y-79742857D01*
X146157142Y-79714285D01*
X146128571Y-79657142D01*
X146128571Y-79485714D01*
X146157142Y-79428571D01*
X146185714Y-79400000D01*
X146242857Y-79371428D01*
X146357142Y-79371428D01*
X146414285Y-79400000D01*
X146671428Y-79771428D02*
X146671428Y-79171428D01*
X146728571Y-79542857D02*
X146900000Y-79771428D01*
X146900000Y-79371428D02*
X146671428Y-79600000D01*
X147014285Y-79828571D02*
X147471428Y-79828571D01*
X147614285Y-79771428D02*
X147614285Y-79171428D01*
X148242857Y-79714285D02*
X148214285Y-79742857D01*
X148128571Y-79771428D01*
X148071428Y-79771428D01*
X147985714Y-79742857D01*
X147928571Y-79685714D01*
X147900000Y-79628571D01*
X147871428Y-79514285D01*
X147871428Y-79428571D01*
X147900000Y-79314285D01*
X147928571Y-79257142D01*
X147985714Y-79200000D01*
X148071428Y-79171428D01*
X148128571Y-79171428D01*
X148214285Y-79200000D01*
X148242857Y-79228571D01*
X148814285Y-79771428D02*
X148471428Y-79771428D01*
X148642857Y-79771428D02*
X148642857Y-79171428D01*
X148585714Y-79257142D01*
X148528571Y-79314285D01*
X148471428Y-79342857D01*
%TO.C,I2C1*%
X172128571Y-70771428D02*
X172128571Y-70171428D01*
X172385714Y-70228571D02*
X172414285Y-70200000D01*
X172471428Y-70171428D01*
X172614285Y-70171428D01*
X172671428Y-70200000D01*
X172700000Y-70228571D01*
X172728571Y-70285714D01*
X172728571Y-70342857D01*
X172700000Y-70428571D01*
X172357142Y-70771428D01*
X172728571Y-70771428D01*
X173328571Y-70714285D02*
X173300000Y-70742857D01*
X173214285Y-70771428D01*
X173157142Y-70771428D01*
X173071428Y-70742857D01*
X173014285Y-70685714D01*
X172985714Y-70628571D01*
X172957142Y-70514285D01*
X172957142Y-70428571D01*
X172985714Y-70314285D01*
X173014285Y-70257142D01*
X173071428Y-70200000D01*
X173157142Y-70171428D01*
X173214285Y-70171428D01*
X173300000Y-70200000D01*
X173328571Y-70228571D01*
X173900000Y-70771428D02*
X173557142Y-70771428D01*
X173728571Y-70771428D02*
X173728571Y-70171428D01*
X173671428Y-70257142D01*
X173614285Y-70314285D01*
X173557142Y-70342857D01*
%TO.C,U3*%
X173242857Y-97471428D02*
X173242857Y-97957142D01*
X173271428Y-98014285D01*
X173300000Y-98042857D01*
X173357142Y-98071428D01*
X173471428Y-98071428D01*
X173528571Y-98042857D01*
X173557142Y-98014285D01*
X173585714Y-97957142D01*
X173585714Y-97471428D01*
X173814285Y-97471428D02*
X174185714Y-97471428D01*
X173985714Y-97700000D01*
X174071428Y-97700000D01*
X174128571Y-97728571D01*
X174157142Y-97757142D01*
X174185714Y-97814285D01*
X174185714Y-97957142D01*
X174157142Y-98014285D01*
X174128571Y-98042857D01*
X174071428Y-98071428D01*
X173900000Y-98071428D01*
X173842857Y-98042857D01*
X173814285Y-98014285D01*
%TO.C,J3*%
X133600000Y-98771428D02*
X133600000Y-99200000D01*
X133571428Y-99285714D01*
X133514285Y-99342857D01*
X133428571Y-99371428D01*
X133371428Y-99371428D01*
X133828571Y-98771428D02*
X134200000Y-98771428D01*
X134000000Y-99000000D01*
X134085714Y-99000000D01*
X134142857Y-99028571D01*
X134171428Y-99057142D01*
X134200000Y-99114285D01*
X134200000Y-99257142D01*
X134171428Y-99314285D01*
X134142857Y-99342857D01*
X134085714Y-99371428D01*
X133914285Y-99371428D01*
X133857142Y-99342857D01*
X133828571Y-99314285D01*
%TO.C,I2C3*%
X146448571Y-72623428D02*
X146448571Y-72023428D01*
X146705714Y-72080571D02*
X146734285Y-72052000D01*
X146791428Y-72023428D01*
X146934285Y-72023428D01*
X146991428Y-72052000D01*
X147020000Y-72080571D01*
X147048571Y-72137714D01*
X147048571Y-72194857D01*
X147020000Y-72280571D01*
X146677142Y-72623428D01*
X147048571Y-72623428D01*
X147648571Y-72566285D02*
X147620000Y-72594857D01*
X147534285Y-72623428D01*
X147477142Y-72623428D01*
X147391428Y-72594857D01*
X147334285Y-72537714D01*
X147305714Y-72480571D01*
X147277142Y-72366285D01*
X147277142Y-72280571D01*
X147305714Y-72166285D01*
X147334285Y-72109142D01*
X147391428Y-72052000D01*
X147477142Y-72023428D01*
X147534285Y-72023428D01*
X147620000Y-72052000D01*
X147648571Y-72080571D01*
X147848571Y-72023428D02*
X148220000Y-72023428D01*
X148020000Y-72252000D01*
X148105714Y-72252000D01*
X148162857Y-72280571D01*
X148191428Y-72309142D01*
X148220000Y-72366285D01*
X148220000Y-72509142D01*
X148191428Y-72566285D01*
X148162857Y-72594857D01*
X148105714Y-72623428D01*
X147934285Y-72623428D01*
X147877142Y-72594857D01*
X147848571Y-72566285D01*
%TO.C,C4*%
X163282285Y-92200000D02*
X163310857Y-92228571D01*
X163339428Y-92314285D01*
X163339428Y-92371428D01*
X163310857Y-92457142D01*
X163253714Y-92514285D01*
X163196571Y-92542857D01*
X163082285Y-92571428D01*
X162996571Y-92571428D01*
X162882285Y-92542857D01*
X162825142Y-92514285D01*
X162768000Y-92457142D01*
X162739428Y-92371428D01*
X162739428Y-92314285D01*
X162768000Y-92228571D01*
X162796571Y-92200000D01*
X162939428Y-91685714D02*
X163339428Y-91685714D01*
X162710857Y-91828571D02*
X163139428Y-91971428D01*
X163139428Y-91600000D01*
%TO.C,U1*%
X141042857Y-76871428D02*
X141042857Y-77357142D01*
X141071428Y-77414285D01*
X141100000Y-77442857D01*
X141157142Y-77471428D01*
X141271428Y-77471428D01*
X141328571Y-77442857D01*
X141357142Y-77414285D01*
X141385714Y-77357142D01*
X141385714Y-76871428D01*
X141985714Y-77471428D02*
X141642857Y-77471428D01*
X141814285Y-77471428D02*
X141814285Y-76871428D01*
X141757142Y-76957142D01*
X141700000Y-77014285D01*
X141642857Y-77042857D01*
%TO.C,R2*%
X153300000Y-97071428D02*
X153100000Y-96785714D01*
X152957142Y-97071428D02*
X152957142Y-96471428D01*
X153185714Y-96471428D01*
X153242857Y-96500000D01*
X153271428Y-96528571D01*
X153300000Y-96585714D01*
X153300000Y-96671428D01*
X153271428Y-96728571D01*
X153242857Y-96757142D01*
X153185714Y-96785714D01*
X152957142Y-96785714D01*
X153528571Y-96528571D02*
X153557142Y-96500000D01*
X153614285Y-96471428D01*
X153757142Y-96471428D01*
X153814285Y-96500000D01*
X153842857Y-96528571D01*
X153871428Y-96585714D01*
X153871428Y-96642857D01*
X153842857Y-96728571D01*
X153500000Y-97071428D01*
X153871428Y-97071428D01*
%TO.C,I2C2*%
X173028571Y-87271428D02*
X173028571Y-86671428D01*
X173285714Y-86728571D02*
X173314285Y-86700000D01*
X173371428Y-86671428D01*
X173514285Y-86671428D01*
X173571428Y-86700000D01*
X173600000Y-86728571D01*
X173628571Y-86785714D01*
X173628571Y-86842857D01*
X173600000Y-86928571D01*
X173257142Y-87271428D01*
X173628571Y-87271428D01*
X174228571Y-87214285D02*
X174200000Y-87242857D01*
X174114285Y-87271428D01*
X174057142Y-87271428D01*
X173971428Y-87242857D01*
X173914285Y-87185714D01*
X173885714Y-87128571D01*
X173857142Y-87014285D01*
X173857142Y-86928571D01*
X173885714Y-86814285D01*
X173914285Y-86757142D01*
X173971428Y-86700000D01*
X174057142Y-86671428D01*
X174114285Y-86671428D01*
X174200000Y-86700000D01*
X174228571Y-86728571D01*
X174457142Y-86728571D02*
X174485714Y-86700000D01*
X174542857Y-86671428D01*
X174685714Y-86671428D01*
X174742857Y-86700000D01*
X174771428Y-86728571D01*
X174800000Y-86785714D01*
X174800000Y-86842857D01*
X174771428Y-86928571D01*
X174428571Y-87271428D01*
X174800000Y-87271428D01*
%TO.C,C1*%
X141438285Y-96700000D02*
X141466857Y-96728571D01*
X141495428Y-96814285D01*
X141495428Y-96871428D01*
X141466857Y-96957142D01*
X141409714Y-97014285D01*
X141352571Y-97042857D01*
X141238285Y-97071428D01*
X141152571Y-97071428D01*
X141038285Y-97042857D01*
X140981142Y-97014285D01*
X140924000Y-96957142D01*
X140895428Y-96871428D01*
X140895428Y-96814285D01*
X140924000Y-96728571D01*
X140952571Y-96700000D01*
X141495428Y-96128571D02*
X141495428Y-96471428D01*
X141495428Y-96300000D02*
X140895428Y-96300000D01*
X140981142Y-96357142D01*
X141038285Y-96414285D01*
X141066857Y-96471428D01*
%TO.C,C3*%
X136000000Y-81914285D02*
X135971428Y-81942857D01*
X135885714Y-81971428D01*
X135828571Y-81971428D01*
X135742857Y-81942857D01*
X135685714Y-81885714D01*
X135657142Y-81828571D01*
X135628571Y-81714285D01*
X135628571Y-81628571D01*
X135657142Y-81514285D01*
X135685714Y-81457142D01*
X135742857Y-81400000D01*
X135828571Y-81371428D01*
X135885714Y-81371428D01*
X135971428Y-81400000D01*
X136000000Y-81428571D01*
X136200000Y-81371428D02*
X136571428Y-81371428D01*
X136371428Y-81600000D01*
X136457142Y-81600000D01*
X136514285Y-81628571D01*
X136542857Y-81657142D01*
X136571428Y-81714285D01*
X136571428Y-81857142D01*
X136542857Y-81914285D01*
X136514285Y-81942857D01*
X136457142Y-81971428D01*
X136285714Y-81971428D01*
X136228571Y-81942857D01*
X136200000Y-81914285D01*
%TO.C,L1*%
X144700000Y-88471428D02*
X144414285Y-88471428D01*
X144414285Y-87871428D01*
X145214285Y-88471428D02*
X144871428Y-88471428D01*
X145042857Y-88471428D02*
X145042857Y-87871428D01*
X144985714Y-87957142D01*
X144928571Y-88014285D01*
X144871428Y-88042857D01*
X147150000Y-91167380D02*
X147150000Y-91405476D01*
X146911904Y-91310238D02*
X147150000Y-91405476D01*
X147388095Y-91310238D01*
X147007142Y-91595952D02*
X147150000Y-91405476D01*
X147292857Y-91595952D01*
D13*
%TO.C,L2*%
X161291853Y-87450700D02*
X163828147Y-87450700D01*
X163828147Y-76884300D02*
X161291853Y-76884300D01*
D14*
%TO.C,C2*%
X152930000Y-101600000D02*
G75*
G03*
X152930000Y-101600000I-50000J0D01*
G01*
D15*
%TO.C,R6*%
X172244200Y-83482800D02*
X171075800Y-83482800D01*
X171075800Y-85210000D02*
X172244200Y-85210000D01*
%TO.C,R5*%
X140484200Y-78204400D02*
X139315800Y-78204400D01*
X139315800Y-79931600D02*
X140484200Y-79931600D01*
D13*
%TO.C,J1*%
X184155000Y-92430000D02*
X184096000Y-92371000D01*
X178580000Y-78560000D02*
X178580000Y-80560000D01*
X186940000Y-78800000D02*
X186940000Y-93920000D01*
X184155000Y-87430000D02*
X184096000Y-87371000D01*
X180820000Y-78560000D02*
X178580000Y-78560000D01*
X186940000Y-93920000D02*
X178820000Y-93920000D01*
X183949000Y-92635000D02*
X183856000Y-92541000D01*
X183949000Y-87635000D02*
X183856000Y-87541000D01*
X181904000Y-85180000D02*
X181811000Y-85086000D01*
X181904000Y-90180000D02*
X181811000Y-90086000D01*
X178820000Y-78800000D02*
X178820000Y-93920000D01*
X181664000Y-90350000D02*
X181606000Y-90291000D01*
X186940000Y-78800000D02*
X178820000Y-78800000D01*
X180880000Y-78800000D02*
X180880000Y-93920000D01*
X181664000Y-85350000D02*
X181606000Y-85291000D01*
X184880000Y-78800000D02*
X184880000Y-93920000D01*
X184364000Y-82149000D02*
G75*
G03*
X184363953Y-80570911I-1483995J789000D01*
G01*
X181396000Y-80571000D02*
G75*
G03*
X181199550Y-81389383I1483995J-788998D01*
G01*
X183669000Y-79876000D02*
G75*
G03*
X182090911Y-79876047I-789000J-1483995D01*
G01*
X181200000Y-81360000D02*
G75*
G03*
X181396648Y-82148712I1680000J0D01*
G01*
X182091000Y-82844001D02*
G75*
G03*
X183669089Y-82843953I789000J1484001D01*
G01*
X184560000Y-91360000D02*
G75*
G03*
X184560000Y-91360000I-1680000J0D01*
G01*
X184560000Y-86360000D02*
G75*
G03*
X184560000Y-86360000I-1680000J0D01*
G01*
D14*
%TO.C,R1*%
X155685000Y-92432800D02*
X156735000Y-92432800D01*
%TO.C,Boost_IC1*%
X146476000Y-97885000D02*
X147326000Y-97885000D01*
X146476000Y-100785000D02*
X146476000Y-97885000D01*
X147326000Y-100785000D02*
X146476000Y-100785000D01*
X147326000Y-97885000D02*
X147326000Y-100785000D01*
X145076000Y-97760000D02*
X146126000Y-97760000D01*
%TO.C,R3*%
X147000000Y-86375000D02*
X147000000Y-87025000D01*
%TO.C,U2*%
X173990000Y-77590000D02*
X173990000Y-79890000D01*
X170990000Y-77590000D02*
X173990000Y-77590000D01*
X170990000Y-79890000D02*
X170990000Y-77590000D01*
X173990000Y-79890000D02*
X170990000Y-79890000D01*
X170990000Y-81665000D02*
X170990000Y-80240000D01*
%TO.C,D1*%
X155088000Y-85072000D02*
X150012000Y-85072000D01*
X150012000Y-87648000D02*
X155375000Y-87648000D01*
D13*
%TO.C,J2*%
X136420694Y-71120000D02*
G75*
G03*
X136420694Y-71120000I-1800694J0D01*
G01*
D15*
%TO.C,R7*%
X171665800Y-101188600D02*
X172834200Y-101188600D01*
X172834200Y-99461400D02*
X171665800Y-99461400D01*
D14*
%TO.C,Buck_IC1*%
X144925000Y-80620000D02*
X146125000Y-80620000D01*
X147075000Y-80670000D02*
X147075000Y-83570000D01*
X146475000Y-83570000D02*
X146475000Y-80670000D01*
X146475000Y-80670000D02*
X147075000Y-80670000D01*
X147075000Y-83570000D02*
X146475000Y-83570000D01*
D13*
%TO.C,I2C1*%
X173305000Y-72998276D02*
X173305000Y-73085000D01*
X173990000Y-71695000D02*
X174675000Y-71695000D01*
X173305000Y-71695000D02*
X172430000Y-71695000D01*
X172430000Y-72784493D02*
X172430000Y-73085000D01*
X173305000Y-73085000D02*
X172430000Y-73085000D01*
X172430000Y-71695000D02*
X172430000Y-71995507D01*
X174675000Y-71695000D02*
X174675000Y-72390000D01*
X173305000Y-71695000D02*
X173305000Y-71781724D01*
D14*
%TO.C,U3*%
X171450000Y-95130000D02*
X171450000Y-92830000D01*
X171450000Y-96905000D02*
X171450000Y-95480000D01*
X174450000Y-92830000D02*
X174450000Y-95130000D01*
X171450000Y-92830000D02*
X174450000Y-92830000D01*
X174450000Y-95130000D02*
X171450000Y-95130000D01*
D13*
%TO.C,J3*%
X136420694Y-101600000D02*
G75*
G03*
X136420694Y-101600000I-1800694J0D01*
G01*
%TO.C,I2C3*%
X148015000Y-69232000D02*
X147714493Y-69232000D01*
X146711724Y-70107000D02*
X146625000Y-70107000D01*
X146925507Y-69232000D02*
X146625000Y-69232000D01*
X148015000Y-70107000D02*
X147928276Y-70107000D01*
X148015000Y-70107000D02*
X148015000Y-69232000D01*
X146625000Y-70107000D02*
X146625000Y-69232000D01*
X148015000Y-70792000D02*
X148015000Y-71477000D01*
X148015000Y-71477000D02*
X147320000Y-71477000D01*
D14*
%TO.C,U1*%
X139109000Y-76585000D02*
X139109000Y-75160000D01*
X142109000Y-72510000D02*
X142109000Y-74810000D01*
X139109000Y-74810000D02*
X139109000Y-72510000D01*
X139109000Y-72510000D02*
X142109000Y-72510000D01*
X142109000Y-74810000D02*
X139109000Y-74810000D01*
D13*
%TO.C,R2*%
X154096800Y-98232850D02*
X154096800Y-98405150D01*
X155163600Y-98405150D02*
X155163600Y-98232850D01*
%TO.C,I2C2*%
X173575000Y-89277500D02*
X172700000Y-89277500D01*
X173575000Y-87887500D02*
X172700000Y-87887500D01*
X172700000Y-87887500D02*
X172700000Y-88188007D01*
X173575000Y-89190776D02*
X173575000Y-89277500D01*
X174260000Y-87887500D02*
X174945000Y-87887500D01*
X172700000Y-88976993D02*
X172700000Y-89277500D01*
X173575000Y-87887500D02*
X173575000Y-87974224D01*
X174945000Y-87887500D02*
X174945000Y-88582500D01*
D14*
%TO.C,C3*%
X137190000Y-87620000D02*
G75*
G03*
X137190000Y-87620000I-50000J0D01*
G01*
D13*
%TO.C,L1*%
X150147200Y-89985260D02*
X150147200Y-88870200D01*
X144152800Y-93444740D02*
X144152800Y-94559800D01*
X144152800Y-88870200D02*
X144152800Y-89985260D01*
X150147200Y-88870200D02*
X144152800Y-88870200D01*
X150147200Y-94559800D02*
X150147200Y-93444740D01*
X144152800Y-94559800D02*
X150147200Y-94559800D01*
%TD*%
M02*
