%TF.GenerationSoftware,KiCad,Pcbnew,(6.0.11)*%
%TF.CreationDate,2023-02-13T21:26:02+05:30*%
%TF.ProjectId,1,312e6b69-6361-4645-9f70-636258585858,rev?*%
%TF.SameCoordinates,Original*%
%TF.FileFunction,Drillmap*%
%TF.FilePolarity,Positive*%
%FSLAX45Y45*%
G04 Gerber Fmt 4.5, Leading zero omitted, Abs format (unit mm)*
G04 Created by KiCad (PCBNEW (6.0.11)) date 2023-02-13 21:26:02*
%MOMM*%
%LPD*%
G01*
G04 APERTURE LIST*
%ADD10C,0.100000*%
%ADD11C,0.200000*%
%ADD12C,0.040000*%
%ADD13C,0.050000*%
%ADD14C,0.130000*%
%ADD15C,0.150000*%
G04 APERTURE END LIST*
D10*
X18542000Y-6858000D02*
X13462000Y-6858000D01*
X18542000Y-10414000D02*
G75*
G03*
X18796000Y-10160000I0J254000D01*
G01*
X13462000Y-6858000D02*
G75*
G03*
X13208000Y-7112000I0J-254000D01*
G01*
X13208000Y-10160000D02*
G75*
G03*
X13462000Y-10414000I254000J0D01*
G01*
X18796000Y-7112000D02*
G75*
G03*
X18542000Y-6858000I-254000J0D01*
G01*
X18796000Y-10160000D02*
X18796000Y-7112000D01*
X13208000Y-7112000D02*
X13208000Y-10160000D01*
X13462000Y-10414000D02*
X18542000Y-10414000D01*
D11*
D12*
X13996900Y-7346000D02*
X14036900Y-7386000D01*
X14036900Y-7346000D02*
X13996900Y-7386000D01*
X14250000Y-8490000D02*
X14290000Y-8530000D01*
X14290000Y-8490000D02*
X14250000Y-8530000D01*
X14280000Y-8250000D02*
X14320000Y-8290000D01*
X14320000Y-8250000D02*
X14280000Y-8290000D01*
X16770000Y-9460000D02*
X16810000Y-9500000D01*
X16810000Y-9460000D02*
X16770000Y-9500000D01*
X17229000Y-7854000D02*
X17269000Y-7894000D01*
X17269000Y-7854000D02*
X17229000Y-7894000D01*
X17252000Y-9378000D02*
X17292000Y-9418000D01*
X17292000Y-9378000D02*
X17252000Y-9418000D01*
D13*
X14757000Y-6979200D02*
G75*
G03*
X14757000Y-6979200I-25000J0D01*
G01*
X14757000Y-7079200D02*
G75*
G03*
X14757000Y-7079200I-25000J0D01*
G01*
X17324000Y-7239000D02*
G75*
G03*
X17324000Y-7239000I-25000J0D01*
G01*
X17351000Y-8858250D02*
G75*
G03*
X17351000Y-8858250I-25000J0D01*
G01*
X17424000Y-7239000D02*
G75*
G03*
X17424000Y-7239000I-25000J0D01*
G01*
X17451000Y-8858250D02*
G75*
G03*
X17451000Y-8858250I-25000J0D01*
G01*
D14*
X18288000Y-8071000D02*
X18288000Y-8201000D01*
X18223000Y-8136000D02*
X18353000Y-8136000D01*
X18288000Y-8571000D02*
X18288000Y-8701000D01*
X18223000Y-8636000D02*
X18353000Y-8636000D01*
X18288000Y-9071000D02*
X18288000Y-9201000D01*
X18223000Y-9136000D02*
X18353000Y-9136000D01*
D15*
X13515033Y-7165033D02*
X13515033Y-7058966D01*
X13408966Y-7058966D01*
X13408966Y-7165033D01*
X13515033Y-7165033D01*
X13515033Y-10213034D02*
X13515033Y-10106967D01*
X13408966Y-10106967D01*
X13408966Y-10213034D01*
X13515033Y-10213034D01*
D11*
X13460619Y-10729476D02*
X13460619Y-10529476D01*
X13508238Y-10529476D01*
X13536809Y-10539000D01*
X13555857Y-10558048D01*
X13565381Y-10577095D01*
X13574905Y-10615190D01*
X13574905Y-10643762D01*
X13565381Y-10681857D01*
X13555857Y-10700905D01*
X13536809Y-10719952D01*
X13508238Y-10729476D01*
X13460619Y-10729476D01*
X13660619Y-10729476D02*
X13660619Y-10596143D01*
X13660619Y-10634238D02*
X13670143Y-10615190D01*
X13679667Y-10605667D01*
X13698714Y-10596143D01*
X13717762Y-10596143D01*
X13784428Y-10729476D02*
X13784428Y-10596143D01*
X13784428Y-10529476D02*
X13774905Y-10539000D01*
X13784428Y-10548524D01*
X13793952Y-10539000D01*
X13784428Y-10529476D01*
X13784428Y-10548524D01*
X13908238Y-10729476D02*
X13889190Y-10719952D01*
X13879667Y-10700905D01*
X13879667Y-10529476D01*
X14013000Y-10729476D02*
X13993952Y-10719952D01*
X13984428Y-10700905D01*
X13984428Y-10529476D01*
X14241571Y-10729476D02*
X14241571Y-10529476D01*
X14308238Y-10672333D01*
X14374905Y-10529476D01*
X14374905Y-10729476D01*
X14555857Y-10729476D02*
X14555857Y-10624714D01*
X14546333Y-10605667D01*
X14527286Y-10596143D01*
X14489190Y-10596143D01*
X14470143Y-10605667D01*
X14555857Y-10719952D02*
X14536809Y-10729476D01*
X14489190Y-10729476D01*
X14470143Y-10719952D01*
X14460619Y-10700905D01*
X14460619Y-10681857D01*
X14470143Y-10662810D01*
X14489190Y-10653286D01*
X14536809Y-10653286D01*
X14555857Y-10643762D01*
X14651095Y-10596143D02*
X14651095Y-10796143D01*
X14651095Y-10605667D02*
X14670143Y-10596143D01*
X14708238Y-10596143D01*
X14727286Y-10605667D01*
X14736809Y-10615190D01*
X14746333Y-10634238D01*
X14746333Y-10691381D01*
X14736809Y-10710429D01*
X14727286Y-10719952D01*
X14708238Y-10729476D01*
X14670143Y-10729476D01*
X14651095Y-10719952D01*
X14832048Y-10710429D02*
X14841571Y-10719952D01*
X14832048Y-10729476D01*
X14822524Y-10719952D01*
X14832048Y-10710429D01*
X14832048Y-10729476D01*
X14832048Y-10605667D02*
X14841571Y-10615190D01*
X14832048Y-10624714D01*
X14822524Y-10615190D01*
X14832048Y-10605667D01*
X14832048Y-10624714D01*
D12*
X13163000Y-11039000D02*
X13203000Y-11079000D01*
X13203000Y-11039000D02*
X13163000Y-11079000D01*
D11*
X13498714Y-10949476D02*
X13517762Y-10949476D01*
X13536809Y-10959000D01*
X13546333Y-10968524D01*
X13555857Y-10987571D01*
X13565381Y-11025667D01*
X13565381Y-11073286D01*
X13555857Y-11111381D01*
X13546333Y-11130429D01*
X13536809Y-11139952D01*
X13517762Y-11149476D01*
X13498714Y-11149476D01*
X13479667Y-11139952D01*
X13470143Y-11130429D01*
X13460619Y-11111381D01*
X13451095Y-11073286D01*
X13451095Y-11025667D01*
X13460619Y-10987571D01*
X13470143Y-10968524D01*
X13479667Y-10959000D01*
X13498714Y-10949476D01*
X13651095Y-11130429D02*
X13660619Y-11139952D01*
X13651095Y-11149476D01*
X13641571Y-11139952D01*
X13651095Y-11130429D01*
X13651095Y-11149476D01*
X13832048Y-11016143D02*
X13832048Y-11149476D01*
X13784428Y-10939952D02*
X13736809Y-11082810D01*
X13860619Y-11082810D01*
X13974905Y-10949476D02*
X13993952Y-10949476D01*
X14013000Y-10959000D01*
X14022524Y-10968524D01*
X14032048Y-10987571D01*
X14041571Y-11025667D01*
X14041571Y-11073286D01*
X14032048Y-11111381D01*
X14022524Y-11130429D01*
X14013000Y-11139952D01*
X13993952Y-11149476D01*
X13974905Y-11149476D01*
X13955857Y-11139952D01*
X13946333Y-11130429D01*
X13936809Y-11111381D01*
X13927286Y-11073286D01*
X13927286Y-11025667D01*
X13936809Y-10987571D01*
X13946333Y-10968524D01*
X13955857Y-10959000D01*
X13974905Y-10949476D01*
X14165381Y-10949476D02*
X14184428Y-10949476D01*
X14203476Y-10959000D01*
X14213000Y-10968524D01*
X14222524Y-10987571D01*
X14232048Y-11025667D01*
X14232048Y-11073286D01*
X14222524Y-11111381D01*
X14213000Y-11130429D01*
X14203476Y-11139952D01*
X14184428Y-11149476D01*
X14165381Y-11149476D01*
X14146333Y-11139952D01*
X14136809Y-11130429D01*
X14127286Y-11111381D01*
X14117762Y-11073286D01*
X14117762Y-11025667D01*
X14127286Y-10987571D01*
X14136809Y-10968524D01*
X14146333Y-10959000D01*
X14165381Y-10949476D01*
X14317762Y-11149476D02*
X14317762Y-11016143D01*
X14317762Y-11035190D02*
X14327286Y-11025667D01*
X14346333Y-11016143D01*
X14374905Y-11016143D01*
X14393952Y-11025667D01*
X14403476Y-11044714D01*
X14403476Y-11149476D01*
X14403476Y-11044714D02*
X14413000Y-11025667D01*
X14432048Y-11016143D01*
X14460619Y-11016143D01*
X14479667Y-11025667D01*
X14489190Y-11044714D01*
X14489190Y-11149476D01*
X14584428Y-11149476D02*
X14584428Y-11016143D01*
X14584428Y-11035190D02*
X14593952Y-11025667D01*
X14613000Y-11016143D01*
X14641571Y-11016143D01*
X14660619Y-11025667D01*
X14670143Y-11044714D01*
X14670143Y-11149476D01*
X14670143Y-11044714D02*
X14679667Y-11025667D01*
X14698714Y-11016143D01*
X14727286Y-11016143D01*
X14746333Y-11025667D01*
X14755857Y-11044714D01*
X14755857Y-11149476D01*
X15146333Y-10939952D02*
X14974905Y-11197095D01*
X15403476Y-10949476D02*
X15422524Y-10949476D01*
X15441571Y-10959000D01*
X15451095Y-10968524D01*
X15460619Y-10987571D01*
X15470143Y-11025667D01*
X15470143Y-11073286D01*
X15460619Y-11111381D01*
X15451095Y-11130429D01*
X15441571Y-11139952D01*
X15422524Y-11149476D01*
X15403476Y-11149476D01*
X15384428Y-11139952D01*
X15374905Y-11130429D01*
X15365381Y-11111381D01*
X15355857Y-11073286D01*
X15355857Y-11025667D01*
X15365381Y-10987571D01*
X15374905Y-10968524D01*
X15384428Y-10959000D01*
X15403476Y-10949476D01*
X15555857Y-11130429D02*
X15565381Y-11139952D01*
X15555857Y-11149476D01*
X15546333Y-11139952D01*
X15555857Y-11130429D01*
X15555857Y-11149476D01*
X15689190Y-10949476D02*
X15708238Y-10949476D01*
X15727286Y-10959000D01*
X15736809Y-10968524D01*
X15746333Y-10987571D01*
X15755857Y-11025667D01*
X15755857Y-11073286D01*
X15746333Y-11111381D01*
X15736809Y-11130429D01*
X15727286Y-11139952D01*
X15708238Y-11149476D01*
X15689190Y-11149476D01*
X15670143Y-11139952D01*
X15660619Y-11130429D01*
X15651095Y-11111381D01*
X15641571Y-11073286D01*
X15641571Y-11025667D01*
X15651095Y-10987571D01*
X15660619Y-10968524D01*
X15670143Y-10959000D01*
X15689190Y-10949476D01*
X15946333Y-11149476D02*
X15832048Y-11149476D01*
X15889190Y-11149476D02*
X15889190Y-10949476D01*
X15870143Y-10978048D01*
X15851095Y-10997095D01*
X15832048Y-11006619D01*
X16127286Y-10949476D02*
X16032048Y-10949476D01*
X16022524Y-11044714D01*
X16032048Y-11035190D01*
X16051095Y-11025667D01*
X16098714Y-11025667D01*
X16117762Y-11035190D01*
X16127286Y-11044714D01*
X16136809Y-11063762D01*
X16136809Y-11111381D01*
X16127286Y-11130429D01*
X16117762Y-11139952D01*
X16098714Y-11149476D01*
X16051095Y-11149476D01*
X16032048Y-11139952D01*
X16022524Y-11130429D01*
X16203476Y-10949476D02*
X16336809Y-10949476D01*
X16251095Y-11149476D01*
X16403476Y-10949476D02*
X16403476Y-10987571D01*
X16479667Y-10949476D02*
X16479667Y-10987571D01*
X16774905Y-11225667D02*
X16765381Y-11216143D01*
X16746333Y-11187571D01*
X16736809Y-11168524D01*
X16727286Y-11139952D01*
X16717762Y-11092333D01*
X16717762Y-11054238D01*
X16727286Y-11006619D01*
X16736809Y-10978048D01*
X16746333Y-10959000D01*
X16765381Y-10930429D01*
X16774905Y-10920905D01*
X16936810Y-10949476D02*
X16898714Y-10949476D01*
X16879667Y-10959000D01*
X16870143Y-10968524D01*
X16851095Y-10997095D01*
X16841571Y-11035190D01*
X16841571Y-11111381D01*
X16851095Y-11130429D01*
X16860619Y-11139952D01*
X16879667Y-11149476D01*
X16917762Y-11149476D01*
X16936810Y-11139952D01*
X16946333Y-11130429D01*
X16955857Y-11111381D01*
X16955857Y-11063762D01*
X16946333Y-11044714D01*
X16936810Y-11035190D01*
X16917762Y-11025667D01*
X16879667Y-11025667D01*
X16860619Y-11035190D01*
X16851095Y-11044714D01*
X16841571Y-11063762D01*
X17193952Y-11149476D02*
X17193952Y-10949476D01*
X17279667Y-11149476D02*
X17279667Y-11044714D01*
X17270143Y-11025667D01*
X17251095Y-11016143D01*
X17222524Y-11016143D01*
X17203476Y-11025667D01*
X17193952Y-11035190D01*
X17403476Y-11149476D02*
X17384429Y-11139952D01*
X17374905Y-11130429D01*
X17365381Y-11111381D01*
X17365381Y-11054238D01*
X17374905Y-11035190D01*
X17384429Y-11025667D01*
X17403476Y-11016143D01*
X17432048Y-11016143D01*
X17451095Y-11025667D01*
X17460619Y-11035190D01*
X17470143Y-11054238D01*
X17470143Y-11111381D01*
X17460619Y-11130429D01*
X17451095Y-11139952D01*
X17432048Y-11149476D01*
X17403476Y-11149476D01*
X17584429Y-11149476D02*
X17565381Y-11139952D01*
X17555857Y-11120905D01*
X17555857Y-10949476D01*
X17736810Y-11139952D02*
X17717762Y-11149476D01*
X17679667Y-11149476D01*
X17660619Y-11139952D01*
X17651095Y-11120905D01*
X17651095Y-11044714D01*
X17660619Y-11025667D01*
X17679667Y-11016143D01*
X17717762Y-11016143D01*
X17736810Y-11025667D01*
X17746333Y-11044714D01*
X17746333Y-11063762D01*
X17651095Y-11082810D01*
X17822524Y-11139952D02*
X17841571Y-11149476D01*
X17879667Y-11149476D01*
X17898714Y-11139952D01*
X17908238Y-11120905D01*
X17908238Y-11111381D01*
X17898714Y-11092333D01*
X17879667Y-11082810D01*
X17851095Y-11082810D01*
X17832048Y-11073286D01*
X17822524Y-11054238D01*
X17822524Y-11044714D01*
X17832048Y-11025667D01*
X17851095Y-11016143D01*
X17879667Y-11016143D01*
X17898714Y-11025667D01*
X17974905Y-11225667D02*
X17984429Y-11216143D01*
X18003476Y-11187571D01*
X18013000Y-11168524D01*
X18022524Y-11139952D01*
X18032048Y-11092333D01*
X18032048Y-11054238D01*
X18022524Y-11006619D01*
X18013000Y-10978048D01*
X18003476Y-10959000D01*
X17984429Y-10930429D01*
X17974905Y-10920905D01*
D13*
X13203000Y-11323000D02*
G75*
G03*
X13203000Y-11323000I-25000J0D01*
G01*
D11*
X13498714Y-11213476D02*
X13517762Y-11213476D01*
X13536809Y-11223000D01*
X13546333Y-11232524D01*
X13555857Y-11251571D01*
X13565381Y-11289667D01*
X13565381Y-11337286D01*
X13555857Y-11375381D01*
X13546333Y-11394428D01*
X13536809Y-11403952D01*
X13517762Y-11413476D01*
X13498714Y-11413476D01*
X13479667Y-11403952D01*
X13470143Y-11394428D01*
X13460619Y-11375381D01*
X13451095Y-11337286D01*
X13451095Y-11289667D01*
X13460619Y-11251571D01*
X13470143Y-11232524D01*
X13479667Y-11223000D01*
X13498714Y-11213476D01*
X13651095Y-11394428D02*
X13660619Y-11403952D01*
X13651095Y-11413476D01*
X13641571Y-11403952D01*
X13651095Y-11394428D01*
X13651095Y-11413476D01*
X13841571Y-11213476D02*
X13746333Y-11213476D01*
X13736809Y-11308714D01*
X13746333Y-11299190D01*
X13765381Y-11289667D01*
X13813000Y-11289667D01*
X13832048Y-11299190D01*
X13841571Y-11308714D01*
X13851095Y-11327762D01*
X13851095Y-11375381D01*
X13841571Y-11394428D01*
X13832048Y-11403952D01*
X13813000Y-11413476D01*
X13765381Y-11413476D01*
X13746333Y-11403952D01*
X13736809Y-11394428D01*
X13974905Y-11213476D02*
X13993952Y-11213476D01*
X14013000Y-11223000D01*
X14022524Y-11232524D01*
X14032048Y-11251571D01*
X14041571Y-11289667D01*
X14041571Y-11337286D01*
X14032048Y-11375381D01*
X14022524Y-11394428D01*
X14013000Y-11403952D01*
X13993952Y-11413476D01*
X13974905Y-11413476D01*
X13955857Y-11403952D01*
X13946333Y-11394428D01*
X13936809Y-11375381D01*
X13927286Y-11337286D01*
X13927286Y-11289667D01*
X13936809Y-11251571D01*
X13946333Y-11232524D01*
X13955857Y-11223000D01*
X13974905Y-11213476D01*
X14165381Y-11213476D02*
X14184428Y-11213476D01*
X14203476Y-11223000D01*
X14213000Y-11232524D01*
X14222524Y-11251571D01*
X14232048Y-11289667D01*
X14232048Y-11337286D01*
X14222524Y-11375381D01*
X14213000Y-11394428D01*
X14203476Y-11403952D01*
X14184428Y-11413476D01*
X14165381Y-11413476D01*
X14146333Y-11403952D01*
X14136809Y-11394428D01*
X14127286Y-11375381D01*
X14117762Y-11337286D01*
X14117762Y-11289667D01*
X14127286Y-11251571D01*
X14136809Y-11232524D01*
X14146333Y-11223000D01*
X14165381Y-11213476D01*
X14317762Y-11413476D02*
X14317762Y-11280143D01*
X14317762Y-11299190D02*
X14327286Y-11289667D01*
X14346333Y-11280143D01*
X14374905Y-11280143D01*
X14393952Y-11289667D01*
X14403476Y-11308714D01*
X14403476Y-11413476D01*
X14403476Y-11308714D02*
X14413000Y-11289667D01*
X14432048Y-11280143D01*
X14460619Y-11280143D01*
X14479667Y-11289667D01*
X14489190Y-11308714D01*
X14489190Y-11413476D01*
X14584428Y-11413476D02*
X14584428Y-11280143D01*
X14584428Y-11299190D02*
X14593952Y-11289667D01*
X14613000Y-11280143D01*
X14641571Y-11280143D01*
X14660619Y-11289667D01*
X14670143Y-11308714D01*
X14670143Y-11413476D01*
X14670143Y-11308714D02*
X14679667Y-11289667D01*
X14698714Y-11280143D01*
X14727286Y-11280143D01*
X14746333Y-11289667D01*
X14755857Y-11308714D01*
X14755857Y-11413476D01*
X15146333Y-11203952D02*
X14974905Y-11461095D01*
X15403476Y-11213476D02*
X15422524Y-11213476D01*
X15441571Y-11223000D01*
X15451095Y-11232524D01*
X15460619Y-11251571D01*
X15470143Y-11289667D01*
X15470143Y-11337286D01*
X15460619Y-11375381D01*
X15451095Y-11394428D01*
X15441571Y-11403952D01*
X15422524Y-11413476D01*
X15403476Y-11413476D01*
X15384428Y-11403952D01*
X15374905Y-11394428D01*
X15365381Y-11375381D01*
X15355857Y-11337286D01*
X15355857Y-11289667D01*
X15365381Y-11251571D01*
X15374905Y-11232524D01*
X15384428Y-11223000D01*
X15403476Y-11213476D01*
X15555857Y-11394428D02*
X15565381Y-11403952D01*
X15555857Y-11413476D01*
X15546333Y-11403952D01*
X15555857Y-11394428D01*
X15555857Y-11413476D01*
X15689190Y-11213476D02*
X15708238Y-11213476D01*
X15727286Y-11223000D01*
X15736809Y-11232524D01*
X15746333Y-11251571D01*
X15755857Y-11289667D01*
X15755857Y-11337286D01*
X15746333Y-11375381D01*
X15736809Y-11394428D01*
X15727286Y-11403952D01*
X15708238Y-11413476D01*
X15689190Y-11413476D01*
X15670143Y-11403952D01*
X15660619Y-11394428D01*
X15651095Y-11375381D01*
X15641571Y-11337286D01*
X15641571Y-11289667D01*
X15651095Y-11251571D01*
X15660619Y-11232524D01*
X15670143Y-11223000D01*
X15689190Y-11213476D01*
X15946333Y-11413476D02*
X15832048Y-11413476D01*
X15889190Y-11413476D02*
X15889190Y-11213476D01*
X15870143Y-11242048D01*
X15851095Y-11261095D01*
X15832048Y-11270619D01*
X16041571Y-11413476D02*
X16079667Y-11413476D01*
X16098714Y-11403952D01*
X16108238Y-11394428D01*
X16127286Y-11365857D01*
X16136809Y-11327762D01*
X16136809Y-11251571D01*
X16127286Y-11232524D01*
X16117762Y-11223000D01*
X16098714Y-11213476D01*
X16060619Y-11213476D01*
X16041571Y-11223000D01*
X16032048Y-11232524D01*
X16022524Y-11251571D01*
X16022524Y-11299190D01*
X16032048Y-11318238D01*
X16041571Y-11327762D01*
X16060619Y-11337286D01*
X16098714Y-11337286D01*
X16117762Y-11327762D01*
X16127286Y-11318238D01*
X16136809Y-11299190D01*
X16203476Y-11213476D02*
X16336809Y-11213476D01*
X16251095Y-11413476D01*
X16403476Y-11213476D02*
X16403476Y-11251571D01*
X16479667Y-11213476D02*
X16479667Y-11251571D01*
X16774905Y-11489667D02*
X16765381Y-11480143D01*
X16746333Y-11451571D01*
X16736809Y-11432524D01*
X16727286Y-11403952D01*
X16717762Y-11356333D01*
X16717762Y-11318238D01*
X16727286Y-11270619D01*
X16736809Y-11242048D01*
X16746333Y-11223000D01*
X16765381Y-11194428D01*
X16774905Y-11184905D01*
X16936810Y-11213476D02*
X16898714Y-11213476D01*
X16879667Y-11223000D01*
X16870143Y-11232524D01*
X16851095Y-11261095D01*
X16841571Y-11299190D01*
X16841571Y-11375381D01*
X16851095Y-11394428D01*
X16860619Y-11403952D01*
X16879667Y-11413476D01*
X16917762Y-11413476D01*
X16936810Y-11403952D01*
X16946333Y-11394428D01*
X16955857Y-11375381D01*
X16955857Y-11327762D01*
X16946333Y-11308714D01*
X16936810Y-11299190D01*
X16917762Y-11289667D01*
X16879667Y-11289667D01*
X16860619Y-11299190D01*
X16851095Y-11308714D01*
X16841571Y-11327762D01*
X17193952Y-11413476D02*
X17193952Y-11213476D01*
X17279667Y-11413476D02*
X17279667Y-11308714D01*
X17270143Y-11289667D01*
X17251095Y-11280143D01*
X17222524Y-11280143D01*
X17203476Y-11289667D01*
X17193952Y-11299190D01*
X17403476Y-11413476D02*
X17384429Y-11403952D01*
X17374905Y-11394428D01*
X17365381Y-11375381D01*
X17365381Y-11318238D01*
X17374905Y-11299190D01*
X17384429Y-11289667D01*
X17403476Y-11280143D01*
X17432048Y-11280143D01*
X17451095Y-11289667D01*
X17460619Y-11299190D01*
X17470143Y-11318238D01*
X17470143Y-11375381D01*
X17460619Y-11394428D01*
X17451095Y-11403952D01*
X17432048Y-11413476D01*
X17403476Y-11413476D01*
X17584429Y-11413476D02*
X17565381Y-11403952D01*
X17555857Y-11384905D01*
X17555857Y-11213476D01*
X17736810Y-11403952D02*
X17717762Y-11413476D01*
X17679667Y-11413476D01*
X17660619Y-11403952D01*
X17651095Y-11384905D01*
X17651095Y-11308714D01*
X17660619Y-11289667D01*
X17679667Y-11280143D01*
X17717762Y-11280143D01*
X17736810Y-11289667D01*
X17746333Y-11308714D01*
X17746333Y-11327762D01*
X17651095Y-11346809D01*
X17822524Y-11403952D02*
X17841571Y-11413476D01*
X17879667Y-11413476D01*
X17898714Y-11403952D01*
X17908238Y-11384905D01*
X17908238Y-11375381D01*
X17898714Y-11356333D01*
X17879667Y-11346809D01*
X17851095Y-11346809D01*
X17832048Y-11337286D01*
X17822524Y-11318238D01*
X17822524Y-11308714D01*
X17832048Y-11289667D01*
X17851095Y-11280143D01*
X17879667Y-11280143D01*
X17898714Y-11289667D01*
X17974905Y-11489667D02*
X17984429Y-11480143D01*
X18003476Y-11451571D01*
X18013000Y-11432524D01*
X18022524Y-11403952D01*
X18032048Y-11356333D01*
X18032048Y-11318238D01*
X18022524Y-11270619D01*
X18013000Y-11242048D01*
X18003476Y-11223000D01*
X17984429Y-11194428D01*
X17974905Y-11184905D01*
D14*
X13138000Y-11522000D02*
X13138000Y-11652000D01*
X13073000Y-11587000D02*
X13203000Y-11587000D01*
D11*
X13565381Y-11677476D02*
X13451095Y-11677476D01*
X13508238Y-11677476D02*
X13508238Y-11477476D01*
X13489190Y-11506048D01*
X13470143Y-11525095D01*
X13451095Y-11534619D01*
X13651095Y-11658428D02*
X13660619Y-11667952D01*
X13651095Y-11677476D01*
X13641571Y-11667952D01*
X13651095Y-11658428D01*
X13651095Y-11677476D01*
X13727286Y-11477476D02*
X13851095Y-11477476D01*
X13784428Y-11553667D01*
X13813000Y-11553667D01*
X13832048Y-11563190D01*
X13841571Y-11572714D01*
X13851095Y-11591762D01*
X13851095Y-11639381D01*
X13841571Y-11658428D01*
X13832048Y-11667952D01*
X13813000Y-11677476D01*
X13755857Y-11677476D01*
X13736809Y-11667952D01*
X13727286Y-11658428D01*
X13974905Y-11477476D02*
X13993952Y-11477476D01*
X14013000Y-11487000D01*
X14022524Y-11496524D01*
X14032048Y-11515571D01*
X14041571Y-11553667D01*
X14041571Y-11601286D01*
X14032048Y-11639381D01*
X14022524Y-11658428D01*
X14013000Y-11667952D01*
X13993952Y-11677476D01*
X13974905Y-11677476D01*
X13955857Y-11667952D01*
X13946333Y-11658428D01*
X13936809Y-11639381D01*
X13927286Y-11601286D01*
X13927286Y-11553667D01*
X13936809Y-11515571D01*
X13946333Y-11496524D01*
X13955857Y-11487000D01*
X13974905Y-11477476D01*
X14165381Y-11477476D02*
X14184428Y-11477476D01*
X14203476Y-11487000D01*
X14213000Y-11496524D01*
X14222524Y-11515571D01*
X14232048Y-11553667D01*
X14232048Y-11601286D01*
X14222524Y-11639381D01*
X14213000Y-11658428D01*
X14203476Y-11667952D01*
X14184428Y-11677476D01*
X14165381Y-11677476D01*
X14146333Y-11667952D01*
X14136809Y-11658428D01*
X14127286Y-11639381D01*
X14117762Y-11601286D01*
X14117762Y-11553667D01*
X14127286Y-11515571D01*
X14136809Y-11496524D01*
X14146333Y-11487000D01*
X14165381Y-11477476D01*
X14317762Y-11677476D02*
X14317762Y-11544143D01*
X14317762Y-11563190D02*
X14327286Y-11553667D01*
X14346333Y-11544143D01*
X14374905Y-11544143D01*
X14393952Y-11553667D01*
X14403476Y-11572714D01*
X14403476Y-11677476D01*
X14403476Y-11572714D02*
X14413000Y-11553667D01*
X14432048Y-11544143D01*
X14460619Y-11544143D01*
X14479667Y-11553667D01*
X14489190Y-11572714D01*
X14489190Y-11677476D01*
X14584428Y-11677476D02*
X14584428Y-11544143D01*
X14584428Y-11563190D02*
X14593952Y-11553667D01*
X14613000Y-11544143D01*
X14641571Y-11544143D01*
X14660619Y-11553667D01*
X14670143Y-11572714D01*
X14670143Y-11677476D01*
X14670143Y-11572714D02*
X14679667Y-11553667D01*
X14698714Y-11544143D01*
X14727286Y-11544143D01*
X14746333Y-11553667D01*
X14755857Y-11572714D01*
X14755857Y-11677476D01*
X15146333Y-11467952D02*
X14974905Y-11725095D01*
X15403476Y-11477476D02*
X15422524Y-11477476D01*
X15441571Y-11487000D01*
X15451095Y-11496524D01*
X15460619Y-11515571D01*
X15470143Y-11553667D01*
X15470143Y-11601286D01*
X15460619Y-11639381D01*
X15451095Y-11658428D01*
X15441571Y-11667952D01*
X15422524Y-11677476D01*
X15403476Y-11677476D01*
X15384428Y-11667952D01*
X15374905Y-11658428D01*
X15365381Y-11639381D01*
X15355857Y-11601286D01*
X15355857Y-11553667D01*
X15365381Y-11515571D01*
X15374905Y-11496524D01*
X15384428Y-11487000D01*
X15403476Y-11477476D01*
X15555857Y-11658428D02*
X15565381Y-11667952D01*
X15555857Y-11677476D01*
X15546333Y-11667952D01*
X15555857Y-11658428D01*
X15555857Y-11677476D01*
X15689190Y-11477476D02*
X15708238Y-11477476D01*
X15727286Y-11487000D01*
X15736809Y-11496524D01*
X15746333Y-11515571D01*
X15755857Y-11553667D01*
X15755857Y-11601286D01*
X15746333Y-11639381D01*
X15736809Y-11658428D01*
X15727286Y-11667952D01*
X15708238Y-11677476D01*
X15689190Y-11677476D01*
X15670143Y-11667952D01*
X15660619Y-11658428D01*
X15651095Y-11639381D01*
X15641571Y-11601286D01*
X15641571Y-11553667D01*
X15651095Y-11515571D01*
X15660619Y-11496524D01*
X15670143Y-11487000D01*
X15689190Y-11477476D01*
X15936809Y-11477476D02*
X15841571Y-11477476D01*
X15832048Y-11572714D01*
X15841571Y-11563190D01*
X15860619Y-11553667D01*
X15908238Y-11553667D01*
X15927286Y-11563190D01*
X15936809Y-11572714D01*
X15946333Y-11591762D01*
X15946333Y-11639381D01*
X15936809Y-11658428D01*
X15927286Y-11667952D01*
X15908238Y-11677476D01*
X15860619Y-11677476D01*
X15841571Y-11667952D01*
X15832048Y-11658428D01*
X16136809Y-11677476D02*
X16022524Y-11677476D01*
X16079667Y-11677476D02*
X16079667Y-11477476D01*
X16060619Y-11506048D01*
X16041571Y-11525095D01*
X16022524Y-11534619D01*
X16213000Y-11496524D02*
X16222524Y-11487000D01*
X16241571Y-11477476D01*
X16289190Y-11477476D01*
X16308238Y-11487000D01*
X16317762Y-11496524D01*
X16327286Y-11515571D01*
X16327286Y-11534619D01*
X16317762Y-11563190D01*
X16203476Y-11677476D01*
X16327286Y-11677476D01*
X16403476Y-11477476D02*
X16403476Y-11515571D01*
X16479667Y-11477476D02*
X16479667Y-11515571D01*
X16774905Y-11753667D02*
X16765381Y-11744143D01*
X16746333Y-11715571D01*
X16736809Y-11696524D01*
X16727286Y-11667952D01*
X16717762Y-11620333D01*
X16717762Y-11582238D01*
X16727286Y-11534619D01*
X16736809Y-11506048D01*
X16746333Y-11487000D01*
X16765381Y-11458428D01*
X16774905Y-11448905D01*
X16832048Y-11477476D02*
X16955857Y-11477476D01*
X16889190Y-11553667D01*
X16917762Y-11553667D01*
X16936810Y-11563190D01*
X16946333Y-11572714D01*
X16955857Y-11591762D01*
X16955857Y-11639381D01*
X16946333Y-11658428D01*
X16936810Y-11667952D01*
X16917762Y-11677476D01*
X16860619Y-11677476D01*
X16841571Y-11667952D01*
X16832048Y-11658428D01*
X17193952Y-11677476D02*
X17193952Y-11477476D01*
X17279667Y-11677476D02*
X17279667Y-11572714D01*
X17270143Y-11553667D01*
X17251095Y-11544143D01*
X17222524Y-11544143D01*
X17203476Y-11553667D01*
X17193952Y-11563190D01*
X17403476Y-11677476D02*
X17384429Y-11667952D01*
X17374905Y-11658428D01*
X17365381Y-11639381D01*
X17365381Y-11582238D01*
X17374905Y-11563190D01*
X17384429Y-11553667D01*
X17403476Y-11544143D01*
X17432048Y-11544143D01*
X17451095Y-11553667D01*
X17460619Y-11563190D01*
X17470143Y-11582238D01*
X17470143Y-11639381D01*
X17460619Y-11658428D01*
X17451095Y-11667952D01*
X17432048Y-11677476D01*
X17403476Y-11677476D01*
X17584429Y-11677476D02*
X17565381Y-11667952D01*
X17555857Y-11648905D01*
X17555857Y-11477476D01*
X17736810Y-11667952D02*
X17717762Y-11677476D01*
X17679667Y-11677476D01*
X17660619Y-11667952D01*
X17651095Y-11648905D01*
X17651095Y-11572714D01*
X17660619Y-11553667D01*
X17679667Y-11544143D01*
X17717762Y-11544143D01*
X17736810Y-11553667D01*
X17746333Y-11572714D01*
X17746333Y-11591762D01*
X17651095Y-11610809D01*
X17822524Y-11667952D02*
X17841571Y-11677476D01*
X17879667Y-11677476D01*
X17898714Y-11667952D01*
X17908238Y-11648905D01*
X17908238Y-11639381D01*
X17898714Y-11620333D01*
X17879667Y-11610809D01*
X17851095Y-11610809D01*
X17832048Y-11601286D01*
X17822524Y-11582238D01*
X17822524Y-11572714D01*
X17832048Y-11553667D01*
X17851095Y-11544143D01*
X17879667Y-11544143D01*
X17898714Y-11553667D01*
X17974905Y-11753667D02*
X17984429Y-11744143D01*
X18003476Y-11715571D01*
X18013000Y-11696524D01*
X18022524Y-11667952D01*
X18032048Y-11620333D01*
X18032048Y-11582238D01*
X18022524Y-11534619D01*
X18013000Y-11506048D01*
X18003476Y-11487000D01*
X17984429Y-11458428D01*
X17974905Y-11448905D01*
D15*
X13181033Y-11904033D02*
X13181033Y-11797966D01*
X13074966Y-11797966D01*
X13074966Y-11904033D01*
X13181033Y-11904033D01*
D11*
X13565381Y-11941476D02*
X13451095Y-11941476D01*
X13508238Y-11941476D02*
X13508238Y-11741476D01*
X13489190Y-11770048D01*
X13470143Y-11789095D01*
X13451095Y-11798619D01*
X13651095Y-11922428D02*
X13660619Y-11931952D01*
X13651095Y-11941476D01*
X13641571Y-11931952D01*
X13651095Y-11922428D01*
X13651095Y-11941476D01*
X13841571Y-11741476D02*
X13746333Y-11741476D01*
X13736809Y-11836714D01*
X13746333Y-11827190D01*
X13765381Y-11817667D01*
X13813000Y-11817667D01*
X13832048Y-11827190D01*
X13841571Y-11836714D01*
X13851095Y-11855762D01*
X13851095Y-11903381D01*
X13841571Y-11922428D01*
X13832048Y-11931952D01*
X13813000Y-11941476D01*
X13765381Y-11941476D01*
X13746333Y-11931952D01*
X13736809Y-11922428D01*
X13974905Y-11741476D02*
X13993952Y-11741476D01*
X14013000Y-11751000D01*
X14022524Y-11760524D01*
X14032048Y-11779571D01*
X14041571Y-11817667D01*
X14041571Y-11865286D01*
X14032048Y-11903381D01*
X14022524Y-11922428D01*
X14013000Y-11931952D01*
X13993952Y-11941476D01*
X13974905Y-11941476D01*
X13955857Y-11931952D01*
X13946333Y-11922428D01*
X13936809Y-11903381D01*
X13927286Y-11865286D01*
X13927286Y-11817667D01*
X13936809Y-11779571D01*
X13946333Y-11760524D01*
X13955857Y-11751000D01*
X13974905Y-11741476D01*
X14165381Y-11741476D02*
X14184428Y-11741476D01*
X14203476Y-11751000D01*
X14213000Y-11760524D01*
X14222524Y-11779571D01*
X14232048Y-11817667D01*
X14232048Y-11865286D01*
X14222524Y-11903381D01*
X14213000Y-11922428D01*
X14203476Y-11931952D01*
X14184428Y-11941476D01*
X14165381Y-11941476D01*
X14146333Y-11931952D01*
X14136809Y-11922428D01*
X14127286Y-11903381D01*
X14117762Y-11865286D01*
X14117762Y-11817667D01*
X14127286Y-11779571D01*
X14136809Y-11760524D01*
X14146333Y-11751000D01*
X14165381Y-11741476D01*
X14317762Y-11941476D02*
X14317762Y-11808143D01*
X14317762Y-11827190D02*
X14327286Y-11817667D01*
X14346333Y-11808143D01*
X14374905Y-11808143D01*
X14393952Y-11817667D01*
X14403476Y-11836714D01*
X14403476Y-11941476D01*
X14403476Y-11836714D02*
X14413000Y-11817667D01*
X14432048Y-11808143D01*
X14460619Y-11808143D01*
X14479667Y-11817667D01*
X14489190Y-11836714D01*
X14489190Y-11941476D01*
X14584428Y-11941476D02*
X14584428Y-11808143D01*
X14584428Y-11827190D02*
X14593952Y-11817667D01*
X14613000Y-11808143D01*
X14641571Y-11808143D01*
X14660619Y-11817667D01*
X14670143Y-11836714D01*
X14670143Y-11941476D01*
X14670143Y-11836714D02*
X14679667Y-11817667D01*
X14698714Y-11808143D01*
X14727286Y-11808143D01*
X14746333Y-11817667D01*
X14755857Y-11836714D01*
X14755857Y-11941476D01*
X15146333Y-11731952D02*
X14974905Y-11989095D01*
X15403476Y-11741476D02*
X15422524Y-11741476D01*
X15441571Y-11751000D01*
X15451095Y-11760524D01*
X15460619Y-11779571D01*
X15470143Y-11817667D01*
X15470143Y-11865286D01*
X15460619Y-11903381D01*
X15451095Y-11922428D01*
X15441571Y-11931952D01*
X15422524Y-11941476D01*
X15403476Y-11941476D01*
X15384428Y-11931952D01*
X15374905Y-11922428D01*
X15365381Y-11903381D01*
X15355857Y-11865286D01*
X15355857Y-11817667D01*
X15365381Y-11779571D01*
X15374905Y-11760524D01*
X15384428Y-11751000D01*
X15403476Y-11741476D01*
X15555857Y-11922428D02*
X15565381Y-11931952D01*
X15555857Y-11941476D01*
X15546333Y-11931952D01*
X15555857Y-11922428D01*
X15555857Y-11941476D01*
X15689190Y-11741476D02*
X15708238Y-11741476D01*
X15727286Y-11751000D01*
X15736809Y-11760524D01*
X15746333Y-11779571D01*
X15755857Y-11817667D01*
X15755857Y-11865286D01*
X15746333Y-11903381D01*
X15736809Y-11922428D01*
X15727286Y-11931952D01*
X15708238Y-11941476D01*
X15689190Y-11941476D01*
X15670143Y-11931952D01*
X15660619Y-11922428D01*
X15651095Y-11903381D01*
X15641571Y-11865286D01*
X15641571Y-11817667D01*
X15651095Y-11779571D01*
X15660619Y-11760524D01*
X15670143Y-11751000D01*
X15689190Y-11741476D01*
X15936809Y-11741476D02*
X15841571Y-11741476D01*
X15832048Y-11836714D01*
X15841571Y-11827190D01*
X15860619Y-11817667D01*
X15908238Y-11817667D01*
X15927286Y-11827190D01*
X15936809Y-11836714D01*
X15946333Y-11855762D01*
X15946333Y-11903381D01*
X15936809Y-11922428D01*
X15927286Y-11931952D01*
X15908238Y-11941476D01*
X15860619Y-11941476D01*
X15841571Y-11931952D01*
X15832048Y-11922428D01*
X16041571Y-11941476D02*
X16079667Y-11941476D01*
X16098714Y-11931952D01*
X16108238Y-11922428D01*
X16127286Y-11893857D01*
X16136809Y-11855762D01*
X16136809Y-11779571D01*
X16127286Y-11760524D01*
X16117762Y-11751000D01*
X16098714Y-11741476D01*
X16060619Y-11741476D01*
X16041571Y-11751000D01*
X16032048Y-11760524D01*
X16022524Y-11779571D01*
X16022524Y-11827190D01*
X16032048Y-11846238D01*
X16041571Y-11855762D01*
X16060619Y-11865286D01*
X16098714Y-11865286D01*
X16117762Y-11855762D01*
X16127286Y-11846238D01*
X16136809Y-11827190D01*
X16327286Y-11941476D02*
X16213000Y-11941476D01*
X16270143Y-11941476D02*
X16270143Y-11741476D01*
X16251095Y-11770048D01*
X16232048Y-11789095D01*
X16213000Y-11798619D01*
X16403476Y-11741476D02*
X16403476Y-11779571D01*
X16479667Y-11741476D02*
X16479667Y-11779571D01*
X16774905Y-12017667D02*
X16765381Y-12008143D01*
X16746333Y-11979571D01*
X16736809Y-11960524D01*
X16727286Y-11931952D01*
X16717762Y-11884333D01*
X16717762Y-11846238D01*
X16727286Y-11798619D01*
X16736809Y-11770048D01*
X16746333Y-11751000D01*
X16765381Y-11722428D01*
X16774905Y-11712905D01*
X16841571Y-11760524D02*
X16851095Y-11751000D01*
X16870143Y-11741476D01*
X16917762Y-11741476D01*
X16936810Y-11751000D01*
X16946333Y-11760524D01*
X16955857Y-11779571D01*
X16955857Y-11798619D01*
X16946333Y-11827190D01*
X16832048Y-11941476D01*
X16955857Y-11941476D01*
X17193952Y-11941476D02*
X17193952Y-11741476D01*
X17279667Y-11941476D02*
X17279667Y-11836714D01*
X17270143Y-11817667D01*
X17251095Y-11808143D01*
X17222524Y-11808143D01*
X17203476Y-11817667D01*
X17193952Y-11827190D01*
X17403476Y-11941476D02*
X17384429Y-11931952D01*
X17374905Y-11922428D01*
X17365381Y-11903381D01*
X17365381Y-11846238D01*
X17374905Y-11827190D01*
X17384429Y-11817667D01*
X17403476Y-11808143D01*
X17432048Y-11808143D01*
X17451095Y-11817667D01*
X17460619Y-11827190D01*
X17470143Y-11846238D01*
X17470143Y-11903381D01*
X17460619Y-11922428D01*
X17451095Y-11931952D01*
X17432048Y-11941476D01*
X17403476Y-11941476D01*
X17584429Y-11941476D02*
X17565381Y-11931952D01*
X17555857Y-11912905D01*
X17555857Y-11741476D01*
X17736810Y-11931952D02*
X17717762Y-11941476D01*
X17679667Y-11941476D01*
X17660619Y-11931952D01*
X17651095Y-11912905D01*
X17651095Y-11836714D01*
X17660619Y-11817667D01*
X17679667Y-11808143D01*
X17717762Y-11808143D01*
X17736810Y-11817667D01*
X17746333Y-11836714D01*
X17746333Y-11855762D01*
X17651095Y-11874809D01*
X17822524Y-11931952D02*
X17841571Y-11941476D01*
X17879667Y-11941476D01*
X17898714Y-11931952D01*
X17908238Y-11912905D01*
X17908238Y-11903381D01*
X17898714Y-11884333D01*
X17879667Y-11874809D01*
X17851095Y-11874809D01*
X17832048Y-11865286D01*
X17822524Y-11846238D01*
X17822524Y-11836714D01*
X17832048Y-11817667D01*
X17851095Y-11808143D01*
X17879667Y-11808143D01*
X17898714Y-11817667D01*
X17974905Y-12017667D02*
X17984429Y-12008143D01*
X18003476Y-11979571D01*
X18013000Y-11960524D01*
X18022524Y-11931952D01*
X18032048Y-11884333D01*
X18032048Y-11846238D01*
X18022524Y-11798619D01*
X18013000Y-11770048D01*
X18003476Y-11751000D01*
X17984429Y-11722428D01*
X17974905Y-11712905D01*
M02*
